<svg width="34" height="40" fill="none" xmlns="http://www.w3.org/2000/svg"><path d="M29.021 4.912C25.811 1.744 21.541 0 17.001 0 12.458 0 8.19 1.744 4.978 4.912 1.77 8.079 0 12.29 0 16.77c0 4.479 1.768 8.69 4.98 11.858l11.18 11.029c.232.229.536.343.84.343.304 0 .608-.114.84-.343l11.18-11.03C32.233 25.46 34 21.25 34 16.77c0-4.48-1.768-8.69-4.979-11.858zm-6.682 17.124A7.554 7.554 0 0117 24.217a7.553 7.553 0 01-5.338-2.18A7.348 7.348 0 019.45 16.77c0-1.99.785-3.86 2.212-5.267A7.553 7.553 0 0117 9.322c2.017 0 3.913.774 5.34 2.181a7.349 7.349 0 012.21 5.267 7.35 7.35 0 01-2.21 5.266z" fill="#FF5A72"/></svg>