<svg width="16" height="20" fill="none" xmlns="http://www.w3.org/2000/svg"><path d="M15.963 8.177c0-.87.084-1.806 0-2.693s-.353-1.71-1.042-2.387L12.636.952C11.98.306 11.09 0 10.166 0H1.159C.59 0 0 .371 0 .92v15.5c.672-.517 2.79-1.71 3.025-1.856l.084-.048c.47-.806.99-1.742 1.529-2.774A27.817 27.817 0 006.519 7.21C6.2 6.177 6 5.177 5.95 4.226v-.13c-.051-.677-.118-1.822.486-2.257a1.1 1.1 0 01.622-.21.78.78 0 01.336.065c.404.129.656.532.723 1.177.067.355.033.71 0 1a24.523 24.523 0 01-.555 3.322c0 .033.034.097.05.146.017.032.017.048.034.08.756 2.113 2.117 3.694 4.117 4.807.756-.081 1.479-.13 2.1-.13.555 0 1.294.017 1.966.178.034.016.118.016.118.032.017-1.37.017-2.758.017-4.129z" fill="#1D1954"/><path d="M5.495 13.355a15.084 15.084 0 013.83-1.065c.185-.016.253-.242.118-.37-.924-.807-1.596-1.775-2.05-2.646-.084-.161-.336-.145-.403.032-.336.952-.79 1.952-1.378 3.033l-.403.725c-.1.178.1.371.286.29zm-1.95 2.467c-.05.081-.084.13-.117.178a15.44 15.44 0 01-.824 1.145c-.302.387-.604.758-.957 1.097a4.692 4.692 0 01-.437.37c-.185.146-.42.227-.555.404-.1.113-.134.274-.134.42a.6.6 0 00.605.564h13.123c.89 0 1.697-.694 1.697-1.548v-4s-.151.016-.219.016c-.99 0-2.453-.387-3.83-1.016a.534.534 0 00-.22-.049c-.285-.032-.587-.032-.873-.032-.42 0-.84.032-1.26.08-.32.049-.639.097-.958.162a12.844 12.844 0 00-4.856 2.032.628.628 0 00-.185.177z" fill="#1D1954"/></svg>