<svg width="51" height="58" fill="none" xmlns="http://www.w3.org/2000/svg"><path fill-rule="evenodd" clip-rule="evenodd" d="M25.023 6.162c-1.498.049-2.647 1.28-2.599 2.72.049 1.441 1.278 2.595 2.775 2.546 1.497-.048 2.647-1.28 2.598-2.72-.048-1.44-1.277-2.595-2.774-2.546zm-4.37 2.778c-.082-2.448 1.862-4.473 4.31-4.553 2.449-.08 4.524 1.815 4.606 4.263.082 2.448-1.862 4.473-4.31 4.553-2.449.08-4.524-1.815-4.606-4.263z" fill="#1D1954"/><path fill-rule="evenodd" clip-rule="evenodd" d="M28.013 8.769c0-.49.396-.888.886-.888h9.516a.887.887 0 010 1.775H28.9a.887.887 0 01-.886-.887zm-8.98 34.511H31.17v11.99H19.033V43.28zm1.772 1.776v8.439h8.593v-8.44h-8.593z" fill="#1D1954"/><path fill-rule="evenodd" clip-rule="evenodd" d="M21.534 42.142c0-1.903 1.562-3.485 3.522-3.485h.179c1.895 0 3.521 1.519 3.521 3.485v2.025h-1.772v-2.025c0-.939-.786-1.71-1.75-1.71h-.178c-.989 0-1.75.796-1.75 1.71v2.025h-1.772v-2.025z" fill="#1D1954"/><path fill-rule="evenodd" clip-rule="evenodd" d="M24.215 12.247h1.773v27.298h-1.773V12.247zM43.731 1.776c-.596 0-1.034.452-1.034 1.005v11.932c0 .552.438 1.005 1.034 1.005h3.664c.538 0 .99-.439.99-1.005V2.78c0-.553-.438-1.006-1.035-1.006h-3.619zM40.924 2.78c0-1.56 1.26-2.781 2.807-2.781h3.62c1.547 0 2.807 1.22 2.807 2.78v11.933a2.77 2.77 0 01-2.763 2.78h-3.664c-1.547 0-2.807-1.22-2.807-2.78V2.78zm-2.508 47.383h-8.131v-1.775h8.131v1.775z" fill="#1D1954"/><path fill-rule="evenodd" clip-rule="evenodd" d="M37.53 8.769c0-2.405 1.981-4.278 4.326-4.278a.887.887 0 010 1.775c-1.409 0-2.554 1.12-2.554 2.503 0 1.352 1.116 2.502 2.554 2.502a.887.887 0 010 1.776c-2.405 0-4.327-1.933-4.327-4.278z" fill="#1D1954"/><path d="M46.502 11.058V4.586c0-.528-.447-.925-.938-.925a.937.937 0 00-.938.925v7.089a5.224 5.224 0 011.876-.617z" fill="#FF5A72"/><path fill-rule="evenodd" clip-rule="evenodd" d="M43.732 42.282c-.597 0-1.035.453-1.035 1.005V55.22c0 .553.438 1.006 1.035 1.006h3.663c.538 0 .99-.44.99-1.006V43.287c0-.552-.438-1.005-1.035-1.005h-3.618zm-2.808 1.005c0-1.56 1.26-2.78 2.808-2.78h3.618c1.548 0 2.808 1.22 2.808 2.78V55.22A2.77 2.77 0 0147.395 58h-3.663c-1.548 0-2.808-1.22-2.808-2.78V43.286z" fill="#1D1954"/><path fill-rule="evenodd" clip-rule="evenodd" d="M37.53 49.275c0-2.404 1.981-4.278 4.326-4.278a.887.887 0 010 1.776c-1.409 0-2.554 1.12-2.554 2.502 0 1.353 1.116 2.503 2.554 2.503a.887.887 0 010 1.775c-2.405 0-4.327-1.932-4.327-4.278z" fill="#1D1954"/><path d="M46.502 51.608v-6.472c0-.528-.447-.924-.938-.924a.937.937 0 00-.938.924v7.089a3.948 3.948 0 011.876-.617z" fill="#FF5A72"/><path fill-rule="evenodd" clip-rule="evenodd" d="M10.9 8.769c0-.49.398-.888.887-.888h9.74a.887.887 0 010 1.775h-9.74a.887.887 0 01-.886-.887zM0 2.781C0 1.221 1.26.001 2.808.001h3.619c1.548 0 2.807 1.22 2.807 2.78v11.932c0 1.56-1.26 2.78-2.807 2.78h-3.62C1.319 17.494 0 16.288 0 14.714V2.78zm2.808-1.005c-.597 0-1.035.452-1.035 1.005v11.932c0 .54.47 1.005 1.035 1.005h3.619c.596 0 1.035-.452 1.035-1.005V2.78c0-.553-.439-1.005-1.035-1.005h-3.62zm8.979 46.612h8.131v1.775h-8.13v-1.775z" fill="#1D1954"/><path fill-rule="evenodd" clip-rule="evenodd" d="M7.46 5.379c0-.49.397-.888.887-.888 2.344 0 4.326 1.873 4.326 4.278 0 2.345-1.922 4.278-4.326 4.278a.887.887 0 010-1.776c1.438 0 2.554-1.15 2.554-2.502 0-1.382-1.146-2.503-2.554-2.503a.887.887 0 01-.887-.887z" fill="#1D1954"/><path d="M3.7 11.058V4.586c0-.528.447-.925.939-.925.536 0 .938.44.938.925v7.089a5.225 5.225 0 00-1.876-.617z" fill="#FF5A72"/><path fill-rule="evenodd" clip-rule="evenodd" d="M0 43.287c0-1.56 1.26-2.78 2.807-2.78h3.62c1.547 0 2.807 1.22 2.807 2.78V55.22c0 1.56-1.26 2.78-2.808 2.78H2.807C1.317 58 0 56.794 0 55.22V43.287zm2.807-1.005c-.596 0-1.035.452-1.035 1.005V55.22c0 .54.47 1.005 1.035 1.005h3.62c.596 0 1.034-.452 1.034-1.005V43.287c0-.553-.438-1.005-1.035-1.005H2.807z" fill="#1D1954"/><path fill-rule="evenodd" clip-rule="evenodd" d="M7.46 45.885c0-.49.397-.888.887-.888 2.344 0 4.326 1.873 4.326 4.278 0 2.346-1.922 4.278-4.326 4.278a.887.887 0 010-1.775c1.438 0 2.554-1.15 2.554-2.503 0-1.382-1.146-2.502-2.554-2.502a.887.887 0 01-.887-.888z" fill="#1D1954"/><path d="M3.7 51.608v-6.472c0-.528.447-.924.939-.924.536 0 .938.44.938.924v7.089a3.948 3.948 0 00-1.876-.617z" fill="#FF5A72"/></svg>