<svg width="58" height="58" fill="none" xmlns="http://www.w3.org/2000/svg"><path fill-rule="evenodd" clip-rule="evenodd" d="M4.221 43.761c-.948 0-1.702.783-1.702 1.712v11.654a.87.87 0 01-.867.873.87.87 0 01-.868-.873V45.473c0-1.874 1.511-3.458 3.437-3.458h11.453a3.61 3.61 0 013.612 3.633 3.61 3.61 0 01-3.612 3.633H6.05a.87.87 0 01-.868-.872.87.87 0 01.868-.873h9.624a1.87 1.87 0 001.876-1.888 1.87 1.87 0 00-1.876-1.887H4.221zm34.494 1.887a3.61 3.61 0 013.61-3.633H53.78c1.926 0 3.437 1.584 3.437 3.458v11.654a.87.87 0 01-.868.873.87.87 0 01-.867-.873V45.473c0-.93-.754-1.712-1.702-1.712H42.326a1.87 1.87 0 00-1.876 1.887 1.87 1.87 0 001.876 1.888h9.624c.48 0 .868.39.868.873a.87.87 0 01-.868.873h-9.624a3.61 3.61 0 01-3.611-3.634zM16.597 15.141a.864.864 0 011.225-.065l2.177 1.972a3.764 3.764 0 002.556 1.002H36.01c.953 0 1.837-.352 2.555-1.002l2.177-1.972a.864.864 0 011.226.065c.32.358.291.91-.065 1.233l-2.177 1.971c-1.024.927-2.317 1.451-3.716 1.451H22.554a5.494 5.494 0 01-3.715-1.45l-2.178-1.972a.877.877 0 01-.064-1.233zm33.817 8.704a.872.872 0 01-.743.982l-6.094.832h-.001a2.244 2.244 0 00-1.95 2.246v.704h7.928a.87.87 0 01.868.873.87.87 0 01-.867.873H39.89v-2.45a3.987 3.987 0 013.448-3.975h.003l6.097-.833a.869.869 0 01.976.747zm-42.785 0a.869.869 0 01.976-.748l6.103.833a4.024 4.024 0 013.445 3.975v2.45H8.488a.87.87 0 01-.867-.873.87.87 0 01.867-.873h7.93v-.704c0-1.13-.845-2.086-1.953-2.246l-6.093-.832a.872.872 0 01-.743-.983zm-3.888-4.524c.48 0 .868.39.868.873v14.677a.87.87 0 01-.868.873.87.87 0 01-.867-.873V20.194a.87.87 0 01.867-.873z" fill="#1D1954"/><path fill-rule="evenodd" clip-rule="evenodd" d="M13.36 3.36l-4.755 9.176a.867.867 0 01-.77.47h-5.53a.584.584 0 00-.57.572v2.892c0 .215.071.335.133.389a.869.869 0 01.074.072l2.439 2.672c.324.356.3.908-.052 1.234a.864.864 0 01-1.226-.053l-2.409-2.64C.18 17.676 0 17.029 0 16.47v-2.892c0-1.27 1.042-2.318 2.305-2.318h5.004l4.547-8.775a.867.867 0 01.079-.124A5.888 5.888 0 0116.631 0h24.736c1.843 0 3.578.875 4.697 2.36.03.04.056.081.079.125l4.547 8.775h5.004c1.263 0 2.305 1.048 2.305 2.318v2.892a2.41 2.41 0 01-.675 1.654l-2.2 2.41V34.87a.87.87 0 01-.867.873.87.87 0 01-.867-.873V20.194c0-.219.081-.43.228-.59l2.439-2.673a.661.661 0 00.207-.461v-2.892a.584.584 0 00-.57-.573h-5.53a.867.867 0 01-.77-.469L44.64 3.36a4.154 4.154 0 00-3.272-1.614H16.632c-1.27 0-2.475.592-3.272 1.614z" fill="#1D1954"/><path fill-rule="evenodd" clip-rule="evenodd" d="M45.373 33.998c.48 0 .868.39.868.873v.525c0 1.972 1.615 3.596 3.575 3.596 1.959 0 3.574-1.624 3.574-3.596v-.525a.87.87 0 01.867-.873c.48 0 .868.39.868.873v.525c0 2.936-2.392 5.342-5.31 5.342-2.917 0-5.31-2.406-5.31-5.342v-.525a.87.87 0 01.868-.873zm-41.588 0a.87.87 0 01.867.873v.525c0 1.972 1.615 3.596 3.575 3.596 1.96 0 3.574-1.624 3.574-3.596v-.525a.87.87 0 01.868-.873.87.87 0 01.867.873v.525c0 2.936-2.391 5.342-5.31 5.342-2.917 0-5.309-2.406-5.309-5.342v-.525a.87.87 0 01.868-.873z" fill="#1D1954"/><path fill-rule="evenodd" clip-rule="evenodd" d="M7.62 34.87a.87.87 0 01.868-.872h41.066c.48 0 .868.39.868.873a.87.87 0 01-.867.873H8.487a.87.87 0 01-.867-.873zm17.028-5.388a.87.87 0 01.868-.873h7.011c.48 0 .868.39.868.873a.87.87 0 01-.868.873h-7.011a.87.87 0 01-.868-.873zM12.019 12.176a.87.87 0 01.868-.873h32.269a.87.87 0 01.868.873.87.87 0 01-.868.873h-32.27a.87.87 0 01-.867-.873z" fill="#1D1954"/><path d="M41.41 3.546H16.676c-.697 0-1.35.306-1.829.832l-2.351 4.556h33.097L43.24 4.378c-.48-.526-1.132-.832-1.83-.832z" fill="#FF5A72"/></svg>