<svg width="63" height="60" fill="none" xmlns="http://www.w3.org/2000/svg"><path d="M31.29 59c4.806 0 8.702-3.889 8.702-8.686 0-4.797-3.896-8.686-8.702-8.686s-8.702 3.89-8.702 8.686c0 4.797 3.896 8.686 8.702 8.686z" stroke="#1D1954" stroke-width="2" stroke-miterlimit="10"/><path d="M27.724 49.84l3.28 3.275 4.803-4.794m4.184 1.756c8.131-1.472 15.502-5.031 21.636-10.062M1 40.015a47.878 47.878 0 0021.636 10.062" stroke="#1D1954" stroke-width="2" stroke-miterlimit="10" stroke-linecap="round"/><path d="M42.512 14.432l-1.95 1.804c-.76.712-1.806 1.091-2.853 1.091H25.441c-1.046 0-2.092-.38-2.853-1.091l-1.95-1.804" stroke="#1D1954" stroke-width="2" stroke-miterlimit="10" stroke-linecap="round" stroke-linejoin="round"/><path d="M50.024 26.867h-8.036v-1.424c0-1.423 1.046-2.61 2.473-2.847l5.563-.76m-37.468.048l5.563.759c1.427.19 2.473 1.424 2.473 2.848v1.424h-8.036" stroke="#1D1954" stroke-width="2" stroke-miterlimit="10" stroke-linecap="round"/><path d="M8.228 18.466v13.29m-.001-13.29l-2.235-2.42a1.194 1.194 0 01-.428-.95v-2.61c0-.712.571-1.281 1.284-1.281h5.04l4.375-8.401C17.12 1.664 18.498 1 19.925 1h22.634c1.426 0 2.805.665 3.661 1.804l4.375 8.4h5.04c.714 0 1.284.57 1.284 1.282v2.61c0 .38-.142.713-.428.95l-2.234 2.42v13.29m-8.037 0v.475a4.035 4.035 0 004.043 4.034 4.035 4.035 0 004.041-4.034v-.475m-37.945 0v.475a4.035 4.035 0 01-4.042 4.034 4.035 4.035 0 01-4.042-4.034v-.475m41.751 0h-37.47m15.548-4.889h6.419M16.597 11.204H46.03" stroke="#1D1954" stroke-width="2" stroke-miterlimit="10" stroke-linecap="round" stroke-linejoin="round"/><path d="M42.607 3.848H19.973a1.7 1.7 0 00-1.284.57l-1.807 3.464H45.65l-1.807-3.465c-.285-.38-.76-.57-1.236-.57z" fill="#FF5A72"/></svg>