<svg width="69" height="60" fill="none" xmlns="http://www.w3.org/2000/svg"><path d="M48.09 45.497c0-7.467-6.086-13.502-13.616-13.502-7.53 0-13.617 6.035-13.617 13.502C20.857 52.965 26.943 59 34.474 59c7.53 0 13.616-6.035 13.616-13.503z" stroke="#1D1954" stroke-width="1.8" stroke-miterlimit="10"/><path d="M44.016 43.912c-.052-.563-.568-1.023-1.135-.972-.888.06-1.686-.485-2.156-1.241a7.145 7.145 0 00-.393-.57c-.547-.715-.784-1.675-.39-2.485a1.056 1.056 0 00-.517-1.432l-1.547-.716a1.073 1.073 0 00-1.444.511c-.397.818-1.29 1.244-2.2 1.27a6.81 6.81 0 00-.723.057c-.883.116-1.82-.142-2.338-.867-.31-.46-.98-.613-1.496-.255l-1.393.971a1.05 1.05 0 00-.258 1.484c.516.721.449 1.69.029 2.47a7.289 7.289 0 00-.29.603c-.359.844-1.093 1.52-2.008 1.581-.567.051-1.032.563-.98 1.125l.155 1.688c.051.563.567 1.023 1.135.972.888-.06 1.686.485 2.155 1.241.123.198.254.388.393.57.548.715.785 1.675.392 2.485a1.056 1.056 0 00.515 1.432l1.548.716a1.073 1.073 0 001.444-.511c.397-.818 1.29-1.244 2.199-1.27a7.15 7.15 0 00.724-.057c.882-.116 1.82.142 2.338.866.31.46.98.614 1.496.256l1.392-.972a1.05 1.05 0 00.258-1.483c-.515-.721-.448-1.69-.028-2.471.106-.197.202-.398.29-.603.358-.843 1.093-1.52 2.008-1.58.567-.051 1.031-.563.98-1.125l-.155-1.688zm-9.542 5.37c-2.115 0-3.817-1.688-3.817-3.785 0-2.097 1.702-3.785 3.817-3.785s3.817 1.688 3.817 3.785c0 2.097-1.702 3.785-3.817 3.785z" fill="#FF5A72"/><path d="M5.952 29.846l12.74-12.633M3.476 27.392l12.74-12.634M1 24.937l12.791-12.633m49.257 17.542L50.257 17.213m15.268 10.179L52.733 14.758M68 24.937L55.209 12.303" stroke="#1D1954" stroke-width="1.8" stroke-miterlimit="10" stroke-linecap="round"/><path d="M61.605 18.645l3.75-3.751a3 3 0 00-.009-4.251L56.5 1.87A3 3 0 0054.387 1H14.615a3 3 0 00-2.113.87l-8.847 8.773a3 3 0 00-.009 4.25l3.75 3.752m23.777 13.759l-9.542-9.462a1.973 1.973 0 00-2.785 0l-7.066 7.007a1.933 1.933 0 000 2.762l9.541 9.462m26.357 0l9.542-9.462a1.933 1.933 0 000-2.762l-7.066-7.007a1.973 1.973 0 00-2.785 0l-9.542 9.462" stroke="#1D1954" stroke-width="1.8" stroke-miterlimit="10"/><path d="M34.474 16.344c2.905 0 5.26-2.336 5.26-5.217S37.38 5.91 34.475 5.91c-2.906 0-5.261 2.336-5.261 5.217s2.355 5.217 5.26 5.217z" stroke="#1D1954" stroke-width="1.8" stroke-miterlimit="10" stroke-linecap="round"/><path d="M36.434 11.127a1.896 1.896 0 00-1.908-1.892 1.895 1.895 0 00-1.908 1.892c0 1.074.877 1.892 1.908 1.892 1.031.051 1.908-.818 1.908-1.892z" fill="#BCC2E6"/><path d="M39.786 10.258l1.599 13.093M29.213 10.258l-1.6 13.093" stroke="#1D1954" stroke-width="1.8" stroke-miterlimit="10" stroke-linecap="round"/></svg>