<svg width="49" height="60" fill="none" xmlns="http://www.w3.org/2000/svg"><mask id="a" fill="#fff"><path d="M17.268 5.508a2 2 0 00-1.703.952L8.13 18.54c-.82 1.332.138 3.048 1.703 3.048h30.716a2 2 0 002-2V7.508a2 2 0 00-2-2h-23.28z"/></mask><path d="M15.565 6.46l-1.703-1.05 1.703 1.049zm-1.703-1.05L6.425 17.49l3.407 2.097 7.436-12.08-3.406-2.097zm-4.03 18.177h30.716v-4H9.832v4zm34.716-4V7.508h-4v12.08h4zm-4-16.08h-23.28v4h23.28v-4zm4 4a4 4 0 00-4-4v4h4zm-4 16.08a4 4 0 004-4h-4v4zM6.425 17.491c-1.64 2.665.277 6.097 3.407 6.097v-4l-3.407-2.097zm10.843-9.983v-4a4 4 0 00-3.406 1.903l3.406 2.097z" fill="#1D1954" mask="url(#a)"/><path d="M13.641 1.046L1 21.588v17.009c10.178.977 18.218 9.528 18.218 19.938V59H47.01V1H13.73l-.089.046z" stroke="#1D1954" stroke-width="2" stroke-miterlimit="10"/><path d="M23.777 52.59C22.847 43.388 16.11 35.905 7 34" stroke="#FF5A72" stroke-width="3" stroke-miterlimit="10" stroke-linecap="round"/><path d="M42.55 27.211v4.648H32.51v-1.813m0 5.764h5.02" stroke="#1D1954" stroke-width="2" stroke-miterlimit="10" stroke-linecap="round"/></svg>