<svg width="62" height="58" fill="none" xmlns="http://www.w3.org/2000/svg"><path d="M43.984 49.915v-4.827a8.414 8.414 0 005.154-5.148h4.832v9.975h-9.986z" fill="#FF5A72"/><path fill-rule="evenodd" clip-rule="evenodd" d="M61.137 32.106c.369 0 .667.298.667.666v24.365a.666.666 0 01-.667.666h-24.39a.666.666 0 01-.666-.666V32.772c0-.367.298-.666.666-.666h24.39zm-.666 1.332H37.414v23.033h23.057V33.438z" fill="#1D1954"/><path fill-rule="evenodd" clip-rule="evenodd" d="M29.19 37.596c0-.367.299-.666.667-.666h6.949c.368 0 .455.275.455.643s-.087.69-.455.69h-6.95a.666.666 0 01-.666-.667zm0 7.31c0-.368.299-.666.667-.666h6.949c.368 0 .455.298.455.666 0 .367-.087.666-.455.666h-6.95a.666.666 0 01-.666-.666zm0 7.309c0-.368.299-.666.667-.666h6.949c.368 0 .455.298.455.666 0 .368-.087.666-.455.666h-6.95a.666.666 0 01-.666-.666z" fill="#1D1954"/><path fill-rule="evenodd" clip-rule="evenodd" d="M25.14 52.247a2.708 2.708 0 012.692-2.675 2.708 2.708 0 012.692 2.69 2.708 2.708 0 01-2.692 2.688c-1.498 0-2.746-1.201-2.691-2.703zm2.692-1.343a1.375 1.375 0 00-1.358 1.385c-.03.698.56 1.329 1.358 1.329.736 0 1.358-.621 1.358-1.357 0-.735-.622-1.357-1.358-1.357zm-2.692-5.966a2.708 2.708 0 012.692-2.675 2.708 2.708 0 012.692 2.689 2.708 2.708 0 01-2.692 2.689c-1.498 0-2.746-1.201-2.691-2.703zm2.692-1.343a1.375 1.375 0 00-1.358 1.385c-.03.698.56 1.328 1.358 1.328.736 0 1.358-.62 1.358-1.356 0-.736-.622-1.357-1.358-1.357zm0-7.355a1.357 1.357 0 10-.002 2.714 1.357 1.357 0 00.002-2.714zm-2.692 1.356a2.69 2.69 0 012.692-2.688 2.69 2.69 0 012.691 2.688 2.69 2.69 0 01-2.691 2.689 2.69 2.69 0 01-2.692-2.689zm30.717-12.48c.368 0 .666.298.666.666v6.942a.666.666 0 01-1.333 0v-6.942c0-.368.299-.666.667-.666zm-7.316 0c.368 0 .667.298.667.666v6.942a.666.666 0 01-1.334 0v-6.942c0-.368.299-.666.667-.666z" fill="#1D1954"/><path fill-rule="evenodd" clip-rule="evenodd" d="M45.85 23.76a2.678 2.678 0 012.691-2.69 2.708 2.708 0 012.692 2.69 2.708 2.708 0 01-2.692 2.688 2.708 2.708 0 01-2.691-2.689zm2.691-1.358c-.746 0-1.358.585-1.358 1.357 0 .735.622 1.357 1.358 1.357.736 0 1.358-.622 1.358-1.357s-.621-1.357-1.358-1.357zm4.626 1.358a2.678 2.678 0 012.692-2.69 2.708 2.708 0 012.691 2.69 2.708 2.708 0 01-2.691 2.688 2.708 2.708 0 01-2.692-2.689zm2.692-1.358c-.747 0-1.358.585-1.358 1.357 0 .735.621 1.357 1.358 1.357.736 0 1.358-.622 1.358-1.357s-.622-1.357-1.358-1.357zM46.218 36.47h1.61v.046h9.618v16.825H40.604V42.078h.666a4.938 4.938 0 004.948-4.943v-.666zm1.294 1.379h8.6v14.16H41.937v-8.633a6.27 6.27 0 005.575-5.527zM14.964 13.423a.667.667 0 01.942-.036l1.89 1.75c.602.564 1.447.877 2.305.877h11.872c.858 0 1.703-.313 2.306-.877l.002-.003 1.887-1.747a.667.667 0 01.906.977l-1.884 1.744-.001.002c-.87.814-2.05 1.236-3.216 1.236H20.101c-1.167 0-2.346-.422-3.216-1.236l-1.886-1.746a.666.666 0 01-.035-.941zm29.588 7.534c.05.364-.205.7-.57.75l-5.374.734c-1.07.182-1.827 1.065-1.827 2.1v.713h7.11a.666.666 0 110 1.332h-8.443V24.54c0-1.72 1.264-3.135 2.95-3.416l.01-.001 5.393-.737a.667.667 0 01.751.57zm-37.583.046a.667.667 0 01.75-.57l5.382.736h.002c1.72.23 2.97 1.716 2.97 3.418v2.045H7.63a.666.666 0 110-1.332h7.11v-.713c0-1.055-.774-1.96-1.814-2.098h-.002l-5.384-.736a.666.666 0 01-.57-.75zm-3.528-3.886c.368 0 .667.298.667.666v12.872a.666.666 0 01-1.334 0V17.783c0-.368.299-.666.667-.666z" fill="#1D1954"/><path fill-rule="evenodd" clip-rule="evenodd" d="M11.784 2.97l-4.207 8.087a.667.667 0 01-.591.359H2.108a.57.57 0 00-.576.575v2.528c0 .19.065.317.174.408a.663.663 0 01.064.06l2.162 2.345a.666.666 0 11-.98.902L.815 15.92a1.824 1.824 0 01-.617-1.4v-2.528c0-1.057.851-1.907 1.91-1.907H6.58l4.047-7.778a.672.672 0 01.058-.093C11.645.936 13.18.2 14.763.2h21.905c1.583 0 3.118.736 4.077 2.013.022.03.04.06.058.093l4.047 7.778h4.473c1.058 0 1.91.85 1.91 1.907v2.528c0 .53-.2 1.034-.618 1.4l-2.136 2.316a.667.667 0 01-.98-.903l2.162-2.345a.669.669 0 01.063-.06.493.493 0 00.175-.408v-2.528a.57.57 0 00-.576-.575h-4.878a.667.667 0 01-.592-.36l-4.207-8.085c-.7-.905-1.818-1.439-2.978-1.439H14.763c-1.16 0-2.278.534-2.979 1.439zM3.488 29.989c.368 0 .666.298.666.666v.46a3.24 3.24 0 003.246 3.24 3.24 3.24 0 003.245-3.242v-.46a.666.666 0 011.334 0v.46A4.573 4.573 0 017.4 35.687a4.573 4.573 0 01-4.578-4.574v-.46c0-.367.298-.665.667-.665z" fill="#1D1954"/><path fill-rule="evenodd" clip-rule="evenodd" d="M6.962 30.655c0-.368.299-.666.667-.666h26.415a.666.666 0 110 1.332H7.629a.666.666 0 01-.667-.666zm15.049-4.735c0-.368.299-.666.667-.666h6.213a.666.666 0 110 1.332h-6.213a.666.666 0 01-.667-.666zM10.874 10.75c0-.368.299-.666.667-.666h28.486a.666.666 0 110 1.332H11.54a.666.666 0 01-.667-.666z" fill="#1D1954"/><path fill-rule="evenodd" clip-rule="evenodd" d="M10.527 2.092C11.525.763 13.12 0 14.762 0h21.904c1.642 0 3.237.763 4.235 2.092a.86.86 0 01.075.12l3.992 7.672h4.354a2.1 2.1 0 012.106 2.105v2.529c0 .579-.218 1.135-.677 1.542l-2.13 2.308a.863.863 0 11-1.269-1.173l2.163-2.344a.856.856 0 01.083-.079c.06-.05.102-.119.102-.254v-2.529a.373.373 0 00-.378-.376h-4.878a.864.864 0 01-.767-.465l-4.198-8.07a3.591 3.591 0 00-2.813-1.349H14.762c-1.097 0-2.15.503-2.813 1.349l-4.199 8.07a.864.864 0 01-.766.465H2.106a.372.372 0 00-.378.377v2.528c0 .136.042.204.102.255.03.024.057.05.083.078l2.163 2.344c.164.178.24.407.228.631v12.546c.03.088.046.183.046.282v.46a3.042 3.042 0 003.048 3.042 3.043 3.043 0 003.021-2.638H7.628a.864.864 0 010-1.73h26.415a.864.864 0 010 1.73H12.157a4.771 4.771 0 01-4.759 4.367 4.77 4.77 0 01-4.775-4.772v-.178a.864.864 0 01-.047-.281V18.119l-1.9-2.059A2.023 2.023 0 010 14.518v-2.529a2.1 2.1 0 012.106-2.105H6.46l3.992-7.672a.87.87 0 01.075-.12zM2.97 18.507V29.96a.86.86 0 01.94-.06V18.508a.864.864 0 01-.94-.001zm.94-.693a.471.471 0 01-.814.284l-.126-.135v-.181a.469.469 0 01.94 0v.032zm-.618-.884a.865.865 0 00-.689.635L.96 15.782a1.625 1.625 0 01-.564-1.264v-2.529c0-.946.76-1.708 1.711-1.708H6.58a.196.196 0 00.175-.107l4.047-7.777a.465.465 0 01.04-.065c.92-1.225 2.397-1.935 3.92-1.935h21.906c1.523 0 3 .71 3.92 1.935.014.02.028.042.04.065l4.047 7.777a.197.197 0 00.175.107h4.473c.95 0 1.712.762 1.712 1.708v2.529a1.625 1.625 0 01-.565 1.264l-2.136 2.316a.471.471 0 01-.665.027.466.466 0 01-.027-.66l2.163-2.344a.458.458 0 01.045-.042.692.692 0 00.246-.561v-2.529a.768.768 0 00-.773-.773h-4.878a.47.47 0 01-.417-.253L39.82 2.877a.198.198 0 00-.019-.03c-.739-.954-1.915-1.515-3.133-1.515H14.76c-1.218 0-2.394.56-3.133 1.515a.205.205 0 00-.02.03L7.4 10.963a.47.47 0 01-.417.253H2.106a.768.768 0 00-.773.774v2.528a.69.69 0 00.246.56.614.614 0 01.045.043l1.668 1.809zm.617 13.52a.47.47 0 00-.892.204v.203a.47.47 0 00.892-.203v-.204zm-.882.963a4.375 4.375 0 004.371 4.075 4.376 4.376 0 004.363-3.97h-.944a3.438 3.438 0 01-3.419 3.035 3.438 3.438 0 01-3.435-3.212.86.86 0 01-.936.072zm7.813-.292h.94v-.468a.468.468 0 00-.94 0v.468zm-.257-.935H7.628a.469.469 0 100 .935h2.818v-.468a.86.86 0 01.137-.467zm1.454 0a.861.861 0 01.136.468v.467h21.87a.469.469 0 100-.935H12.037zm-1.361-19.438c0-.479.388-.864.864-.864h28.485a.864.864 0 010 1.729H11.54a.864.864 0 01-.864-.865zm.864-.467a.468.468 0 100 .935h28.485a.469.469 0 100-.935H11.54zm32.234 9.908a.864.864 0 01.233 1.713l-5.37.734c-.98.168-1.66.972-1.66 1.903v.515h6.914a.864.864 0 010 1.73h-8.642v-2.245c0-1.823 1.34-3.315 3.115-3.61l.016-.003 5.394-.737zm.582.794a.47.47 0 00-.53-.4l-5.39.736-.007.001c-1.597.266-2.785 1.602-2.785 3.22v1.846h8.247a.468.468 0 100-.935h-7.308v-.912c0-1.137.832-2.098 1.991-2.295l.006-.001 5.374-.734a.468.468 0 00.402-.526zm-37.584-.009a.864.864 0 01.973-.739l5.381.735h.001c1.821.244 3.142 1.816 3.142 3.616v2.243H7.628a.864.864 0 010-1.729h6.913v-.514c0-.958-.703-1.776-1.643-1.901h-.002l-5.385-.736a.865.865 0 01-.739-.975zm.92-.345a.468.468 0 10-.128.926l5.384.735h.002c1.139.152 1.986 1.142 1.986 2.296v.911H7.627a.468.468 0 100 .935h8.247v-1.846c0-1.605-1.178-3.005-2.8-3.222l-5.383-.735zm37.96 3.129a2.876 2.876 0 012.888-2.888 2.906 2.906 0 012.889 2.888c0 1.282-.86 2.382-2.025 2.753v5.395h5.588V26.51c-1.165-.372-2.023-1.471-2.023-2.752a2.876 2.876 0 012.888-2.888 2.906 2.906 0 012.89 2.888c0 1.282-.86 2.383-2.028 2.754v5.394h4.417c.476 0 .864.386.864.865v24.364c0 .48-.388.865-.864.865h-24.39a.864.864 0 01-.864-.865v-4.057H30.6a2.912 2.912 0 01-2.768 2.07c-1.598 0-2.946-1.284-2.889-2.906a2.906 2.906 0 012.889-2.87c1.263 0 2.353.834 2.739 1.977h5.312v-5.58H30.6a2.912 2.912 0 01-2.768 2.069c-1.598 0-2.946-1.283-2.889-2.906a2.906 2.906 0 012.889-2.869c1.263 0 2.353.834 2.739 1.977h5.312v-5.58h-5.295a2.89 2.89 0 01-5.645-.865 2.888 2.888 0 015.646-.864h5.294v-3.96c0-.48.389-.865.864-.865h10.93v-5.395c-1.166-.372-2.025-1.471-2.025-2.753zm2.418 2.848v5.3h.94v-5.3a2.843 2.843 0 01-.94 0zm.94-.403a2.45 2.45 0 01-.94 0v-.422a.469.469 0 01.94 0v.422zm.394-.112a2.512 2.512 0 001.63-2.333 2.51 2.51 0 00-2.494-2.49 2.48 2.48 0 00-2.495 2.49c0 1.058.684 1.977 1.63 2.333v-.31c0-.234.094-.446.244-.601a1.575 1.575 0 01-.934-1.422c0-.886.704-1.555 1.555-1.555.843 0 1.555.708 1.555 1.555 0 .626-.39 1.177-.934 1.422.15.155.243.367.243.6v.311zm-.864-1.175c.629 0 1.161-.534 1.161-1.158 0-.624-.532-1.158-1.161-1.158-.642 0-1.161.5-1.161 1.158 0 .624.532 1.158 1.16 1.158zm.47 7.388h-.94v.418a.468.468 0 00.94 0v-.418zm-1.334 0h-10.93c-.26 0-.47.21-.47.467v3.96h.528c.167 0 .306.045.412.133v-3.427c0-.11.088-.199.197-.199h10.434a.861.861 0 01-.171-.516v-.418zm1.557.934h5.93a.86.86 0 01-.171-.516v-.418h-5.588v.418a.86.86 0 01-.171.516zm6.153-.934v.418a.468.468 0 00.94 0v-.418h-.94zm.94-.398v-5.3a2.844 2.844 0 01-.94 0v5.3h.94zm-.94-5.704a2.447 2.447 0 00.94.001v-.422a.468.468 0 00-.47-.468.468.468 0 00-.47.468v.421zm1.333-.11a2.512 2.512 0 001.633-2.334 2.51 2.51 0 00-2.495-2.49 2.48 2.48 0 00-2.494 2.49c0 1.057.683 1.976 1.629 2.332v-.31c0-.234.093-.446.243-.601a1.575 1.575 0 01-.933-1.421c0-.886.705-1.555 1.555-1.555.844 0 1.556.708 1.556 1.555 0 .627-.39 1.178-.936 1.422a.86.86 0 01.242.6v.312zm0 6.212v.418a.86.86 0 01-.17.516h3.92c.11 0 .198.09.198.199v23.032c0 .11-.089.199-.198.199H37.413a.198.198 0 01-.197-.199v-3.53a.54.54 0 01-.089.062.65.65 0 01-.323.077h-.527v4.057c0 .257.208.468.47.468h24.39c.26 0 .469-.211.469-.468V32.771a.469.469 0 00-.47-.467H56.72zM36.277 52.68h.527a.261.261 0 00.13-.027.166.166 0 00.065-.067c.041-.074.063-.197.063-.373s-.022-.3-.063-.373a.166.166 0 00-.064-.068.263.263 0 00-.13-.027h-.528v.935zm-.395-.935h-5.209a2.844 2.844 0 01.015.935h5.194v-.935zm-5.593.935a2.442 2.442 0 00-.018-.935h-.415a.468.468 0 100 .935h.433zm-.14-1.332a2.515 2.515 0 00-2.318-1.58 2.51 2.51 0 00-2.494 2.478v.006c-.05 1.38 1.098 2.497 2.494 2.497 1.079 0 2.01-.705 2.353-1.672h-.328a.861.861 0 01-.589-.231 1.576 1.576 0 01-1.436.968c-.902 0-1.59-.716-1.556-1.536v-.02c0-.846.713-1.554 1.556-1.554.613 0 1.157.374 1.408.904a.862.862 0 01.617-.26h.293zm6.128 0h.527a.65.65 0 01.323.078.565.565 0 01.089.062v-5.86a.54.54 0 01-.089.062.648.648 0 01-.323.078h-.527v5.58zm0-5.977h.527a.263.263 0 00.13-.027.166.166 0 00.065-.068c.041-.074.063-.197.063-.373s-.022-.299-.063-.373a.165.165 0 00-.064-.067.261.261 0 00-.13-.027h-.528v.935zm-.395-.935h-5.209a2.845 2.845 0 01.015.935h5.194v-.935zm-5.593.935a2.443 2.443 0 00-.018-.935h-.415a.468.468 0 100 .935h.433zm-.14-1.332a2.515 2.515 0 00-2.318-1.58 2.51 2.51 0 00-2.494 2.478v.006c-.05 1.379 1.098 2.496 2.494 2.496 1.079 0 2.01-.705 2.353-1.671h-.328a.861.861 0 01-.589-.231 1.576 1.576 0 01-1.436.968c-.902 0-1.59-.717-1.556-1.536v-.02c0-.846.713-1.555 1.556-1.555.613 0 1.157.374 1.408.904a.861.861 0 01.617-.26h.293zm6.128 0h.527a.65.65 0 01.323.077.54.54 0 01.089.063v-5.866a.548.548 0 01-.084.062.626.626 0 01-.328.084h-.527v5.58zm0-5.977h.527a.239.239 0 00.126-.029.182.182 0 00.067-.074c.043-.081.066-.213.066-.388 0-.177-.023-.292-.062-.358-.027-.045-.07-.086-.197-.086h-.527v.934zm-.395-.935h-5.2a2.913 2.913 0 010 .934h5.2v-.934zm-5.601.934a2.494 2.494 0 000-.934h-.425a.468.468 0 100 .934h.425zm-1.025-1.09a1.556 1.556 0 100 1.246c.156.15.367.242.6.242h.314a2.495 2.495 0 01-2.34 1.625 2.492 2.492 0 01-2.494-2.49 2.492 2.492 0 012.495-2.49c1.074 0 1.988.677 2.34 1.626h-.315a.86.86 0 00-.6.241zm-.264.623a1.16 1.16 0 01-1.162 1.158 1.16 1.16 0 01-1.16-1.158 1.16 1.16 0 011.16-1.158c.643 0 1.162.52 1.162 1.158zM55.857 22.6c-.641 0-1.16.5-1.16 1.158 0 .624.531 1.158 1.16 1.158.63 0 1.161-.534 1.161-1.158 0-.624-.532-1.158-1.16-1.158zm-34.044 3.318c0-.479.388-.864.864-.864h6.212a.864.864 0 010 1.729h-6.212a.864.864 0 01-.864-.865zm.864-.467a.468.468 0 100 .935h6.212a.468.468 0 100-.935h-6.212zm14.933 8.185V56.27h22.662V33.636H37.61zm8.41 2.634h2.003v.046h9.618v17.222H40.406v-11.66h.864a4.74 4.74 0 004.75-4.743v-.864zm1.61.398h-1.216v.467a5.136 5.136 0 01-5.145 5.141h-.47v10.865h16.448V36.714H47.63v-.046zm-.296.98h8.974v14.558h-14.57v-9.01l.178-.019a6.073 6.073 0 005.399-5.352l.02-.177zm.35.398a6.469 6.469 0 01-5.55 5.506v8.257h13.78V38.046h-8.23zM27.83 43.792a1.178 1.178 0 00-1.162 1.194c-.024.578.467 1.123 1.162 1.123.629 0 1.161-.534 1.161-1.159 0-.624-.532-1.158-1.161-1.158zm0 7.31a1.178 1.178 0 00-1.162 1.194c-.024.577.467 1.122 1.162 1.122.629 0 1.161-.534 1.161-1.158 0-.624-.532-1.158-1.161-1.158z" fill="#1D1954"/></svg>