<svg width="54" height="59" fill="none" xmlns="http://www.w3.org/2000/svg"><path d="M37.82 36.06l-1.96 1.82c-.793.7-1.82 1.12-2.846 1.12H20.74c-1.073 0-2.1-.373-2.846-1.12l-1.96-1.82" stroke="#1D1954" stroke-width="2" stroke-miterlimit="10" stroke-linecap="round" stroke-linejoin="round"/><path d="M45.334 48.474h-8.026v-1.4a2.9 2.9 0 012.426-2.846l5.554-.747m-37.334 0l5.553.747c1.4.186 2.427 1.4 2.427 2.846v1.4H7.907" stroke="#1D1954" stroke-width="2" stroke-miterlimit="10" stroke-linecap="round"/><path d="M3.613 40.075v13.3m0-13.301L1.42 37.648a1.244 1.244 0 01-.42-.934v-2.613c0-.7.56-1.307 1.307-1.307h5.04l4.387-8.4a4.575 4.575 0 013.64-1.82H37.96c1.447 0 2.8.653 3.64 1.82l4.387 8.4h5.04c.7 0 1.306.56 1.306 1.307v2.613c0 .374-.14.7-.42.934l-2.193 2.426v13.3m-8.165 0v.514c0 2.24 1.82 4.06 4.06 4.06 2.24 0 4.06-1.82 4.06-4.06v-.514m-37.942 0v.514c0 2.24-1.82 4.06-4.06 4.06-2.24 0-4.06-1.82-4.06-4.06v-.514m41.722 0H7.955m15.492-4.899h6.394" stroke="#1D1954" stroke-width="2" stroke-miterlimit="10" stroke-linecap="round" stroke-linejoin="round"/><path d="M11.407 2.96l-1.54 7.654c-.187.84.56 1.586 1.4 1.493 5.787-.747 15.54-1.96 28.56-.28l2.194.28c.84.093 1.54-.653 1.4-1.493L41.88 2.96a1.192 1.192 0 00-1.074-.98 102.84 102.84 0 00-28.327 0 1.359 1.359 0 00-1.073.98z" stroke="#1D1954" stroke-width="2" stroke-miterlimit="10" stroke-linecap="round"/><path d="M40.154 9.073c-4.48-.56-9.007-.886-13.487-.886-5.647 0-10.407.466-13.674.886l.887-4.48c4.2-.513 8.493-.793 12.693-.793 4.2 0 8.494.28 12.694.793l.887 4.48z" fill="#FF5A72"/><path d="M27 13v7.5m0 0l-2-2m2 2l2-2" stroke="#1D1954" stroke-width="1.4" stroke-linecap="round"/></svg>