<svg width="61" height="46" fill="none" xmlns="http://www.w3.org/2000/svg"><path d="M46.79 45c6.181 0 11.192-5.01 11.192-11.192 0-6.18-5.01-11.191-11.192-11.191-6.18 0-11.191 5.01-11.191 11.191C35.599 39.99 40.609 45 46.79 45zM37.1 14.173l-1.943 1.749a4.144 4.144 0 01-2.798 1.088H20.352c-1.05 0-2.02-.389-2.798-1.088l-1.943-1.749" stroke="#1D1954" stroke-width="2" stroke-miterlimit="10" stroke-linecap="round" stroke-linejoin="round"/><path d="M7.8 21.479l5.441.738c1.36.194 2.41 1.36 2.41 2.759v1.399H7.8" stroke="#1D1954" stroke-width="2" stroke-miterlimit="10" stroke-linecap="round"/><path d="M3.564 18.137v13.017m.001-13.017l-2.176-2.37c-.272-.234-.389-.584-.389-.933v-2.565c0-.7.583-1.282 1.282-1.282h4.935l4.275-8.2A4.49 4.49 0 0115.067 1h22.072c1.398 0 2.72.66 3.575 1.787l4.274 8.2h4.935c.7 0 1.282.583 1.282 1.282v2.565c0 .35-.155.7-.388.932l-2.176 2.37v2.177M11.492 31.154v.467a3.98 3.98 0 01-3.964 3.963 3.98 3.98 0 01-3.964-3.963v-.467m29.728 0H7.8m15.194-4.779h6.256m-17.525-15.35h28.794" stroke="#1D1954" stroke-width="2" stroke-miterlimit="10" stroke-linecap="round" stroke-linejoin="round"/><path d="M37.178 3.37H15.106a2.21 2.21 0 00-1.632.739l-2.215 4.235h29.766L38.81 4.11c-.428-.466-1.05-.739-1.633-.739zm9.715 32.064a1.528 1.528 0 000-3.055 1.528 1.528 0 000 3.055z" fill="#FF5A72"/><path d="M41.968 40.674l2.475-2.475a3.497 3.497 0 014.95 0l2.475 2.475M40.124 28.982l2.475 2.475a3.496 3.496 0 010 4.95l-2.475 2.476m11.692-11.744l-2.476 2.475a3.496 3.496 0 01-4.95 0l-2.475-2.475M53.66 38.83l-2.476-2.475a3.496 3.496 0 010-4.95l2.475-2.476" stroke="#1D1954" stroke-width="2" stroke-miterlimit="10" stroke-linecap="round" stroke-linejoin="round"/></svg>