<svg width="64" height="58" fill="none" xmlns="http://www.w3.org/2000/svg"><path d="M55.14 31v3.066a.298.298 0 01-.02.121.148.148 0 01-.044.056 1.071 1.071 0 00-.11.105l-2.355 2.607a1.074 1.074 0 00-.277.72v13.963c-.033.102-.05.21-.05.323v.552a3.29 3.29 0 01-3.287 3.287 3.292 3.292 0 01-3.246-2.764h2.945a1.074 1.074 0 100-2.149H8.544a1.074 1.074 0 000 2.148h2.944A3.292 3.292 0 018.242 55.8a3.29 3.29 0 01-3.287-3.287V37.692a1.07 1.07 0 00-.277-.737l-2.356-2.607a1.068 1.068 0 00-.109-.105.178.178 0 01-.039-.061.314.314 0 01-.026-.116v-2.807c0-.184.146-.33.33-.33h5.414c.4 0 .766-.222.952-.577l4.667-8.937a3.838 3.838 0 013.003-1.464h24.262c.6 0 1.175.132 1.686.379C43 19.95 43.5 19.5 44 18.5c-.926-.561-2.117-.697-3.224-.697H16.514c-1.84 0-3.61.858-4.766 2.38a1.07 1.07 0 00-.097.152l-4.41 8.446H2.478A2.475 2.475 0 000 31.259v2.807c0 .591.234 1.284.77 1.77l2.037 2.253v14.424c0 3 2.436 5.435 5.435 5.435a5.44 5.44 0 005.41-4.913h29.934a5.44 5.44 0 005.41 4.913c3 0 5.436-2.436 5.436-5.435v-.227c.032-.103.05-.212.05-.324V38.089l2.035-2.252c.524-.47.772-1.11.772-1.771v-2.807c0-.785-.25-1.313-.789-1.759-.583.503-1.015.938-1.36 1.5z" fill="#1D1954"/><path d="M16.328 32.633a1.074 1.074 0 011.518-.056l2.105 1.955.029.027c.574.575 1.39.889 2.298.889h13.184c.812 0 1.663-.335 2.337-.926l2.095-1.945a1.074 1.074 0 111.462 1.574l-2.105 1.955-.02.018c-1.03.908-2.38 1.472-3.77 1.472H22.279c-1.391 0-2.774-.483-3.802-1.503l-2.092-1.942a1.074 1.074 0 01-.056-1.518zm33.382 8.558a1.074 1.074 0 01-.921 1.208l-5.947.8a2.042 2.042 0 00-1.694 1.995v.43h7.548a1.074 1.074 0 110 2.148H39v-2.578a4.19 4.19 0 013.504-4.117l.017-.003 5.982-.804a1.074 1.074 0 011.207.921zM8.687 40.27a1.074 1.074 0 10-.286 2.129l5.966.802c.943.126 1.674.95 1.674 1.993v.43H8.494a1.074 1.074 0 100 2.148h9.696v-2.578c0-2.065-1.475-3.847-3.54-4.122l-5.963-.802zm16.499 5.354a1.074 1.074 0 100 2.148h6.867a1.074 1.074 0 100-2.148h-6.867z" fill="#1D1954"/><path fill-rule="evenodd" clip-rule="evenodd" d="M50.5 0c.574 0 1.038.483 1.038 1.079 0 18.96-8.529 24.643-13.465 24.815-.573.02-1.053-.446-1.072-1.042-.02-.596.43-1.095 1.003-1.114 3.372-.118 11.458-4.337 11.458-22.66C49.462.484 49.926 0 50.5 0z" fill="#1D1954"/><path fill-rule="evenodd" clip-rule="evenodd" d="M50.5 0c-.574 0-1.038.483-1.038 1.079 0 18.96 8.529 24.643 13.465 24.815.573.02 1.053-.446 1.072-1.042.02-.596-.43-1.095-1.003-1.114-3.372-.118-11.458-4.337-11.458-22.66C51.538.484 51.075 0 50.5 0zm0 41c.574 0 1.038-.483 1.038-1.079 0-6.225-2.194-10.288-5.04-12.79-2.807-2.467-6.163-3.343-8.437-3.394-.574-.013-1.048.46-1.06 1.056-.013.596.442 1.089 1.015 1.102 1.88.041 4.754.786 7.14 2.883 2.346 2.063 4.306 5.506 4.306 11.143 0 .596.464 1.079 1.038 1.079z" fill="#1D1954"/><path fill-rule="evenodd" clip-rule="evenodd" d="M50.5 41c-.574 0-1.038-.483-1.038-1.079 0-6.225 2.194-10.288 5.04-12.79 2.807-2.467 6.163-3.343 8.437-3.394.574-.013 1.048.46 1.06 1.056.013.596-.442 1.089-1.015 1.102-1.88.041-4.754.786-7.14 2.883-2.346 2.063-4.306 5.506-4.306 11.143 0 .596-.464 1.079-1.038 1.079z" fill="#1D1954"/><path d="M50.5 17c0 4.8-1.5 7.5-4.5 7.5 3 0 4.5 2 4.5 4.5 0-2.571 1.5-4.5 4.5-4.5-3 0-4.5-3-4.5-7.5z" fill="#FF5A72"/></svg>