<svg width="60" height="60" fill="none" xmlns="http://www.w3.org/2000/svg"><path fill-rule="evenodd" clip-rule="evenodd" d="M33.701 8.444C47.654 8.444 59 19.734 59 33.722 58.999 47.663 47.699 59 33.701 59 19.75 59 8.403 47.71 8.403 33.722h1.261c0 13.29 10.78 24.018 24.037 24.018 13.3 0 24.037-10.77 24.037-24.018 0-13.29-10.78-24.019-24.037-24.019v-1.26z" fill="#1D1954" stroke="#1D1954" stroke-width=".4" stroke-miterlimit="10"/><path fill-rule="evenodd" clip-rule="evenodd" d="M2.267 33.092h11.366c.326-10.589 8.842-19.098 19.44-19.424V2.266C16.211 2.598 2.597 16.201 2.266 33.092zM1 33.722C1 15.635 15.645 1 33.703 1h.63v13.918h-.63c-10.403 0-18.819 8.41-18.819 18.804v.63H1v-.63z" fill="#1D1954" stroke="#1D1954" stroke-width=".4" stroke-miterlimit="10"/><path fill-rule="evenodd" clip-rule="evenodd" d="M24.952 24.964c-4.84 4.837-4.84 12.678 0 17.515s12.688 4.837 17.528 0c4.84-4.837 4.84-12.678 0-17.515s-12.688-4.837-17.528 0zM24.06 43.37c-5.333-5.329-5.333-13.968 0-19.297 5.333-5.329 13.979-5.329 19.312 0 5.333 5.329 5.333 13.968 0 19.297-5.333 5.328-13.98 5.328-19.312 0z" fill="#1D1954" stroke="#1D1954" stroke-width=".4" stroke-miterlimit="10"/><path fill-rule="evenodd" clip-rule="evenodd" d="M30.967 30.882a3.959 3.959 0 00-.082 5.601 3.966 3.966 0 005.605.082 3.96 3.96 0 00.083-5.601 3.966 3.966 0 00-5.606-.082zm-.987 6.48a5.218 5.218 0 01.108-7.384 5.228 5.228 0 017.39.108 5.218 5.218 0 01-.109 7.383 5.228 5.228 0 01-7.389-.108z" fill="#1D1954" stroke="#1D1954" stroke-width=".4" stroke-miterlimit="10"/><path fill-rule="evenodd" clip-rule="evenodd" d="M33.703 23.598a.63.63 0 01.63.63v1.604a.63.63 0 01-1.26 0v-1.604a.63.63 0 01.63-.63zm-7.136 2.948a.63.63 0 01.892 0l1.16 1.159a.63.63 0 11-.892.89l-1.16-1.158a.63.63 0 010-.891zm-2.996 7.176a.63.63 0 01.63-.63h1.651a.63.63 0 110 1.26h-1.65a.63.63 0 01-.63-.63zm5.047 5.081a.63.63 0 010 .891l-1.16 1.16a.63.63 0 01-.891-.892l1.16-1.159a.63.63 0 01.891 0zm5.085 2.134a.63.63 0 01.63.63v1.604a.63.63 0 01-1.26 0v-1.605a.63.63 0 01.63-.63zm5.131-2.134a.63.63 0 01.891 0l1.16 1.16a.63.63 0 11-.892.89l-1.16-1.159a.63.63 0 010-.89zm2.133-5.081a.63.63 0 01.63-.63h1.607a.63.63 0 110 1.26h-1.606a.63.63 0 01-.63-.63zm-.082-7.176a.63.63 0 010 .89l-1.16 1.16a.63.63 0 01-.891-.891l1.16-1.16a.63.63 0 01.891 0z" fill="#1D1954" stroke="#1D1954" stroke-width=".4" stroke-miterlimit="10" stroke-linecap="round" stroke-linejoin="round"/><path fill-rule="evenodd" clip-rule="evenodd" d="M10.484 28.136l-1.561-.4.314-1.221 1.561.401-.314 1.22zm2.258-5.81l-1.428-.802.619-1.098 1.427.802-.618 1.098zm3.653-5.051l-1.16-1.159.892-.89 1.16 1.158-.892.89zm4.861-3.905l-.848-1.382 1.075-.658.848 1.381-1.075.659zm5.684-2.523l-.446-1.605 1.215-.337.446 1.604-1.215.338z" fill="#1D1954" stroke="#1D1954" stroke-width=".4" stroke-miterlimit="10"/><path d="M55.739 33.722c0-6.061-2.454-11.544-6.468-15.555l-4.46 4.457a15.624 15.624 0 014.594 11.098c0 8.647-7.048 15.69-15.702 15.69a15.649 15.649 0 01-11.107-4.591l-4.46 4.457c3.97 3.967 9.5 6.463 15.567 6.463 12.133-.044 22.036-9.895 22.036-22.019z" fill="#FF5A72"/></svg>