<svg width="65" height="62" fill="none" xmlns="http://www.w3.org/2000/svg"><path d="M44.757 42.944l3.253 2.928 4.694-5.763" stroke="#1D1954" stroke-width="2" stroke-miterlimit="10" stroke-linecap="round" stroke-linejoin="round"/><path d="M63.254 30.256c-9.249 1.07-14.965-4.229-14.965-4.229s-5.717 5.298-14.965 4.23c0 0-2.881 24.445 14.965 29.743 17.846-5.298 14.965-29.744 14.965-29.744z" stroke="#1D1954" stroke-width="2.1" stroke-miterlimit="10" stroke-linecap="round"/><path d="M38.11 15.152l-1.905 1.766c-.743.697-1.766 1.07-2.788 1.07H21.426c-1.022 0-2.044-.373-2.788-1.07l-1.906-1.766" stroke="#1D1954" stroke-width="2.1" stroke-miterlimit="10" stroke-linecap="round" stroke-linejoin="round"/><path d="M37.6 27.328v-1.394c0-1.394 1.022-2.556 2.416-2.788l5.438-.744m-36.622.047l5.438.743c1.394.186 2.416 1.394 2.416 2.789v1.394H8.832" stroke="#1D1954" stroke-width="2.1" stroke-miterlimit="10" stroke-linecap="round"/><path d="M4.602 19.102v13.013m.001-13.012l-2.185-2.37a1.17 1.17 0 01-.418-.93v-2.556a1.25 1.25 0 011.255-1.255H8.18l4.276-8.226C13.293 2.651 14.64 2 16.035 2h22.122c1.394 0 2.742.65 3.579 1.766l4.275 8.226h4.926a1.25 1.25 0 011.255 1.255v2.556c0 .372-.14.697-.418.93l-2.184 2.37v4.415m-37.04 8.598v.464a3.947 3.947 0 01-3.95 3.95 3.947 3.947 0 01-3.95-3.95v-.464m25.607 0H8.832m15.198-4.787h6.227" stroke="#1D1954" stroke-width="2.1" stroke-miterlimit="10" stroke-linecap="round" stroke-linejoin="round"/><path d="M38.204 4.789H16.082c-.465 0-.93.186-1.255.557l-2.602 4.973h29.743l-2.602-4.973c-.233-.371-.697-.557-1.162-.557z" fill="#FF5A72"/></svg>