<svg width="58" height="60" fill="none" xmlns="http://www.w3.org/2000/svg"><path fill-rule="evenodd" clip-rule="evenodd" d="M42.345 39.665v-8.55h1.612v8.55h-1.612zM5.08 6.385a1.685 1.685 0 01-.061-2.496l1.438-1.39a1.826 1.826 0 012.65.137l1.686 2.019 2.202-2.129c2.311-2.232 5.565-1.827 7.456 0l3.104 2.999a1.683 1.683 0 010 2.438l-.209.202L34.273 18.83a1.683 1.683 0 01-.006 2.433l-9.973 9.635a1.829 1.829 0 01-2.524 0L10.794 20.292l-.268.26a1.83 1.83 0 01-2.524 0l-3.103-3c-1.01-.974-1.394-2.398-1.362-3.702.032-1.296.48-2.649 1.362-3.5l2.237-2.162L5.08 6.385zM9.743 7.76L5.98 11.394c-.52.503-.888 1.441-.913 2.491-.026 1.043.29 2.021.913 2.623l3.104 2.998c.1.096.26.096.36 0L22.473 6.918a.24.24 0 000-.348l-3.104-3c-1.372-1.325-3.654-1.582-5.292 0l-3.762 3.635-.573.554zm-.037-2.054L7.917 3.564a.26.26 0 00-.379-.02L6.1 4.935a.24.24 0 00.01.357l2.109 1.85 1.486-1.435zm2.17 13.541l10.977 10.606c.1.096.261.096.36 0l9.973-9.636a.24.24 0 00.001-.347L22.265 9.21l-10.39 10.037z" fill="#1D1954"/><path fill-rule="evenodd" clip-rule="evenodd" d="M5.247 32.085c.35-.305.795-.338 1.086-.338h38.244c.986 0 1.785.773 1.785 1.725v6.158c0 .953-.8 1.725-1.785 1.725H27.573c.995 2.926 1.196 6.406 1.196 8.622 0 1.345-.349 2.306-.989 2.924-.64.619-1.443.77-2.07.77-.57 0-1.494-.064-2.23-.863-.698-.76-1.085-2.034-1.085-4.063 0-3.019-.982-5.493-1.436-6.297-.07-.122-.15-.258-.234-.401a24.709 24.709 0 01-.397-.692h-2.777c-.198 0-.257.008-.271.011-.01.007-.122.093-.294.51l-.007.016-2.528 5.375h1.825c.207 0 .501.054.765.238.304.21.51.556.51.994v3.941c0 .2-.056.485-.246.74-.219.293-.576.492-1.03.492h-4.88l-.044.084-.017.032-2.574 3.98-.007.009c-.78 1.13-3.103 1.965-5.628.221a.77.77 0 01-.14-.11 6.021 6.021 0 01-1.522-1.917c-.45-.914-.684-2.084-.175-3.313.508-1.228 1.402-3.26 2.119-4.89.426-.97.79-1.797.974-2.23a.774.774 0 01.998-.402.73.73 0 01.417.964c-.2.472-.576 1.326-1.01 2.312-.707 1.608-1.57 3.566-2.078 4.795-.307.742-.187 1.471.137 2.13.325.66.831 1.192 1.187 1.47 1.902 1.303 3.198.498 3.444.157l2.522-3.9.006-.011c.077-.15.188-.366.335-.52.106-.113.243-.212.418-.273.16-.057.31-.066.42-.066h4.844v-3.449h-1.785c-.536 0-.997-.274-1.226-.716-.217-.42-.186-.907.025-1.325l2.537-5.394c.221-.528.488-.95.898-1.198.395-.238.811-.236 1.04-.235h2.219a2.826 2.826 0 01-.045-1.03c.12-.805.627-1.498 1.535-2.057.723-.445 1.47-.562 2.183-.411.687.146 1.278.526 1.76.964.799.724 1.42 1.716 1.814 2.534h17.6a.25.25 0 00.256-.247v-6.158a.25.25 0 00-.255-.246H15.259l-1.6 3.755-.013.024c-.145.28-.34.576-.669.75-.296.155-.608.152-.75.151h-1.845l-.005.007a.874.874 0 00-.046.077l-.021.041-.511.741c-.237.444-.516.767-.877.948a1.626 1.626 0 01-.805.157h-2.04c-.373 0-.748-.12-1.005-.432a1.24 1.24 0 01-.27-.8v-5.42c0-.37.076-.819.445-1.14zm8.357 1.14H6.333V38.4h1.896a1.22 1.22 0 00.224-.33l.021-.042.513-.743c.065-.118.165-.273.29-.414.072-.08.17-.178.296-.26.12-.08.322-.182.584-.182h2.074l.035-.062 1.338-3.14zm-2.431 20.447h.002-.003zm6.103-12.305h.004a.009.009 0 01-.004 0zm5.798-3.544c-.299-.064-.634-.031-1.033.214-.627.385-.8.74-.843 1.023-.05.329.051.733.297 1.245.155.323.332.624.52.942.094.159.19.321.287.493.565 1.002 1.623 3.718 1.623 7.005 0 1.913.378 2.732.699 3.081.285.31.634.368 1.085.368.393 0 .737-.094.99-.338.252-.244.54-.761.54-1.88 0-2.446-.257-6.262-1.47-9.076l-.003-.005-.002-.005c-.317-.766-.915-1.804-1.65-2.47-.363-.33-.715-.528-1.04-.597z" fill="#1D1954"/><path d="M7.282 42.937c0 .45-.377.813-.842.813-.464 0-.841-.364-.841-.813 0-.449.377-.813.841-.813.465 0 .842.364.842.813z" fill="#1D1954"/><path fill-rule="evenodd" clip-rule="evenodd" d="M1.488 35.935c0-.408.343-.739.765-.739h3.315c.422 0 .764.331.764.74a.752.752 0 01-.764.738H2.253a.752.752 0 01-.765-.739zm36.677-2.934l-8.414-8.375 1.098-1.03 8.413 8.376-1.097 1.03zm-6.368.009l-5.354-5.174 1.082-1.045 5.354 5.173-1.081 1.045zm22.929-3.252a.732.732 0 01-.44.955l-3.314 1.232a.773.773 0 01-.989-.425.732.732 0 01.44-.955l3.314-1.232a.773.773 0 01.989.425zM57 37a.753.753 0 01-.77.735l-3.551-.023a.752.752 0 01-.76-.744.753.753 0 01.77-.734l3.551.023A.752.752 0 0157 37zm-2.192 6.316a.778.778 0 01-1.027.33l-3.173-1.54a.728.728 0 01-.34-.993.778.778 0 011.026-.328l3.174 1.54c.377.182.53.627.34.991z" fill="#1D1954"/><path d="M5.019 3.889l.139.144-.14-.144zm.062 2.496l-.132.15.132-.15zM6.457 2.5l.139.143-.14-.143zm2.65.136l-.153.128.154-.128zm1.686 2.019l-.154.128.138.165.155-.15-.14-.143zm2.202-2.129l-.139-.144.14.144zm7.456 0l-.139.144.14-.144zm3.104 2.999l.139-.144-.14.144zm0 2.438l.139.144-.14-.144zm-.209.202l-.139-.144-.148.143.147.144.14-.143zM34.273 18.83l-.14.143.14-.143zm-.006 2.433l-.139-.144.139.144zm-9.973 9.635l-.139-.144.14.144zm-2.524 0l-.139.144.14-.144zM10.794 20.292l.139-.143-.14-.135-.138.135.139.143zm-.268.26l-.139-.145.14.144zm-2.524 0l.139-.145-.139.144zm-3.103-3l-.14.145.14-.144zM3.537 13.85l-.2-.005.2.005zm1.362-3.5l.139.143-.14-.144zm2.237-2.162l.139.144.156-.151-.163-.144-.132.15zM5.98 11.394l-.138-.144.138.144zm-.913 2.491l.2.005-.2-.005zm.913 2.623l-.138.143.138-.143zm3.104 2.998l.139-.144-.14.144zm.36 0l.14.144-.14-.144zM22.473 6.918l-.14-.144.14.144zm0-.348l-.14.144.14-.144zm-3.104-3l.14-.143-.14.143zm-5.292 0l-.139-.143.14.143zm-3.762 3.635l.14.144-.14-.144zM7.917 3.564l.154-.128-.154.128zm1.788 2.142l.139.143.133-.129-.119-.143-.153.129zM7.538 3.545L7.4 3.4l.14.144zM6.1 4.935l.14.143-.14-.144zm.01.356l-.133.15.132-.15zm2.109 1.85l-.132.15.138.122.133-.128-.14-.144zm14.633 22.712l.14-.144-.14.144zM11.876 19.247l-.14-.143-.148.143.149.144.139-.144zm11.337 10.606l.139.143-.14-.143zm9.972-9.636l-.139-.143.14.143zm.001-.347l-.14.143.14-.143zM22.265 9.21l.14-.143-.14-.136-.14.135.14.144zM5.247 32.085l.131.151-.13-.15zm22.326 9.27v-.2h-.28l.09.264.19-.064zM23.48 52.808l.148-.135-.148.135zm-2.521-10.36l-.175.098.175-.098zm-.234-.401l.173-.102-.173.102zm-.397-.692l.175-.096-.056-.104h-.119v.2zm-3.048.011l-.044-.195.044.195zm-.294.51l.185.076-.185-.076zm-.007.016l.182.085.003-.009-.185-.077zm-2.528 5.375l-.181-.085-.135.285h.316v-.2zm2.59.238l-.114.164.114-.164zm.264 5.675l-.16-.12.16.12zm-5.91.492v-.2h-.122l-.056.107.177.093zm-.044.084l.177.092-.177-.092zm-.017.032l.168.108.006-.008.004-.009-.178-.091zm-2.574 3.98l.164.114.004-.005-.168-.11zm-.007.009l.165.114-.165-.114zm-5.628.221l.114-.165-.114.165zm-.047-.033l-.115.163.115-.163zm-.092-.076l.139-.144-.006-.005-.006-.006-.127.155zM1.463 55.97l.18-.088-.18.088zm-.175-3.313l-.185-.076.185.076zm2.119-4.89l-.183-.08.183.08zm.974-2.23l-.184-.077.184.078zm.998-.402l-.074.185.074-.185zm.417.964l-.184-.078.184.078zm-1.01 2.312l-.183-.08.183.08zm-2.078 4.795l.185.077-.185-.077zm.137 2.13l-.18.088.18-.089zm1.187 1.47l-.123.158.01.007.113-.165zm3.444.157l.162.117.006-.009-.168-.108zm2.522-3.9l.168.109.006-.009.004-.008-.178-.092zm.006-.011l-.178-.091.178.09zm.335-.52l-.146-.139.146.138zm.418-.273l.066.189-.066-.19zm5.264-.066v.2h.2v-.2h-.2zm0-3.449h.2v-.2h-.2v.2zm-3.01-.716l.177-.092-.178.092zm.024-1.325l.178.09.003-.005-.181-.085zm2.537-5.394l.182.086.003-.008-.185-.078zm.898-1.198l-.104-.17.104.17zm1.04-.235l.001-.2v.2zm2.219 0v.2h.249l-.054-.243-.195.043zm-.045-1.03l.197.03-.197-.03zm1.535-2.057l-.104-.17.104.17zm2.183-.411l-.042.196.042-.196zm1.76.964l-.134.148.134-.148zm1.814 2.534l-.18.087.054.113h.126v-.2zm-11.717-6.651v-.2h-.133l-.051.121.184.079zm-1.6 3.755l.177.092.003-.007.003-.007-.184-.078zm-.013.024l-.178-.092.178.092zm-.669.75l.093.176-.093-.177zm-.75.151l.002-.2-.002.2zm-1.845 0v-.2h-.106l-.06.088.166.112zm-.005.007l.167.11-.167-.11zm-.046.077l-.177-.092.177.092zm-.021.041l.165.114.007-.01.006-.012-.178-.092zm-.511.741l-.165-.113-.006.01-.006.01.177.093zm-.877.948l-.09-.179.09.179zm-.779.157l.006-.2-.006.2zm-3.071-.432l-.154.127.154-.127zm1.26-6.22v-.2h-.2v.2h.2zm7.272 0l.184.079.119-.278h-.303v.2zM6.333 38.4h-.2v.2h.2v-.2zm1.896 0l.002.2.074-.002.056-.049-.132-.15zm.224-.33l.178.091-.178-.092zm.021-.042l-.164-.114-.008.01-.005.012.177.092zm.513-.743l.165.113.006-.008.005-.009-.176-.096zm.29-.414l.15.133-.15-.133zm.296-.26l-.11-.167.11.167zm2.658-.182v.2h.114l.058-.098-.172-.102zm.035-.062l.176.094.004-.007.004-.008-.184-.079zm-4.248 2.091a.2.2 0 10.39-.093l-.39.093zm.296.126a.2.2 0 10-.2-.346l.2.346zm-1.845.223a.2.2 0 10-.272-.294l.272.294zm.063-.162a.2.2 0 00-.4.017l.4-.017zm4.64 15.028l-.087.18.045.021.049-.001-.007-.2zm.003 0l.006.2-.008-.4.002.2zm3.216-6.065a.2.2 0 000-.4v.4zm.2-.185a.2.2 0 00-.4-.035l.4.035zm2.685-6.055l-.03.198.03-.198zm4.765-3.33l.104.17-.104-.17zm1.033-.214l.041-.196-.041.196zm-1.877 1.237l.198.03-.197-.03zm.298 1.245l.18-.087-.18.087zm.52.942l-.172.102.172-.102zm.287.493l.174-.098-.174.098zm2.322 10.086l-.147.136.147-.136zM25.768 40.9l-.183.08.183-.08zm-.002-.005l-.185.077.002.002.183-.079zm-.002-.005l-.185.077.185-.077zm-1.65-2.47l.135-.148-.134.148zm5.637-13.794l-.137-.146-.151.141.147.146.14-.141zM38.165 33l-.142.142.137.136.141-.132-.136-.146zm-7.316-9.405l.14-.142-.136-.136-.141.132.137.146zm8.413 8.376l.137.146.151-.142-.147-.146-.14.142zm-12.819-4.136l-.139-.144-.149.144.15.144.138-.144zm5.354 5.173l-.139.144.14.134.139-.134-.14-.144zm-4.272-6.218l.139-.144-.139-.134-.139.134.139.144zm5.354 5.173l.14.144.148-.144-.149-.144-.139.144zm21.407-1.251l-.07-.188.07.188zm.44-.955l-.186.074.186-.074zm-3.754 2.187l.07.187-.07-.187zm-.989-.425l-.185.074.185-.074zm.44-.955l.07.188-.07-.188zm3.314-1.232l-.07-.187.07.188zm2.493 8.402l-.001.2.001-.2zM57 37l-.2-.002.2.002zm-4.321.711l-.001.2v-.2zm-.76-.744l-.2-.001.2.001zm.77-.734l-.001.2.001-.2zm3.551.023l.002-.2-.002.2zm-2.459 7.388l-.087.18.087-.18zm1.027-.329l-.178-.092.178.092zm-4.2-1.21l-.088.18.087-.18zm-.34-.993l-.178-.092.177.092zm1.026-.328l-.087.18.087-.18zm3.174 1.54l.087-.18-.087.18zM4.88 3.744a1.885 1.885 0 00.069 2.79l.264-.3a1.485 1.485 0 01-.055-2.202l-.278-.288zm1.438-1.39L4.88 3.746l.278.288 1.438-1.39-.278-.287zm2.943.153c-.74-.887-2.11-.957-2.943-.152l.278.287a1.626 1.626 0 012.358.121l.307-.256zm1.685 2.018L9.261 2.508l-.307.256 1.685 2.019.307-.257zm1.91-2.144L10.654 4.51l.278.287 2.202-2.128-.278-.288zm7.734 0c-1.959-1.892-5.335-2.316-7.734 0l.278.288c2.224-2.148 5.354-1.762 7.178 0l.278-.288zm3.104 2.999L20.59 2.382l-.278.288 3.104 2.998.277-.287zm0 2.726a1.883 1.883 0 000-2.726l-.278.287a1.483 1.483 0 010 2.151l.277.288zm-.209.201l.209-.2-.278-.289-.209.202.278.287zm10.928 10.379L23.486 8.021l-.28.287 10.928 10.665.28-.286zm-.007 2.72c.776-.75.779-1.967.007-2.72l-.28.286a1.484 1.484 0 01-.005 2.146l.278.287zm-9.973 9.635l9.973-9.636-.278-.287-9.973 9.635.278.288zm-2.802 0a2.03 2.03 0 002.802 0l-.277-.288a1.63 1.63 0 01-2.246 0l-.279.288zM10.655 20.436L21.63 31.042l.279-.288-10.977-10.605-.278.287zm.01.259l.268-.259-.278-.287-.268.258.278.288zm-2.802 0a2.03 2.03 0 002.802 0l-.278-.288a1.63 1.63 0 01-2.246 0l-.278.288zM4.76 17.697l3.103 2.998.278-.288-3.103-2.998-.278.288zm-1.423-3.851c-.033 1.34.362 2.825 1.423 3.85l.278-.287c-.957-.925-1.332-2.287-1.3-3.554l-.4-.01zm1.423-3.64c-.931.899-1.39 2.308-1.423 3.64l.4.01c.031-1.262.467-2.558 1.3-3.363l-.277-.288zm2.237-2.162L4.76 10.205l.278.288 2.237-2.161-.278-.288zM4.949 6.535l2.055 1.803.264-.3-2.055-1.803-.264.3zm.317 7.355c.025-1.014.382-1.896.853-2.352l-.277-.288c-.57.55-.949 1.545-.975 2.63l.4.01zm.853 2.474c-.57-.552-.877-1.468-.853-2.474l-.4-.01c-.026 1.08.301 2.12.976 2.771l.277-.287zm3.104 2.998l-3.104-2.998-.277.287 3.103 2.999.278-.288zm.082 0a.061.061 0 01-.082 0l-.278.288a.461.461 0 00.638 0l-.278-.288zM22.334 6.714c.01.01.014.02.014.03 0 .01-.004.02-.014.03l.278.288a.44.44 0 000-.636l-.278.288zM19.23 3.715l3.104 2.999.278-.288-3.103-2.998-.279.287zm-5.014 0c1.552-1.5 3.71-1.26 5.014 0l.279-.287c-1.44-1.392-3.846-1.667-5.57 0l.277.287zM10.454 7.35c-.283-.005-.278-.288-.278-.288s-.005.283.278.288l-.278-.288c.283.005.278.288.278.288s.005-.283-.278-.288l.278.288zm-.573.553l.573-.553-.278-.288-.573.554.278.287zm0 0c-.282-.004-.278-.287-.278-.287s-.005.283.278.287l-.278-.287c.283.005.278.287.278.287s.005-.282-.278-.287l.278.287zm-2.117-4.21l1.787 2.14.307-.256-1.787-2.141-.307.256zm-.087-.004a.059.059 0 01.045-.016c.018 0 .032.008.042.02l.307-.257a.46.46 0 00-.672-.035l.278.288zM6.24 5.078l1.438-1.39-.278-.287-1.438 1.39.278.287zm.002.062a.042.042 0 01-.015-.03c0-.011.003-.022.013-.032l-.278-.288a.44.44 0 00.016.651l.264-.3zm2.11 1.851l-2.11-1.85-.264.3 2.11 1.85.264-.3zM22.99 29.71L12.015 19.104l-.278.287 10.976 10.606.278-.288zm.083 0a.061.061 0 01-.083 0l-.278.288a.461.461 0 00.639 0l-.278-.288zm9.972-9.635l-9.972 9.635.278.288 9.972-9.636-.278-.287zm0-.06a.04.04 0 01.014.03c0 .01-.004.02-.014.03l.278.287a.44.44 0 00.002-.634l-.28.286zM22.126 9.352l10.922 10.66.279-.286-10.922-10.66-.28.286zM12.015 19.39L22.404 9.354l-.279-.288-10.388 10.037.278.288zm-5.896-7.853l3.762-3.635-.278-.287-3.761 3.634.277.288zm16.215-4.764L9.305 19.362l.278.288L22.612 7.062l-.278-.288zm-11.88.576l3.762-3.635-.278-.287-3.762 3.634.278.288zm-.888-1.788L8.08 6.998l.278.287L9.844 5.85l-.278-.287zM6.333 31.547c-.3 0-.808.032-1.217.387l.262.302c.293-.254.672-.288.955-.288v-.4zm40.229 1.925c0-1.07-.896-1.925-1.985-1.925v.4c.882 0 1.584.69 1.584 1.525h.4zm0 6.158v-6.158h-.4v6.158h.4zm-1.985 1.925c1.09 0 1.985-.855 1.985-1.925h-.4c0 .836-.703 1.525-1.585 1.525v.4zm-17.004 0h17.004v-.4H27.573v.4zm1.396 8.422c0-2.222-.201-5.729-1.207-8.686l-.379.128c.985 2.895 1.186 6.35 1.186 8.558h.4zm-1.05 3.068c.693-.67 1.05-1.69 1.05-3.068h-.4c0 1.313-.34 2.212-.928 2.78l.278.288zm-2.21.827c.657 0 1.519-.16 2.21-.827l-.278-.288c-.589.57-1.333.715-1.931.715v.4zm-2.376-.929c.795.864 1.794.929 2.377.929v-.4c-.556 0-1.407-.065-2.082-.8l-.295.271zm-1.138-4.198c0 2.046.388 3.383 1.138 4.198l.295-.27c-.648-.704-1.033-1.916-1.033-3.928h-.4zm-1.41-6.199c.438.778 1.41 3.218 1.41 6.2h.4c0-3.058-.993-5.565-1.462-6.397l-.349.197zm-.232-.398c.085.144.163.278.231.398l.349-.197c-.07-.124-.151-.26-.235-.404l-.345.203zm-.4-.697c.132.242.273.481.4.697l.345-.203a24.49 24.49 0 01-.395-.686l-.35.192zm-2.602.104h2.777v-.4h-2.777v.4zm-.228.006c-.009.002-.004 0 .035-.002.036-.002.096-.004.193-.004v-.4a1.69 1.69 0 00-.315.016l.087.39zm-.152.391c.167-.404.26-.448.224-.423l-.23-.326c-.057.04-.186.167-.364.596l.37.153zm-.007.016l.007-.016-.37-.153-.006.016.37.153zm-.888 5.099H14.45v.4h1.825v-.4zm.88.274a1.567 1.567 0 00-.88-.274v.4c.177 0 .428.047.651.202l.229-.328zm.595 1.158c0-.506-.24-.912-.595-1.158l-.229.328c.252.175.424.46.424.83h.4zm-.286 4.8a1.46 1.46 0 00.286-.859h-.4c0 .167-.048.407-.207.62l.32.24zm-1.19.573c.516 0 .933-.228 1.19-.572l-.32-.24c-.181.242-.478.412-.87.412v.4zm-4.747-.024l.044-.084-.355-.185-.044.085.355.184zm-.016.031l.016-.031-.355-.184-.016.032.355.183zm-2.594 4.012l.006-.01-.329-.227-.006.01.329.227zm-5.906.272c2.6 1.795 5.053.964 5.906-.272l-.33-.228c-.706 1.025-2.9 1.862-5.349.17l-.227.33zm-.05-.035l.05.035.227-.33-.046-.032-.23.327zm-.115-.095a.96.96 0 00.116.095l.23-.327a.572.572 0 01-.068-.056l-.278.288zM1.284 56.06a6.22 6.22 0 001.575 1.983l.254-.309a5.82 5.82 0 01-1.47-1.851l-.36.177zm-.181-3.478c-.537 1.297-.287 2.528.18 3.478l.36-.177c-.433-.88-.651-1.987-.17-3.148l-.37-.153zm2.121-4.895c-.717 1.63-1.612 3.664-2.121 4.895l.37.153c.507-1.226 1.4-3.255 2.117-4.886l-.366-.162zm.973-2.226a250.2 250.2 0 01-.973 2.226l.366.162c.426-.97.79-1.798.975-2.232l-.368-.156zm1.255-.511a.974.974 0 00-1.255.51l.368.157a.575.575 0 01.74-.296l.147-.371zm.528 1.228a.93.93 0 00-.528-1.228l-.147.371a.53.53 0 01.307.7l.368.157zm-1.01 2.315c.433-.986.81-1.841 1.01-2.315l-.368-.156c-.2.47-.575 1.323-1.009 2.31l.366.16zm-2.077 4.79c.507-1.226 1.368-3.182 2.076-4.79l-.366-.162c-.707 1.607-1.57 3.568-2.08 4.8l.37.153zm.131 1.965c-.306-.622-.41-1.29-.131-1.964l-.37-.153c-.335.81-.2 1.6.142 2.294l.36-.177zm1.131 1.402a4.314 4.314 0 01-1.13-1.402l-.36.177c.34.691.869 1.246 1.244 1.54l.246-.315zm3.158.197c-.174.242-1.344 1.045-3.168-.205l-.226.33c1.98 1.357 3.402.55 3.72.109l-.326-.234zm2.517-3.891l-2.522 3.9.336.216 2.522-3.899-.336-.217zm-.004.005l-.006.012.356.183.006-.012-.356-.182zm.367-.567c-.17.18-.292.423-.367.568l.356.182c.08-.155.178-.344.302-.474l-.29-.276zm.497-.323a1.25 1.25 0 00-.496.323l.29.276a.852.852 0 01.339-.221l-.133-.378zm.487-.077c-.12 0-.296.01-.487.077l.133.378a1.06 1.06 0 01.354-.055v-.4zm3.06-3.049h1.784v-.4h-1.785v.4zm-1.405-.824c.266.512.798.824 1.404.824v-.4c-.467 0-.856-.237-1.048-.608l-.356.184zm.024-1.507c-.235.465-.275 1.02-.024 1.507l.356-.184c-.183-.354-.162-.773.025-1.143l-.357-.18zm2.535-5.389l-2.537 5.394.362.17 2.537-5.394-.362-.17zm.975-1.284c-.465.28-.752.75-.978 1.292l.369.155c.215-.516.46-.89.816-1.105l-.207-.342zm1.145-.264c-.23-.001-.697-.006-1.145.264l.207.342c.342-.206.707-.207.937-.206l.001-.4zm.04 0h-.04l-.001.4h.04v-.4zm2.178 0h-2.178v.4h2.178v-.4zm-.243-.86c-.058.383-.029.755.048 1.103l.39-.086a2.628 2.628 0 01-.043-.957l-.395-.06zm1.629-2.197c-.945.58-1.497 1.32-1.63 2.198l.396.06c.11-.733.57-1.381 1.443-1.918l-.21-.34zm2.328-.437c-.765-.162-1.564-.034-2.328.437l.21.34c.68-.418 1.374-.526 2.035-.385l.083-.392zm1.854 1.012c-.498-.453-1.12-.856-1.854-1.012l-.083.392c.642.136 1.202.492 1.668.916l.269-.296zm1.86 2.595c-.402-.83-1.036-1.847-1.86-2.595l-.269.296c.772.701 1.38 1.669 1.768 2.473l.36-.174zm17.42-.113H26.976v.4h17.6v-.4zm.055-.047c0 .02-.018.047-.055.047v.4a.45.45 0 00.455-.447h-.4zm0-6.158v6.158h.4v-6.158h-.4zm-.055-.046c.037 0 .055.027.055.046h.4a.45.45 0 00-.455-.446v.4zm-29.318 0h29.318v-.4H15.259v.4zm-1.436 3.67l.013-.023-.355-.184-.013.024.355.184zm-.753.835c.386-.203.603-.544.753-.834l-.355-.184c-.14.27-.31.52-.584.664l.186.354zm-.845.175c.143.002.501.007.845-.175l-.186-.354c-.248.13-.514.13-.655.13l-.004.4zm-.028 0h.028l.004-.4h-.032v.4zm-1.653-.082l.004-.006-.332-.224-.005.008.333.222zm-.035.058a.675.675 0 01.035-.058l-.333-.222a1.06 1.06 0 00-.057.096l.355.184zm-.021.041l.02-.04-.354-.185-.022.041.356.184zM9.012 39.9c.41-.206.716-.568.963-1.033l-.353-.188c-.225.424-.48.708-.79.863l.18.358zm-.874.178c.115.003.489.015.874-.178l-.18-.358c-.29.146-.579.14-.683.136l-.011.4zm-.02 0a.7.7 0 01.02 0l.01-.4h-.03v.4zm-2.04 0h2.04v-.4h-2.04v.4zm-1.16-.505c.305.37.745.505 1.16.505v-.4c-.333 0-.643-.107-.852-.36l-.308.255zm-.315-.927c0 .224.042.597.315.927l.308-.254a1.04 1.04 0 01-.223-.673h-.4zm0-5.42v5.42h.4v-5.42h-.4zm.513-1.29c-.435.377-.513.9-.513 1.29h.4c0-.348.071-.724.375-.989l-.262-.302zm1.217 1.49h7.271v-.4H6.333v.4zm.2 4.974v-5.173h-.4V38.4h.4zm1.584-.2H6.333v.4h1.784v-.4zm.11 0h-.11v.4h.114l-.004-.4zm.048-.223c-.104.202-.17.265-.179.272l.265.3c.056-.05.15-.157.27-.388l-.356-.184zm.022-.04l-.022.04.356.184.02-.041-.354-.184zm.831-1.199a2.534 2.534 0 00-.316.45l.35.193c.06-.108.152-.25.265-.377l-.299-.266zm.335-.294a1.715 1.715 0 00-.335.294l.299.266c.064-.072.15-.156.256-.226l-.22-.334zm.694-.215c-.315 0-.555.124-.694.215l.22.334a.864.864 0 01.474-.149v-.4zm2.074 0h-.034v.4h.035l-.001-.4zm-.142.044a.59.59 0 01-.03.054l.344.204a1.71 1.71 0 00.04-.07l-.354-.188zm1.331-3.125l-1.338 3.14.368.158 1.338-3.141-.368-.157zm-5.013 5.217a.2.2 0 01-.03.16c-.01.015-.02.024-.022.027a.196.196 0 01-.016.015l-.01.008-.008.005a.096.096 0 01-.007.004l-.2-.346a.21.21 0 00-.009.005l-.007.005-.01.008a.194.194 0 00-.06.083.2.2 0 00-.01.12l.39-.094zm-2.21.148a.2.2 0 01.293.022c.022.028.03.055.032.058l.008.029.002.015v.008l-.4.017a.265.265 0 00.005.035c0 .002.002.015.008.03a.2.2 0 00.324.08l-.272-.294zm5.062 14.98a.2.2 0 01.059.317.195.195 0 01-.065.046.222.222 0 01-.026.01c-.016.004-.029.005-.029.005a.144.144 0 01-.018.002h-.003l-.004-.4h-.014l-.012.002a.203.203 0 00-.055.015.2.2 0 00-.098.273.198.198 0 00.091.09l.174-.36zm-.08.38h.002l-.012-.4h-.003l.013.4zm3.212-6.665a.2.2 0 01.165.088.168.168 0 01.025.05.134.134 0 01.008.035.178.178 0 01.001.042l-.398-.035a.217.217 0 00-.001.023.189.189 0 00.035.11.2.2 0 00.165.087v-.4zm2.915-6.038c.01.002.048.008.087.036a.2.2 0 01.077.213c-.016.058-.052.09-.06.098a.203.203 0 01-.03.022c-.02.012-.036.017-.037.018a.168.168 0 01-.019.005l-.088-.39a.242.242 0 00-.025.007.201.201 0 00-.069.04c-.007.008-.044.04-.06.099a.2.2 0 00.077.212c.04.029.078.034.087.036l.06-.395zm-.118.02a.186.186 0 01.052-.019l.017-.002a.247.247 0 01.05.002l-.06.395a.199.199 0 00.125-.021l-.184-.356zm4.957-2.982c.357-.22.64-.241.888-.189l.082-.39c-.35-.075-.738-.033-1.18.239l.21.34zm-.75.882c.032-.21.16-.519.75-.882l-.21-.34c-.662.407-.882.807-.935 1.163l.395.06zm.28 1.13c-.24-.502-.32-.86-.28-1.13L21 39.03c-.059.39.064.838.315 1.361l.36-.173zm.512.927a12.3 12.3 0 01-.512-.928l-.36.173c.159.332.34.64.528.958l.345-.203zm.289.496c-.098-.174-.195-.338-.288-.496l-.345.203c.093.158.188.32.284.49l.349-.197zm1.649 7.103c0-3.325-1.068-6.074-1.65-7.103l-.348.196c.55.975 1.598 3.657 1.598 6.907h.4zm.646 2.946c-.27-.294-.646-1.05-.646-2.946h-.4c0 1.93.38 2.812.752 3.217l.294-.271zm.938.303c-.436 0-.712-.058-.938-.303l-.294.27c.343.374.767.433 1.232.433v-.4zm.85-.282c-.201.195-.487.282-.85.282v.4c.422 0 .826-.102 1.128-.394l-.278-.288zm.48-1.735c0 1.085-.28 1.542-.48 1.735l.278.288c.305-.294.602-.873.602-2.023h-.4zm-1.454-8.998c1.196 2.774 1.454 6.556 1.454 8.998h.4c0-2.451-.257-6.303-1.487-9.156l-.367.158zm-.003-.005l.003.005.367-.158-.002-.005-.367.158zm-.003-.007l.002.005.37-.153-.002-.005-.37.153zm-1.599-2.399c.705.64 1.288 1.648 1.6 2.399l.369-.153c-.324-.782-.936-1.849-1.7-2.542l-.269.296zm-.947-.55c.279.06.6.235.947.55l.27-.296c-.38-.344-.763-.566-1.134-.645l-.083.391zm21.544-6.47H6.333v.4h38.244v-.4zM14.63 47.352l2.53-5.375-.363-.17-2.528 5.375.361.17zm3.12 5.088V48.5h-.4v3.941h.4zm-6.357 1.432h4.882v-.4h-4.882v.4zm-2.466 4.005l2.574-3.98-.336-.218-2.574 3.98.336.218zm7.093-5.883h-4.845v.4h4.845v-.4zm-.2-3.249v3.449h.4v-3.449h-.4zM13.842 37.06l1.6-3.755-.367-.157-1.6 3.755.367.157zm-3.46 1.047h1.815v-.4h-1.815v.4zm-.419.78l.512-.741-.33-.227-.51.74.328.228zm-1.14-1.716l-.513.743.329.228.513-.744-.33-.227zm3.374-.942h-2.04v.4h2.04v-.4zm-5.115 6.71a.628.628 0 01-.642.612v.4c.569 0 1.042-.447 1.042-1.013h-.4zm-.642.612a.628.628 0 01-.641-.613h-.4c0 .566.473 1.013 1.041 1.013v-.4zm-.641-.613c0-.332.28-.613.641-.613v-.4c-.568 0-1.041.447-1.041 1.013h.4zm.641-.613c.361 0 .642.281.642.613h.4c0-.566-.473-1.013-1.042-1.013v.4zm-4.187-7.328c-.526 0-.965.414-.965.94h.4c0-.292.246-.54.565-.54v-.4zm3.315 0H2.253v.4h3.315v-.4zm.964.94a.952.952 0 00-.964-.94v.4c.318 0 .564.248.564.54h.4zm-.964.938c.526 0 .964-.414.964-.939h-.4a.552.552 0 01-.564.54v.4zm-3.315 0h3.315v-.4H2.253v.4zm-.965-.939c0 .525.439.94.965.94v-.4a.552.552 0 01-.565-.54h-.4zM29.61 24.767l8.413 8.376.283-.283-8.414-8.376-.282.283zm1.102-1.317l-1.098 1.03.274.292 1.097-1.03-.273-.292zm8.691 8.38l-8.413-8.375-.283.283 8.414 8.376.282-.284zm-1.102 1.317l1.098-1.03-.273-.291-1.098 1.03.273.291zM26.304 27.98l5.355 5.173.277-.288-5.354-5.173-.278.288zm1.082-1.333l-1.082 1.045.278.288 1.082-1.045-.278-.288zm5.632 5.173l-5.354-5.173-.278.288 5.354 5.173.278-.288zm-1.082 1.333l1.082-1.045-.278-.288-1.082 1.045.278.288zm22.42-2.252a.932.932 0 00.556-1.217l-.372.148a.532.532 0 01-.323.694l.14.375zm-3.314 1.231l3.314-1.231-.14-.375-3.314 1.231.14.375zm-1.244-.538a.973.973 0 001.244.538l-.14-.375a.574.574 0 01-.733-.31l-.371.147zm.555-1.216a.932.932 0 00-.555 1.216l.371-.148a.532.532 0 01.323-.693l-.139-.375zm3.315-1.232l-3.315 1.232.14.375 3.314-1.232-.14-.375zm1.244.538a.973.973 0 00-1.244-.538l.139.375a.573.573 0 01.733.31l.372-.147zm1.317 8.25a.952.952 0 00.971-.932L56.8 37a.553.553 0 01-.569.536l-.002.4zm-3.551-.022l3.55.023.003-.4-3.55-.023-.003.4zm-.959-.945c-.004.525.432.942.959.945l.002-.4a.552.552 0 01-.56-.543l-.4-.002zm.971-.933c-.526-.003-.967.408-.97.933l.4.002a.553.553 0 01.568-.535l.002-.4zm3.552.023l-3.552-.023-.002.4 3.55.023.004-.4zm.958.945c.004-.525-.432-.942-.959-.945l-.002.4a.552.552 0 01.561.542l.4.003zm-3.506 6.823a.978.978 0 001.291-.417l-.355-.184a.578.578 0 01-.762.241l-.174.36zm-3.174-1.54l3.174 1.54.174-.36-3.173-1.54-.175.36zm-.43-1.264a.927.927 0 00.43 1.264l.175-.36a.528.528 0 01-.25-.72l-.355-.184zm1.291-.416a.978.978 0 00-1.291.416l.355.185a.578.578 0 01.762-.242l.174-.36zm3.174 1.54l-3.174-1.54-.174.36 3.173 1.54.175-.36zm.43 1.263a.927.927 0 00-.43-1.264l-.175.36c.28.136.386.459.25.72l.355.184z" fill="#1D1954"/><path d="M29.586 19H16.414c-.89 0-1.337 1.077-.707 1.707l6.586 6.586a1 1 0 001.414 0l6.586-6.586A1 1 0 0029.586 19z" fill="#FF5A72"/></svg>