<svg width="46" height="60" fill="none" xmlns="http://www.w3.org/2000/svg"><path fill-rule="evenodd" clip-rule="evenodd" d="M22.661 1.052C27.165.495 31 4.505 31 9.53c0 1.254-.22 2.434-.717 3.521-.814 2.04-1.575 4.048-2.134 6.138v.002L26.756 24.5c-.077.297-.318.501-.591.501h-5.404c-.273 0-.514-.203-.592-.5l-1.473-5.59c-.521-1.96-1.205-3.885-1.974-5.774a9.203 9.203 0 01-.668-4.576c.401-3.9 3.158-7.1 6.606-7.508zm7.104 8.478c0-4.2-3.206-7.55-6.971-7.084h-.003c-2.855.338-5.174 3.007-5.51 6.28v.005a7.634 7.634 0 00.557 3.803l.004.01c.786 1.93 1.494 3.918 2.037 5.961v.002l1.342 5.09h4.484l1.26-4.81.002-.003c.585-2.19 1.378-4.275 2.198-6.33a.846.846 0 01.015-.035c.398-.864.585-1.82.585-2.89z" fill="#1D1954"/><path d="M18.697 18.91l1.473 5.59c.078.297.319.5.592.5h5.404c.273 0 .514-.204.591-.501l1.391-5.308.001-.002c.56-2.09 1.32-4.099 2.134-6.138.497-1.087.717-2.267.717-3.521 0-5.025-3.835-9.035-8.339-8.478-3.448.408-6.205 3.608-6.606 7.508a9.203 9.203 0 00.668 4.576c.769 1.889 1.453 3.813 1.974 5.774zm0 0s0 0 0 0zm4.097-16.464c3.765-.467 6.971 2.884 6.971 7.084 0 1.068-.187 2.025-.585 2.89a.846.846 0 00-.015.035c-.82 2.054-1.613 4.14-2.198 6.329l-.001.004-1.26 4.81H21.22l-1.342-5.091v-.002c-.543-2.043-1.25-4.031-2.037-5.962l-.004-.01a7.634 7.634 0 01-.558-3.802v-.005c.337-3.273 2.656-5.942 5.51-6.28h.004z" stroke="#1D1954" stroke-width=".4" stroke-miterlimit="10" stroke-linecap="round" stroke-linejoin="round"/><path fill-rule="evenodd" clip-rule="evenodd" d="M29 37.699c0-.386.27-.699.603-.699h6.675C37.773 37 39 38.428 39 40.16V51.3c0 .386-.27.699-.603.699-.333 0-.603-.313-.603-.699V40.16c0-.962-.69-1.762-1.515-1.762h-6.676c-.333 0-.603-.312-.603-.698zm-18.994.698c-.912 0-1.674.8-1.674 1.762v11.142c0 .386-.298.699-.666.699-.368 0-.666-.313-.666-.699V40.16C7 38.43 8.356 37 10.006 37h7.328c.368 0 .666.313.666.699 0 .386-.298.698-.666.698h-7.328z" fill="#1D1954" stroke="#1D1954" stroke-width=".4" stroke-miterlimit="10" stroke-linecap="round" stroke-linejoin="round"/><path fill-rule="evenodd" clip-rule="evenodd" d="M4.557 52.495c-1.198 0-2.2 1.104-2.2 2.43v2.58h41.286v-2.58c0-1.326-1.002-2.43-2.2-2.43H4.557zm39.765 5.758H45v-3.328C45 52.776 43.393 51 41.443 51H4.557C2.607 51 1 52.776 1 54.925V59h43.322v-.747z" fill="#1D1954" stroke="#1D1954" stroke-width=".4" stroke-miterlimit="10" stroke-linecap="round"/><path fill-rule="evenodd" clip-rule="evenodd" d="M20.647 23c.357 0 .647.299.647.667V42.27c0 .21.184.397.383.397h3.646c.2 0 .383-.188.383-.397V23.667c0-.369.29-.667.647-.667.357 0 .647.299.647.667V42.27c0 .943-.76 1.73-1.677 1.73h-3.646C20.76 44 20 43.213 20 42.27V23.667c0-.369.29-.667.647-.667z" fill="#1D1954" stroke="#1D1954" stroke-width=".4" stroke-miterlimit="10" stroke-linecap="round" stroke-linejoin="round"/><path fill-rule="evenodd" clip-rule="evenodd" d="M14.665 41a.67.67 0 01.665.675v4.17a.81.81 0 00.79.805h13.76a.81.81 0 00.79-.805v-4.17a.67.67 0 01.665-.675.67.67 0 01.665.675v4.17C32 47.024 31.042 48 29.88 48H16.12c-1.162 0-2.12-.976-2.12-2.155v-4.17a.67.67 0 01.665-.675z" fill="#1D1954" stroke="#1D1954" stroke-width=".4" stroke-miterlimit="10" stroke-linecap="round" stroke-linejoin="round"/><path d="M19.818 11c1.127-1.335 2.38-2.064 3.715-2.064 1.336 0 2.589.77 3.716 2.064l.375-.85c.25-.566.376-1.173.376-1.78C28 5.983 25.996 4 23.492 4c-.167 0-.334 0-.501.04-2.046.203-3.715 1.821-3.966 3.844a4.51 4.51 0 00.376 2.347c.167.243.292.526.417.769z" fill="#FF5A72"/></svg>