<svg width="58" height="58" fill="none" xmlns="http://www.w3.org/2000/svg"><path fill-rule="evenodd" clip-rule="evenodd" d="M6.739 3.146h1.227a3.28 3.28 0 012.905 1.762 5.837 5.837 0 01-.003 5.597l-.011.019c-.604 1.04-1.641 1.738-2.89 1.738H6.738c.98.877 2.242 1.4 3.62 1.4 2.084 0 3.896-1.19 4.869-3a.873.873 0 01.769-.46h25.202c.321 0 .617.176.769.46.972 1.81 2.785 3 4.87 3a5.403 5.403 0 003.619-1.4h-1.228a3.28 3.28 0 01-2.904-1.763 5.837 5.837 0 01.003-5.596l.01-.02c.605-1.04 1.642-1.737 2.891-1.737h1.228a5.403 5.403 0 00-3.62-1.4c-2.084 0-3.897 1.19-4.87 3a.873.873 0 01-.768.46H21.763V3.46h18.934C42 1.388 44.24 0 46.837 0c2.639 0 4.916 1.441 6.213 3.564a.873.873 0 01-.745 1.328h-3.076c-.541 0-1.04.287-1.375.86a4.092 4.092 0 00.005 3.915l.007.01c.279.53.797.839 1.363.839h3.076a.873.873 0 01.745 1.328c-1.297 2.122-3.574 3.564-6.213 3.564-2.597 0-4.837-1.389-6.14-3.46H16.498c-1.303 2.071-3.542 3.46-6.14 3.46-2.638 0-4.915-1.442-6.212-3.564a.873.873 0 01.745-1.328h3.075c.542 0 1.04-.288 1.376-.86a4.091 4.091 0 00-.006-3.915L9.33 5.73a1.534 1.534 0 00-1.364-.838H4.891a.873.873 0 01-.745-1.328C5.443 1.44 7.72 0 10.358 0c2.598 0 4.837 1.388 6.14 3.46h5.265v1.746h-5.766a.874.874 0 01-.77-.46c-.972-1.81-2.784-3-4.869-3a5.406 5.406 0 00-3.62 1.4zM16.31 32.42a.873.873 0 011.233-.038l2.107 1.982c.692.65 1.535.996 2.437.996h13.022c.902 0 1.745-.346 2.436-.996l2.108-1.982a.873.873 0 111.196 1.272l-2.108 1.982c-.994.935-2.258 1.47-3.632 1.47H22.087c-1.374 0-2.638-.535-3.633-1.47l-2.107-1.982a.873.873 0 01-.038-1.234zm33.646 8.515a.873.873 0 01-.745.984l-6.124.848h-.001c-1.132.161-1.962 1.12-1.962 2.306v.734h7.967a.873.873 0 110 1.746h-9.713v-2.48c0-2.03 1.446-3.749 3.464-4.035h.003l6.126-.848a.873.873 0 01.985.745zm-42.716 0a.873.873 0 01.985-.745l6.133.849c1.962.286 3.46 1.994 3.46 4.034v2.48H8.105a.873.873 0 110-1.746h7.968v-.734c0-1.174-.863-2.144-1.964-2.306l-6.123-.848a.873.873 0 01-.745-.984zm-3.956-3.968c.482 0 .873.39.873.873v14.465a.873.873 0 01-1.746 0V37.84c0-.482.39-.873.873-.873z" fill="#1D1954"/><path fill-rule="evenodd" clip-rule="evenodd" d="M13.202 21.02l-4.686 9.11a.873.873 0 01-.776.474H2.29c-.28 0-.544.25-.544.562v2.871c0 .216.07.334.129.385a.868.868 0 01.074.073l2.403 2.653A.873.873 0 113.06 38.32L.685 35.7C.177 35.231 0 34.588 0 34.037v-2.87c0-1.255 1.024-2.309 2.29-2.309h4.917l4.478-8.704a.862.862 0 01.077-.124 5.81 5.81 0 014.647-2.35h24.378a5.81 5.81 0 014.647 2.35.87.87 0 01.078.124l4.477 8.704h4.918c1.266 0 2.29 1.054 2.29 2.308v2.871c0 .622-.263 1.224-.667 1.642l-2.166 2.392v14.234a.873.873 0 11-1.746 0v-14.57a.87.87 0 01.226-.587l2.403-2.653a.658.658 0 00.203-.458v-2.87a.566.566 0 00-.543-.563h-5.45a.873.873 0 01-.777-.474l-4.686-9.11a4.062 4.062 0 00-3.207-1.595H16.409a4.062 4.062 0 00-3.207 1.596z" fill="#1D1954"/><path fill-rule="evenodd" clip-rule="evenodd" d="M44.269 51.432c.482 0 .873.391.873.873v.508c0 1.866 1.582 3.441 3.547 3.441 1.964 0 3.547-1.575 3.547-3.441v-.508a.873.873 0 111.746 0v.508c0 2.87-2.404 5.187-5.293 5.187-2.889 0-5.293-2.317-5.293-5.187v-.508c0-.482.39-.873.873-.873zm-40.985 0c.482 0 .873.391.873.873v.508c0 1.866 1.582 3.441 3.547 3.441 1.964 0 3.547-1.575 3.547-3.441v-.508a.873.873 0 111.746 0v.508c0 2.87-2.405 5.187-5.293 5.187-2.889 0-5.293-2.317-5.293-5.187v-.508c0-.482.39-.873.873-.873z" fill="#1D1954"/><path fill-rule="evenodd" clip-rule="evenodd" d="M7.232 52.305c0-.482.391-.873.873-.873h40.986a.873.873 0 110 1.746H8.105a.873.873 0 01-.873-.873zM24.11 46.68c0-.482.39-.873.872-.873h7.233a.873.873 0 110 1.746h-7.233a.873.873 0 01-.873-.873zM11.25 29.804c0-.482.392-.873.874-.873h32.145a.873.873 0 110 1.745H12.124a.873.873 0 01-.873-.872z" fill="#1D1954"/><path d="M40.331 20.964H16.02a2.44 2.44 0 00-1.798.81l-2.097 4.011H44.27l-2.097-4.01c-.514-.513-1.156-.811-1.84-.811z" fill="#FF5A72"/></svg>