<svg width="28" height="28" fill="none" xmlns="http://www.w3.org/2000/svg"><path d="M20.3 25.667A17.99 17.99 0 012.333 7.7 5.367 5.367 0 017.7 2.333c.301-.002.602.025.898.082.287.042.568.113.84.21a1.167 1.167 0 01.759.875l1.598 7a1.166 1.166 0 01-.303 1.073c-.152.164-.164.175-1.599.922a11.562 11.562 0 005.682 5.705c.758-1.447.77-1.458.933-1.61a1.167 1.167 0 011.074-.303l7 1.598a1.165 1.165 0 01.84.758 5.066 5.066 0 01.291 1.739 5.367 5.367 0 01-5.413 5.285zm-12.6-21A3.045 3.045 0 004.667 7.7 15.645 15.645 0 0020.3 23.333a3.045 3.045 0 003.033-3.033v-.385l-5.413-1.248-.338.641c-.525 1.015-.91 1.75-1.89 1.354a13.823 13.823 0 01-8.377-8.412c-.42-.91.373-1.33 1.377-1.855l.641-.315-1.248-5.413H7.7z" fill="#FF6072"/></svg>