<svg width="15" height="15" fill="none" xmlns="http://www.w3.org/2000/svg"><path d="M14.074 9.33L9.83 8.58a.5.5 0 00-.53.26l-1.03 1.972a8.01 8.01 0 01-4.08-4.083l1.97-1.03a.5.5 0 00.26-.53L5.67.926a.5.5 0 00-.212-.328A3.501 3.501 0 000 3.5C.007 9.848 5.152 14.993 11.5 15a3.5 3.5 0 002.9-5.459.499.499 0 00-.326-.212zM11.5 14C5.704 13.993 1.007 9.296 1 3.5a2.5 2.5 0 013.726-2.18l.646 3.663-2.05 1.07a.5.5 0 00-.236.621 9.013 9.013 0 005.24 5.242.5.5 0 00.62-.236l1.07-2.05 3.664.647A2.5 2.5 0 0111.5 14z" fill="#344154"/></svg>