<svg width="28" height="28" viewBox="0 0 28 28" fill="none" xmlns="http://www.w3.org/2000/svg">
<path d="M14 2.33337C11.6926 2.33337 9.43697 3.01761 7.51839 4.29956C5.59982 5.58151 4.10447 7.4036 3.22145 9.5354C2.33843 11.6672 2.10739 14.013 2.55755 16.2761C3.00771 18.5392 4.11885 20.618 5.75047 22.2496C7.38208 23.8812 9.46088 24.9924 11.724 25.4425C13.9871 25.8927 16.3329 25.6617 18.4647 24.7786C20.5965 23.8956 22.4186 22.4003 23.7005 20.4817C24.9825 18.5631 25.6667 16.3075 25.6667 14C25.6667 12.468 25.3649 10.9509 24.7786 9.5354C24.1923 8.11994 23.333 6.83381 22.2496 5.75046C21.1663 4.66711 19.8801 3.80775 18.4647 3.22145C17.0492 2.63514 15.5321 2.33337 14 2.33337ZM14 23.3334C12.1541 23.3334 10.3496 22.786 8.81472 21.7604C7.27986 20.7349 6.08359 19.2772 5.37717 17.5718C4.67075 15.8663 4.48592 13.9897 4.84605 12.1792C5.20618 10.3687 6.09509 8.70567 7.40038 7.40038C8.70567 6.09509 10.3687 5.20617 12.1792 4.84605C13.9897 4.48592 15.8663 4.67075 17.5718 5.37717C19.2772 6.08358 20.7349 7.27986 21.7604 8.81472C22.786 10.3496 23.3334 12.1541 23.3334 14C23.3334 16.4754 22.35 18.8494 20.5997 20.5997C18.8494 22.35 16.4754 23.3334 14 23.3334Z" fill="#FF6072"/>
<path d="M18.6667 12.8333H15.1667V9.33329C15.1667 9.02387 15.0438 8.72713 14.825 8.50833C14.6062 8.28954 14.3095 8.16663 14 8.16663C13.6906 8.16663 13.3939 8.28954 13.1751 8.50833C12.9563 8.72713 12.8334 9.02387 12.8334 9.33329V14C12.8334 14.3094 12.9563 14.6061 13.1751 14.8249C13.3939 15.0437 13.6906 15.1666 14 15.1666H18.6667C18.9761 15.1666 19.2729 15.0437 19.4917 14.8249C19.7105 14.6061 19.8334 14.3094 19.8334 14C19.8334 13.6905 19.7105 13.3938 19.4917 13.175C19.2729 12.9562 18.9761 12.8333 18.6667 12.8333Z" fill="#FF6072"/>
</svg>
