<svg width="30" height="30" viewBox="0 0 30 30" fill="none" xmlns="http://www.w3.org/2000/svg">
<circle cx="15" cy="15" r="14.4" stroke="white" stroke-width="1.2"/>
<path d="M21.3397 8.44997C21.2068 8.38338 21.0502 8.38338 20.9174 8.44997L8.66056 14.5783C8.42773 14.6949 8.33346 14.9781 8.44997 15.2109C8.51629 15.3434 8.64109 15.437 8.78687 15.4636L13.6514 16.3485L14.5362 21.213C14.5725 21.4124 14.7321 21.5664 14.9327 21.5953C14.9549 21.5985 14.9773 21.6001 14.9996 21.6C15.1783 21.6001 15.3417 21.4992 15.4216 21.3393L21.55 9.08259C21.6666 8.84982 21.5724 8.56659 21.3397 8.44997ZM15.2104 19.6526L14.5202 15.8587C14.4845 15.6671 14.3347 15.5172 14.1431 15.4815L10.3473 14.7895L20.074 9.92597L15.2104 19.6526Z" fill="white" stroke="white" stroke-width="0.3"/>
</svg>
