<svg width="28" height="28" viewBox="0 0 28 28" fill="none" xmlns="http://www.w3.org/2000/svg">
<path d="M14 2.33337C11.5407 2.33325 9.18076 3.30376 7.43308 5.03396C5.68539 6.76417 4.69122 9.11423 4.66663 11.5734C4.66663 17.9667 12.8916 25.0834 13.2416 25.3867C13.4529 25.5675 13.7219 25.6668 14 25.6668C14.278 25.6668 14.547 25.5675 14.7583 25.3867C15.1666 25.0834 23.3333 17.9667 23.3333 11.5734C23.3087 9.11423 22.3145 6.76417 20.5668 5.03396C18.8192 3.30376 16.4592 2.33325 14 2.33337ZM14 22.925C12.0516 21.07 6.99996 15.925 6.99996 11.5734C6.99996 9.71686 7.73746 7.93638 9.05021 6.62363C10.363 5.31087 12.1434 4.57337 14 4.57337C15.8565 4.57337 17.637 5.31087 18.9497 6.62363C20.2625 7.93638 21 9.71686 21 11.5734C21 15.89 15.9483 21.07 14 22.925Z" fill="#FF6072"/>
<path d="M14 7C13.1924 7 12.4029 7.23948 11.7314 7.68817C11.0599 8.13685 10.5365 8.77458 10.2275 9.52071C9.9184 10.2668 9.83753 11.0879 9.99509 11.88C10.1526 12.672 10.5415 13.3996 11.1126 13.9707C11.6837 14.5417 12.4113 14.9307 13.2033 15.0882C13.9954 15.2458 14.8165 15.1649 15.5626 14.8558C16.3087 14.5468 16.9464 14.0234 17.3951 13.3519C17.8438 12.6804 18.0833 11.8909 18.0833 11.0833C18.0833 10.0004 17.6531 8.96175 16.8873 8.19598C16.1215 7.43021 15.0829 7 14 7ZM14 12.8333C13.6538 12.8333 13.3155 12.7307 13.0277 12.5384C12.7399 12.3461 12.5156 12.0728 12.3832 11.753C12.2507 11.4333 12.2161 11.0814 12.2836 10.7419C12.3511 10.4025 12.5178 10.0906 12.7625 9.8459C13.0073 9.60115 13.3191 9.43448 13.6586 9.36696C13.998 9.29943 14.3499 9.33409 14.6697 9.46654C14.9894 9.599 15.2627 9.8233 15.455 10.1111C15.6473 10.3989 15.75 10.7372 15.75 11.0833C15.75 11.5475 15.5656 11.9926 15.2374 12.3208C14.9092 12.649 14.4641 12.8333 14 12.8333Z" fill="#FF6072"/>
</svg>
