<svg width="30" height="30" viewBox="0 0 30 30" fill="none" xmlns="http://www.w3.org/2000/svg">
<circle cx="15" cy="15" r="14.4" stroke="#1D1954" stroke-width="1.2"/>
<path d="M21.3397 8.44985C21.2068 8.38325 21.0502 8.38325 20.9174 8.44985L8.66056 14.5782C8.42773 14.6948 8.33346 14.9779 8.44997 15.2108C8.51629 15.3433 8.64109 15.4369 8.78687 15.4635L13.6514 16.3484L14.5362 21.2129C14.5725 21.4123 14.7321 21.5662 14.9327 21.5952C14.9549 21.5984 14.9773 21.6 14.9996 21.5999C15.1783 21.6 15.3417 21.4991 15.4216 21.3392L21.55 9.08247C21.6666 8.8497 21.5724 8.56647 21.3397 8.44985ZM15.2104 19.6525L14.5202 15.8585C14.4845 15.667 14.3347 15.5171 14.1431 15.4814L10.3473 14.7894L20.074 9.92585L15.2104 19.6525Z" fill="#1D1954" stroke="#1D1954" stroke-width="0.3"/>
</svg>
