<svg width="34" height="40" viewBox="0 0 34 40" fill="none" xmlns="http://www.w3.org/2000/svg">
<path d="M29.021 4.91182C25.8101 1.74438 21.5409 0 17.0002 0C12.4593 0 8.19026 1.7443 4.97918 4.91182C1.76833 8.07917 0 12.2903 0 16.7696C0 21.2489 1.76833 25.4602 4.97918 28.6276L16.1602 39.6568C16.3922 39.8857 16.6962 40 17.0002 40C17.3042 40 17.6082 39.8855 17.8401 39.6568L29.0207 28.6277C32.2317 25.4603 33.9999 21.249 34 16.7697C33.9999 12.2902 32.2317 8.07909 29.021 4.91182ZM22.3391 22.036C20.913 23.4427 19.017 24.2175 17.0002 24.2175C14.9835 24.2175 13.0875 23.4428 11.6615 22.0361C10.2354 20.6294 9.45006 18.7591 9.45006 16.7696C9.45006 14.7802 10.2354 12.9099 11.6615 11.5031C13.0875 10.0964 14.9835 9.32168 17.0002 9.32168C19.017 9.32168 20.913 10.0964 22.3391 11.5031C23.7651 12.9097 24.5505 14.7801 24.5505 16.7695C24.5504 18.759 23.765 20.6294 22.3391 22.036Z" fill="#FF5A72"/>
</svg>
