<svg width="16" height="20" viewBox="0 0 16 20" fill="none" xmlns="http://www.w3.org/2000/svg">
<path d="M15.9627 8.17729C15.9627 7.30633 16.0467 6.37087 15.9627 5.48378C15.8786 4.5967 15.6098 3.77413 14.9209 3.09672L12.6357 0.951598C11.9804 0.306447 11.0898 0 10.1657 0H1.15939C0.588098 0 0 0.370962 0 0.91934V16.4191C0.672112 15.903 2.78926 14.7094 3.0245 14.5643L3.10852 14.5159C3.579 13.7095 4.09988 12.774 4.63757 11.7417C5.44411 10.1934 6.06581 8.66115 6.51949 7.20956C6.20023 6.17732 5.9986 5.17734 5.94819 4.22574V4.09671C5.89778 3.4193 5.83057 2.27416 6.43547 1.83868C6.6203 1.70965 6.83874 1.62901 7.05718 1.62901C7.1748 1.62901 7.29242 1.64513 7.39323 1.69352C7.7965 1.82255 8.04854 2.22577 8.11575 2.87092C8.18296 3.22575 8.14936 3.58059 8.11575 3.87091C8.04854 4.5967 7.86371 5.98377 7.56126 7.19343C7.56126 7.22569 7.59487 7.29021 7.61167 7.33859C7.62847 7.37085 7.62847 7.38698 7.64527 7.41924C8.4014 9.53211 9.76243 11.1127 11.762 12.2256C12.5181 12.145 13.2406 12.0966 13.8623 12.0966C14.4168 12.0966 15.1561 12.1127 15.8282 12.274C15.8618 12.2903 15.9459 12.2903 15.9459 12.3063C15.9627 10.9353 15.9627 9.54823 15.9627 8.17729Z" fill="#1D1954"/>
<path d="M5.49452 13.3546C6.73792 12.8224 8.04854 12.4675 9.32555 12.2901C9.51039 12.2738 9.5776 12.0482 9.44317 11.9192C8.51902 11.1127 7.84691 10.145 7.39323 9.27404C7.30922 9.11276 7.05718 9.12889 6.98996 9.3063C6.65391 10.2577 6.20023 11.2579 5.61214 12.3385C5.47771 12.5804 5.34329 12.8224 5.20887 13.0643C5.10805 13.2417 5.30969 13.4353 5.49452 13.3546Z" fill="#1D1954"/>
<path d="M3.54539 15.8223C3.49498 15.903 3.46138 15.9515 3.42777 15.9999C3.14212 16.4354 2.87328 16.8063 2.60443 17.145C2.30198 17.5321 1.99953 17.9031 1.64667 18.2418C1.51225 18.371 1.36103 18.5 1.2098 18.6129C1.02497 18.7579 0.789732 18.8386 0.655309 19.0161C0.554492 19.1289 0.520887 19.2902 0.520887 19.4355C0.53769 19.7419 0.789732 20 1.12579 20H14.2488C15.1393 20 15.946 19.3065 15.946 18.4516V14.4514C15.946 14.4514 15.7948 14.4677 15.7274 14.4677C14.7362 14.4677 13.2742 14.0806 11.8964 13.4516C11.8293 13.4193 11.7453 13.403 11.6779 13.403C11.3923 13.3709 11.0898 13.3709 10.8042 13.3709C10.3841 13.3709 9.96406 13.403 9.54399 13.4516C9.22491 13.4999 8.90548 13.5483 8.58623 13.6128C6.87235 13.9354 5.14166 14.6612 3.73039 15.6451C3.64621 15.6933 3.5958 15.7578 3.54539 15.8223Z" fill="#1D1954"/>
</svg>
