<svg width="58" height="58" viewBox="0 0 58 58" fill="none" xmlns="http://www.w3.org/2000/svg">
<path fill-rule="evenodd" clip-rule="evenodd" d="M6.73886 3.14579H7.96619C9.19167 3.14579 10.2949 3.82301 10.8707 4.90842C11.8222 6.65147 11.8212 8.76237 10.8677 10.5047L10.8568 10.524C10.2528 11.5639 9.21589 12.2618 7.96619 12.2618H6.73886C7.7191 13.1388 8.98118 13.6617 10.3583 13.6617C12.4427 13.6617 14.2551 12.4716 15.2277 10.6611C15.3798 10.378 15.6753 10.2014 15.9967 10.2014H41.1989C41.5203 10.2014 41.8157 10.378 41.9678 10.6611C42.9405 12.4716 44.7528 13.6617 46.8373 13.6617C48.2144 13.6617 49.4765 13.1388 50.4567 12.2618H49.2294C48.0038 12.2618 46.9006 11.5844 46.3247 10.4989C45.3734 8.75589 45.3744 6.64511 46.3279 4.9029L46.3388 4.88352C46.9428 3.8437 47.9797 3.14579 49.2294 3.14579H50.4567C49.4765 2.26878 48.2144 1.74582 46.8373 1.74582C44.7528 1.74582 42.9405 2.93596 41.9678 4.7464C41.8157 5.02955 41.5203 5.20619 41.1989 5.20619H21.7633V4.33328V3.46037H40.6975C42.0004 1.3882 44.24 0 46.8373 0C49.4759 0 51.7529 1.44126 53.0498 3.56356C53.2144 3.83299 53.2207 4.17033 53.0662 4.44571C52.9118 4.7211 52.6206 4.89161 52.3049 4.89161H49.2294C48.688 4.89161 48.1896 5.17928 47.8538 5.75112C47.1907 6.97109 47.1925 8.44798 47.8594 9.66653L47.8656 9.67794C48.1449 10.2069 48.6631 10.5159 49.2294 10.5159H52.3049C52.6206 10.5159 52.9118 10.6864 53.0662 10.9618C53.2207 11.2372 53.2144 11.5746 53.0498 11.844C51.7529 13.9663 49.4759 15.4076 46.8373 15.4076C44.24 15.4076 42.0004 14.0193 40.6975 11.9472H16.498C15.1952 14.0193 12.9556 15.4076 10.3583 15.4076C7.71967 15.4076 5.44259 13.9663 4.14578 11.844C3.98115 11.5746 3.97485 11.2372 4.1293 10.9618C4.28376 10.6864 4.57489 10.5159 4.89064 10.5159H7.96619C8.50761 10.5159 9.00602 10.2283 9.34172 9.65645C10.0049 8.43647 10.0031 6.95958 9.33623 5.74102L9.32998 5.72961C9.05066 5.20065 8.53253 4.89161 7.96619 4.89161H4.89064C4.57489 4.89161 4.28376 4.7211 4.1293 4.44571C3.97485 4.17033 3.98115 3.83299 4.14578 3.56356C5.44259 1.44125 7.71967 0 10.3583 0C12.9556 0 15.1952 1.38821 16.498 3.46037H21.7633V4.33328V5.20619H15.9974C15.676 5.20619 15.3798 5.02955 15.2277 4.7464C14.2551 2.93595 12.4427 1.74582 10.3583 1.74582C8.98118 1.74582 7.7191 2.26879 6.73886 3.14579Z" fill="#1D1954"/>
<path fill-rule="evenodd" clip-rule="evenodd" d="M16.3094 32.4203C16.6396 32.0691 17.1921 32.0521 17.5433 32.3824L19.6504 34.364C20.3417 35.0141 21.185 35.3599 22.0868 35.3599H35.1091C36.0109 35.3599 36.8541 35.0141 37.5454 34.364L39.6526 32.3824C40.0038 32.0521 40.5562 32.0691 40.8865 32.4203C41.2167 32.7715 41.1998 33.3239 40.8486 33.6542L38.7414 35.6358C37.747 36.5709 36.483 37.1057 35.1091 37.1057H22.0868C20.7129 37.1057 19.4489 36.5709 18.4544 35.6358L16.3473 33.6542C15.9961 33.3239 15.9791 32.7715 16.3094 32.4203Z" fill="#1D1954"/>
<path fill-rule="evenodd" clip-rule="evenodd" d="M49.9557 40.9347C50.0218 41.4122 49.6883 41.853 49.2107 41.9191L43.0868 42.767C43.0864 42.767 43.086 42.7671 43.0856 42.7671C41.9537 42.9281 41.124 43.8879 41.124 45.0726V45.8069H49.091C49.5731 45.8069 49.9639 46.1977 49.9639 46.6798C49.9639 47.1619 49.5731 47.5527 49.091 47.5527H39.3782V45.0726C39.3782 43.0432 40.8236 41.3244 42.8419 41.0384L42.8446 41.038L48.9713 40.1898C49.4488 40.1236 49.8896 40.4572 49.9557 40.9347Z" fill="#1D1954"/>
<path fill-rule="evenodd" clip-rule="evenodd" d="M7.24084 40.9347C7.30696 40.4572 7.74768 40.1236 8.22522 40.1898L14.3581 41.0389C16.3196 41.3248 17.8184 43.0328 17.8184 45.0726V47.5527H8.1055C7.6234 47.5527 7.23259 47.1619 7.23259 46.6798C7.23259 46.1977 7.6234 45.8069 8.1055 45.8069H16.0725V45.0726C16.0725 43.8988 15.2096 42.9287 14.1091 42.7669L7.98578 41.9191C7.50824 41.853 7.17472 41.4122 7.24084 40.9347Z" fill="#1D1954"/>
<path fill-rule="evenodd" clip-rule="evenodd" d="M3.28374 36.967C3.76583 36.967 4.15665 37.3579 4.15665 37.84V52.3053C4.15665 52.7874 3.76583 53.1782 3.28374 53.1782C2.80164 53.1782 2.41083 52.7874 2.41083 52.3053V37.84C2.41083 37.3579 2.80164 36.967 3.28374 36.967Z" fill="#1D1954"/>
<path fill-rule="evenodd" clip-rule="evenodd" d="M13.202 21.0209L8.51608 30.1302C8.36648 30.4211 8.06688 30.6039 7.73985 30.6039H2.28924C2.00974 30.6039 1.74582 30.8545 1.74582 31.1663V34.037C1.74582 34.2531 1.81658 34.3715 1.87454 34.4219C1.90081 34.4447 1.92568 34.4691 1.94904 34.4949L4.35246 37.1481C4.67611 37.5054 4.64884 38.0574 4.29154 38.3811C3.93425 38.7047 3.38222 38.6774 3.05857 38.3201L0.685334 35.7002C0.176544 35.2315 0 34.5881 0 34.037V31.1663C0 29.9123 1.02367 28.858 2.28924 28.858H7.20725L11.6846 20.1541C11.7069 20.1107 11.7328 20.0693 11.7621 20.0303C12.8672 18.5539 14.5829 17.6797 16.4094 17.6797H40.787C42.6134 17.6797 44.3291 18.5539 45.4343 20.0303C45.4635 20.0693 45.4894 20.1107 45.5117 20.1541L49.9891 28.858H54.9071C56.1727 28.858 57.1964 29.9123 57.1964 31.1663V34.037C57.1964 34.6593 56.9344 35.2615 56.5303 35.6789L54.3637 38.0707V52.3051C54.3637 52.7872 53.9729 53.178 53.4908 53.178C53.0087 53.178 52.6179 52.7872 52.6179 52.3051V37.7341C52.6179 37.5175 52.6984 37.3086 52.8439 37.1481L55.2473 34.4948C55.2557 34.4856 55.2642 34.4766 55.2729 34.4678C55.3756 34.3638 55.4506 34.1901 55.4506 34.037V31.1663C55.4506 30.8545 55.1866 30.6039 54.9071 30.6039H49.4565C49.1295 30.6039 48.8299 30.4211 48.6803 30.1302L43.9944 21.0209C43.2105 20.0088 42.0281 19.4255 40.787 19.4255H16.4094C15.1683 19.4255 13.9859 20.0088 13.202 21.0209Z" fill="#1D1954"/>
<path fill-rule="evenodd" clip-rule="evenodd" d="M44.2688 51.4323C44.7509 51.4323 45.1417 51.8231 45.1417 52.3052V52.8127C45.1417 54.6794 46.7241 56.254 48.6888 56.254C50.6534 56.254 52.2358 54.6794 52.2358 52.8127V52.3052C52.2358 51.8231 52.6266 51.4323 53.1087 51.4323C53.5908 51.4323 53.9816 51.8231 53.9816 52.3052V52.8127C53.9816 55.6832 51.5775 57.9999 48.6888 57.9999C45.8 57.9999 43.3959 55.6832 43.3959 52.8127V52.3052C43.3959 51.8231 43.7867 51.4323 44.2688 51.4323Z" fill="#1D1954"/>
<path fill-rule="evenodd" clip-rule="evenodd" d="M3.28374 51.4323C3.76583 51.4323 4.15665 51.8231 4.15665 52.3052V52.8127C4.15665 54.6794 5.7391 56.254 7.70371 56.254C9.66832 56.254 11.2508 54.6794 11.2508 52.8127V52.3052C11.2508 51.8231 11.6416 51.4323 12.1237 51.4323C12.6058 51.4323 12.9966 51.8231 12.9966 52.3052V52.8127C12.9966 55.6832 10.5924 57.9999 7.70371 57.9999C4.815 57.9999 2.41083 55.6832 2.41083 52.8127V52.3052C2.41083 51.8231 2.80164 51.4323 3.28374 51.4323Z" fill="#1D1954"/>
<path fill-rule="evenodd" clip-rule="evenodd" d="M7.23248 52.3052C7.23248 51.8231 7.6233 51.4323 8.10539 51.4323H49.0906C49.5727 51.4323 49.9635 51.8231 49.9635 52.3052C49.9635 52.7873 49.5727 53.1781 49.0906 53.1781H8.10539C7.6233 53.1781 7.23248 52.7873 7.23248 52.3052Z" fill="#1D1954"/>
<path fill-rule="evenodd" clip-rule="evenodd" d="M24.1093 46.6799C24.1093 46.1978 24.5001 45.807 24.9822 45.807H32.2148C32.6969 45.807 33.0878 46.1978 33.0878 46.6799C33.0878 47.162 32.6969 47.5528 32.2148 47.5528H24.9822C24.5001 47.5528 24.1093 47.162 24.1093 46.6799Z" fill="#1D1954"/>
<path fill-rule="evenodd" clip-rule="evenodd" d="M11.2507 29.8036C11.2507 29.3215 11.6415 28.9307 12.1236 28.9307H44.2689C44.751 28.9307 45.1418 29.3215 45.1418 29.8036C45.1418 30.2857 44.751 30.6765 44.2689 30.6765H12.1236C11.6415 30.6765 11.2507 30.2857 11.2507 29.8036Z" fill="#1D1954"/>
<path d="M40.3312 20.9637H28.1751H16.019C15.3341 20.9637 14.692 21.2624 14.2212 21.7745L12.1239 25.7855H44.2691L42.1718 21.7745C41.6581 21.2624 41.016 20.9637 40.3312 20.9637Z" fill="#FF5A72"/>
</svg>
