<svg width="69" height="60" viewBox="0 0 69 60" fill="none" xmlns="http://www.w3.org/2000/svg">
<path d="M48.0904 45.4973C48.0904 38.0299 42.0042 31.9946 34.4738 31.9946C26.9434 31.9946 20.8572 38.0299 20.8572 45.4973C20.8572 52.9646 26.9434 58.9999 34.4738 58.9999C42.0042 58.9999 48.0904 52.9646 48.0904 45.4973Z" stroke="#1D1954" stroke-width="1.8" stroke-miterlimit="10"/>
<path d="M44.0158 43.9118C43.9642 43.3492 43.4484 42.8889 42.881 42.94C41.9929 43.0008 41.1949 42.4549 40.7252 41.6987C40.6023 41.5009 40.4712 41.3109 40.3321 41.129C39.7847 40.4135 39.5476 39.4542 39.9411 38.6437C40.199 38.1323 39.9927 37.4674 39.4253 37.2116L37.878 36.4956C37.3622 36.2398 36.6917 36.4444 36.4338 37.007C36.0366 37.8249 35.1436 38.2506 34.2347 38.2766C33.9946 38.2835 33.753 38.3023 33.5111 38.3341C32.6284 38.4499 31.6903 38.1918 31.1728 37.4674C30.8633 37.0071 30.1928 36.8536 29.677 37.2116L28.2844 38.1834C27.8202 38.4903 27.6655 39.1552 28.0265 39.6667C28.542 40.3883 28.4746 41.3568 28.0545 42.1378C27.9487 42.3345 27.8523 42.5355 27.7652 42.7405C27.4064 43.5843 26.672 44.2605 25.7571 44.321C25.1897 44.3721 24.7255 44.8836 24.7771 45.4462L24.9319 47.134C24.9834 47.6966 25.4992 48.1569 26.0666 48.1058C26.9547 48.0451 27.7528 48.5909 28.2224 49.3471C28.3453 49.5449 28.4764 49.7349 28.6155 49.9167C29.1629 50.6323 29.4 51.5916 29.0065 52.4021C28.7486 52.9136 28.9549 53.5784 29.5223 53.8342L31.0697 54.5502C31.5854 54.806 32.2559 54.6014 32.5138 54.0388C32.911 53.2209 33.804 52.7952 34.7129 52.7692C34.953 52.7623 35.1946 52.7435 35.4365 52.7118C36.3192 52.5959 37.2573 52.854 37.7748 53.5784C38.0843 54.0387 38.7548 54.1922 39.2706 53.8342L40.6632 52.8624C41.1274 52.5556 41.2821 51.8906 40.9211 51.3792C40.4056 50.6575 40.473 49.689 40.8931 48.908C40.9989 48.7113 41.0953 48.5103 41.1824 48.3053C41.5412 47.4615 42.2756 46.7853 43.1905 46.7249C43.7579 46.6737 44.2221 46.1622 44.1705 45.5996L44.0158 43.9118ZM34.4738 49.2822C32.3591 49.2822 30.657 47.5943 30.657 45.4973C30.657 43.4003 32.3591 41.7125 34.4738 41.7125C36.5885 41.7125 38.2906 43.4003 38.2906 45.4973C38.2906 47.5943 36.5885 49.2822 34.4738 49.2822Z" fill="#FF5A72"/>
<path d="M5.95166 29.8465L18.6915 17.2134" stroke="#1D1954" stroke-width="1.8" stroke-miterlimit="10" stroke-linecap="round"/>
<path d="M3.47583 27.3915L16.2156 14.7583" stroke="#1D1954" stroke-width="1.8" stroke-miterlimit="10" stroke-linecap="round"/>
<path d="M1 24.9367L13.7914 12.3036" stroke="#1D1954" stroke-width="1.8" stroke-miterlimit="10" stroke-linecap="round"/>
<path d="M63.0483 29.8465L50.257 17.2134" stroke="#1D1954" stroke-width="1.8" stroke-miterlimit="10" stroke-linecap="round"/>
<path d="M65.5247 27.3915L52.7333 14.7583" stroke="#1D1954" stroke-width="1.8" stroke-miterlimit="10" stroke-linecap="round"/>
<path d="M68 24.9366L55.2086 12.3035" stroke="#1D1954" stroke-width="1.8" stroke-miterlimit="10" stroke-linecap="round"/>
<path d="M61.6051 18.6455L65.3555 14.8939C66.5302 13.7188 66.526 11.8127 65.3462 10.6427L56.4992 1.86978C55.9373 1.31262 55.1781 1 54.3868 1H34.475H14.6148C13.8236 1 13.0643 1.31262 12.5024 1.86978L3.65545 10.6427C2.4756 11.8127 2.47143 13.7188 3.64617 14.8939L7.39652 18.6455" stroke="#1D1954" stroke-width="1.8" stroke-miterlimit="10"/>
<path d="M31.1728 32.4037L21.6309 22.9416C20.8572 22.1744 19.6193 22.1744 18.8457 22.9416L11.7795 29.9487C11.0058 30.7159 11.0058 31.9434 11.7795 32.7106L21.3214 42.1726" stroke="#1D1954" stroke-width="1.8" stroke-miterlimit="10"/>
<path d="M47.6782 42.1726L57.2201 32.7106C57.9938 31.9434 57.9938 30.7159 57.2201 29.9487L50.154 22.9416C49.3803 22.1744 48.1424 22.1744 47.3687 22.9416L37.8268 32.4037" stroke="#1D1954" stroke-width="1.8" stroke-miterlimit="10"/>
<path d="M34.4736 16.3438C37.3792 16.3438 39.7346 14.0081 39.7346 11.1268C39.7346 8.24562 37.3792 5.90991 34.4736 5.90991C31.5681 5.90991 29.2126 8.24562 29.2126 11.1268C29.2126 14.0081 31.5681 16.3438 34.4736 16.3438Z" stroke="#1D1954" stroke-width="1.8" stroke-miterlimit="10" stroke-linecap="round"/>
<path d="M36.4342 11.1268C36.4342 10.0528 35.5575 9.23462 34.5261 9.23462C33.4432 9.23462 32.618 10.104 32.618 11.1268C32.618 12.2007 33.4947 13.0189 34.5261 13.0189C35.5575 13.07 36.4342 12.2007 36.4342 11.1268Z" fill="#BCC2E6"/>
<path d="M39.786 10.2576L41.3849 23.351" stroke="#1D1954" stroke-width="1.8" stroke-miterlimit="10" stroke-linecap="round"/>
<path d="M29.2127 10.2576L27.6138 23.351" stroke="#1D1954" stroke-width="1.8" stroke-miterlimit="10" stroke-linecap="round"/>
</svg>
