<svg width="49" height="60" viewBox="0 0 49 60" fill="none" xmlns="http://www.w3.org/2000/svg">
<mask id="path-1-inside-1" fill="white">
<path d="M17.2683 5.50806C16.5739 5.50806 15.9292 5.86825 15.5652 6.45959L8.12861 18.5397C7.30829 19.8722 8.26697 21.5882 9.83175 21.5882H40.5484C41.653 21.5882 42.5484 20.6927 42.5484 19.5882V7.50806C42.5484 6.40349 41.653 5.50806 40.5484 5.50806H17.2683Z"/>
</mask>
<path d="M15.5652 6.45959L13.862 5.41112L15.5652 6.45959ZM13.862 5.41112L6.42546 17.4912L9.83175 19.5882L17.2683 7.50806L13.862 5.41112ZM9.83175 23.5882H40.5484V19.5882H9.83175V23.5882ZM44.5484 19.5882V7.50806H40.5484V19.5882H44.5484ZM40.5484 3.50806H17.2683V7.50806H40.5484V3.50806ZM44.5484 7.50806C44.5484 5.29892 42.7576 3.50806 40.5484 3.50806V7.50806V7.50806H44.5484ZM40.5484 23.5882C42.7576 23.5882 44.5484 21.7973 44.5484 19.5882H40.5484H40.5484V23.5882ZM6.42546 17.4912C4.78483 20.1563 6.70218 23.5882 9.83175 23.5882V19.5882L9.83175 19.5882L6.42546 17.4912ZM17.2683 7.50806V3.50806C15.8795 3.50806 14.5901 4.22844 13.862 5.41112L17.2683 7.50806Z" fill="#1D1954" mask="url(#path-1-inside-1)"/>
<path d="M13.6411 1.04649L1 21.5881V30.0465V38.5978C11.1779 39.5737 19.218 48.125 19.218 58.5353C19.218 58.6747 19.218 58.8606 19.218 59H47.0096V30V1H13.7309L13.6411 1.04649Z" stroke="#1D1954" stroke-width="2" stroke-miterlimit="10"/>
<path d="M23.7772 52.5897C22.8477 43.3878 16.109 35.9054 7 34" stroke="#FF5A72" stroke-width="3" stroke-miterlimit="10" stroke-linecap="round"/>
<path d="M42.5492 27.2114V31.8589H32.5107V30.0464" stroke="#1D1954" stroke-width="2" stroke-miterlimit="10" stroke-linecap="round"/>
<path d="M32.5107 35.8096H37.5292" stroke="#1D1954" stroke-width="2" stroke-miterlimit="10" stroke-linecap="round"/>
</svg>
