<svg width="63" height="60" viewBox="0 0 63 60" fill="none" xmlns="http://www.w3.org/2000/svg">
<path d="M31.2897 58.9999C36.0956 58.9999 39.9915 55.1112 39.9915 50.3142C39.9915 45.5172 36.0956 41.6284 31.2897 41.6284C26.4838 41.6284 22.5879 45.5172 22.5879 50.3142C22.5879 55.1112 26.4838 58.9999 31.2897 58.9999Z" stroke="#1D1954" stroke-width="2" stroke-miterlimit="10"/>
<path d="M27.7236 49.8396C27.7236 49.8396 30.862 52.9722 31.0046 53.1146L35.8073 48.3208" stroke="#1D1954" stroke-width="2" stroke-miterlimit="10" stroke-linecap="round"/>
<path d="M39.9912 50.0768C48.1224 48.6054 55.4928 45.0457 61.6268 40.0146" stroke="#1D1954" stroke-width="2" stroke-miterlimit="10" stroke-linecap="round"/>
<path d="M1 40.0146C7.13405 45.0457 14.5044 48.558 22.6356 50.0768" stroke="#1D1954" stroke-width="2" stroke-miterlimit="10" stroke-linecap="round"/>
<path d="M42.512 14.4321L40.5625 16.2357C39.8016 16.9476 38.7555 17.3274 37.7094 17.3274H32.4313H25.4413C24.3952 17.3274 23.3491 16.9476 22.5882 16.2357L20.6387 14.4321" stroke="#1D1954" stroke-width="2" stroke-miterlimit="10" stroke-linecap="round" stroke-linejoin="round"/>
<path d="M50.0244 26.8674H41.9883V25.4435C41.9883 24.0196 43.0344 22.833 44.4609 22.5957L50.0244 21.8363" stroke="#1D1954" stroke-width="2" stroke-miterlimit="10" stroke-linecap="round"/>
<path d="M12.5557 21.8835L18.1191 22.6429C19.5457 22.8328 20.5918 24.0668 20.5918 25.4907V26.9146H12.5557" stroke="#1D1954" stroke-width="2" stroke-miterlimit="10" stroke-linecap="round"/>
<path d="M8.22754 18.4662V31.7558" stroke="#1D1954" stroke-width="2" stroke-miterlimit="10" stroke-linecap="round" stroke-linejoin="round"/>
<path d="M8.22728 18.4664L5.99242 16.0458C5.70712 15.8085 5.56445 15.4763 5.56445 15.0966V12.4861C5.56445 11.7742 6.13504 11.2046 6.8483 11.2046H11.8887L16.2634 2.80362C17.1193 1.66451 18.4982 1 19.9248 1H31.2419H42.5589C43.9854 1 45.3644 1.66451 46.2204 2.80362L50.595 11.2046H55.6354C56.3486 11.2046 56.9193 11.7742 56.9193 12.4861V15.0966C56.9193 15.4763 56.7766 15.8085 56.4913 16.0458L54.2565 18.4664V31.7561" stroke="#1D1954" stroke-width="2" stroke-miterlimit="10" stroke-linecap="round" stroke-linejoin="round"/>
<path d="M46.2207 31.7561V32.2307C46.2207 34.4615 48.0276 36.2651 50.2625 36.2651C52.4974 36.2651 54.3043 34.4615 54.3043 32.2307V31.7561" stroke="#1D1954" stroke-width="2" stroke-miterlimit="10" stroke-linecap="round" stroke-linejoin="round"/>
<path d="M16.359 31.7561V32.2307C16.359 34.4615 14.5521 36.2651 12.3172 36.2651C10.0823 36.2651 8.27539 34.4615 8.27539 32.2307V31.7561" stroke="#1D1954" stroke-width="2" stroke-miterlimit="10" stroke-linecap="round" stroke-linejoin="round"/>
<path d="M50.0257 31.7561H32.099H12.5557" stroke="#1D1954" stroke-width="2" stroke-miterlimit="10" stroke-linecap="round" stroke-linejoin="round"/>
<path d="M28.1035 26.8672H34.5229" stroke="#1D1954" stroke-width="2" stroke-miterlimit="10" stroke-linecap="round" stroke-linejoin="round"/>
<path d="M16.5967 11.2045H46.0306" stroke="#1D1954" stroke-width="2" stroke-miterlimit="10" stroke-linecap="round" stroke-linejoin="round"/>
<path d="M42.6068 3.84778H31.2897H19.9726C19.4971 3.84778 19.0216 4.03767 18.6888 4.41737L16.8818 7.88214C24.7753 7.88214 36.8532 7.88214 45.65 7.88214L43.8432 4.41737C43.5578 4.03767 43.0824 3.84778 42.6068 3.84778Z" fill="#FF5A72"/>
</svg>
