<svg width="64" height="58" viewBox="0 0 64 58" fill="none" xmlns="http://www.w3.org/2000/svg">
<path d="M55.1407 31C55.1407 31.1394 55.1407 31.1515 55.1407 31.2587V34.0659C55.1407 34.1313 55.1288 34.1687 55.1205 34.1873C55.113 34.2042 55.1016 34.2221 55.0761 34.2433C55.0373 34.2756 55.0008 34.3107 54.9669 34.3482L52.6109 36.9548C52.4324 37.1523 52.3336 37.409 52.3336 37.6751V51.6375C52.3013 51.7397 52.2839 51.8485 52.2839 51.9614V52.5128C52.2839 54.3257 50.8098 55.7998 48.9969 55.7998C47.3619 55.7998 46.0024 54.6008 45.7514 53.0355H48.6963C49.2896 53.0355 49.7705 52.5546 49.7705 51.9614C49.7705 51.3681 49.2896 50.8872 48.6963 50.8872H8.54386C7.95063 50.8872 7.46972 51.3681 7.46972 51.9614C7.46972 52.5546 7.95063 53.0355 8.54386 53.0355H11.4878C11.2368 54.6008 9.87737 55.7998 8.24233 55.7998C6.42942 55.7998 4.95534 54.3257 4.95534 52.5128V37.6917C4.95944 37.4293 4.86802 37.1649 4.67819 36.9548L2.32219 34.3482C2.28829 34.3107 2.25179 34.2756 2.21296 34.2433C2.21075 34.2414 2.19253 34.2243 2.17423 34.1816C2.15543 34.1378 2.14829 34.0936 2.14829 34.0659V31.2587C2.14829 31.0749 2.29377 30.9293 2.47774 30.9293H7.89155C8.2916 30.9293 8.6585 30.707 8.84368 30.3524L13.5112 21.4146C14.26 20.472 15.3715 19.9513 16.5136 19.9513H40.7755C41.3766 19.9513 41.9514 20.0833 42.4622 20.3297C43 19.9513 43.5 19.5 44 18.5C43.0744 17.9389 41.8829 17.803 40.7755 17.803H16.5136C14.6749 17.803 12.9045 18.661 11.7484 20.1822C11.7118 20.2303 11.6794 20.2813 11.6514 20.3349L7.2407 28.781H2.47774C1.05761 28.781 0 29.9387 0 31.2587V34.0659C0 34.6574 0.233837 35.3502 0.770846 35.8356L2.80704 38.0885V52.5128C2.80704 55.5122 5.24295 57.9481 8.24233 57.9481C11.0654 57.9481 13.3893 55.7901 13.6527 53.0355H43.5865C43.85 55.7901 46.1738 57.9481 48.9969 57.9481C51.9963 57.9481 54.4322 55.5122 54.4322 52.5128V52.2855C54.4645 52.1833 54.4819 52.0745 54.4819 51.9616V38.0886L56.5172 35.8368C57.0414 35.3669 57.289 34.7266 57.289 34.0659V31.2587C57.289 30.4745 57.0385 29.9461 56.5 29.5C55.9168 30.0032 55.4849 30.4381 55.1407 31Z" fill="#1D1954"/>
<path d="M16.3279 32.633C16.7315 32.1983 17.4112 32.1731 17.8459 32.5768L19.9513 34.5318C19.961 34.5408 19.9705 34.55 19.9799 34.5594C20.5542 35.1337 21.3707 35.4479 22.2782 35.4479H35.4618C36.2737 35.4479 37.125 35.113 37.7993 34.522L39.8941 32.5768C40.3288 32.1731 41.0085 32.1983 41.4121 32.633C41.8158 33.0677 41.7906 33.7474 41.3559 34.1511L39.2505 36.1061C39.2439 36.1122 39.2371 36.1183 39.2303 36.1244C38.2018 37.0319 36.8517 37.5961 35.4618 37.5961H22.2782C20.8866 37.5961 19.504 37.1129 18.4758 36.0933L16.3841 34.1511C15.9494 33.7474 15.9242 33.0677 16.3279 32.633Z" fill="#1D1954"/>
<path d="M49.7103 41.1911C49.7893 41.7791 49.3768 42.3198 48.7888 42.3988L42.8421 43.1984C41.8602 43.3694 41.148 44.224 41.148 45.1941V45.6238H48.6958C49.289 45.6238 49.77 46.1047 49.77 46.6979C49.77 47.2912 49.289 47.7721 48.6958 47.7721H38.9997V45.1941C38.9997 43.1614 40.4858 41.4131 42.5039 41.0768L42.5205 41.074L48.5026 40.2697C49.0905 40.1906 49.6312 40.6032 49.7103 41.1911Z" fill="#1D1954"/>
<path d="M8.68678 40.2697C8.09883 40.1906 7.55813 40.6032 7.47908 41.1911C7.40003 41.7791 7.81257 42.3198 8.40051 42.3988L14.3669 43.201C15.3103 43.3268 16.0414 44.1511 16.0414 45.1941V45.6238H8.49351C7.90028 45.6238 7.41937 46.1047 7.41937 46.6979C7.41937 47.2912 7.90028 47.7721 8.49351 47.7721H18.1897V45.1941C18.1897 43.1294 16.7147 41.3471 14.6508 41.0716L8.68678 40.2697Z" fill="#1D1954"/>
<path d="M25.1858 45.624C24.5925 45.624 24.1116 46.1049 24.1116 46.6982C24.1116 47.2914 24.5925 47.7723 25.1858 47.7723H32.0533C32.6465 47.7723 33.1275 47.2914 33.1275 46.6982C33.1275 46.1049 32.6465 45.624 32.0533 45.624H25.1858Z" fill="#1D1954"/>
<path fill-rule="evenodd" clip-rule="evenodd" d="M50.5 0C51.0735 0 51.5385 0.483061 51.5385 1.07895C51.5385 20.0391 43.0091 25.7216 38.0734 25.8941C37.5002 25.9142 37.0199 25.4476 37.0006 24.8521C36.9813 24.2565 37.4304 23.7575 38.0036 23.7375C41.3755 23.6196 49.4616 19.4009 49.4616 1.07895C49.4616 0.483061 49.9265 0 50.5 0Z" fill="#1D1954"/>
<path fill-rule="evenodd" clip-rule="evenodd" d="M50.5 0C49.9265 0 49.4616 0.483061 49.4616 1.07895C49.4616 20.0391 57.9909 25.7216 62.9266 25.8941C63.4998 25.9142 63.9801 25.4476 63.9994 24.8521C64.0187 24.2565 63.5696 23.7575 62.9964 23.7375C59.6245 23.6196 51.5385 19.4009 51.5385 1.07895C51.5385 0.483061 51.0735 0 50.5 0Z" fill="#1D1954"/>
<path fill-rule="evenodd" clip-rule="evenodd" d="M50.5 41C51.0735 41 51.5385 40.5169 51.5385 39.9211C51.5385 33.696 49.3439 29.6327 46.4976 27.1309C43.6914 24.6643 40.3354 23.7877 38.0607 23.7371C37.4873 23.7243 37.0125 24.197 37.0002 24.7927C36.988 25.3885 37.4428 25.8817 38.0162 25.8945C39.8954 25.9363 42.7702 26.6811 45.1562 28.7784C47.5023 30.8405 49.4615 34.2836 49.4615 39.9211C49.4615 40.5169 49.9265 41 50.5 41Z" fill="#1D1954"/>
<path fill-rule="evenodd" clip-rule="evenodd" d="M50.5 41C49.9265 41 49.4615 40.5169 49.4615 39.9211C49.4615 33.696 51.6561 29.6327 54.5024 27.1309C57.3086 24.6643 60.6646 23.7877 62.9393 23.7371C63.5127 23.7243 63.9875 24.197 63.9998 24.7927C64.012 25.3885 63.5572 25.8817 62.9838 25.8945C61.1046 25.9363 58.2298 26.6811 55.8438 28.7784C53.4977 30.8405 51.5385 34.2836 51.5385 39.9211C51.5385 40.5169 51.0735 41 50.5 41Z" fill="#1D1954"/>
<path d="M50.5 17C50.5 21.8 49 24.5 46 24.5C49 24.5 50.5 26.5 50.5 29C50.5 26.4286 52 24.5 55 24.5C52 24.5 50.5 21.5 50.5 17Z" fill="#FF5A72"/>
</svg>
