<svg width="65" height="62" viewBox="0 0 65 62" fill="none" xmlns="http://www.w3.org/2000/svg">
<path d="M44.7568 42.9439L48.01 45.8718L52.7039 40.109" stroke="#1D1954" stroke-width="2" stroke-miterlimit="10" stroke-linecap="round" stroke-linejoin="round"/>
<path d="M63.2535 30.2563C54.0051 31.3252 48.2888 26.0271 48.2888 26.0271C48.2888 26.0271 42.5724 31.3252 33.324 30.2563C33.324 30.2563 30.4426 54.7018 48.2888 59.9999C66.135 54.7018 63.2535 30.2563 63.2535 30.2563Z" stroke="#1D1954" stroke-width="2.1" stroke-miterlimit="10" stroke-linecap="round"/>
<path d="M38.1106 15.1522L36.2052 16.9182C35.4616 17.6154 34.4391 17.9871 33.4167 17.9871H28.2581H21.4263C20.4039 17.9871 19.3815 17.6154 18.6379 16.9182L16.7324 15.1522" stroke="#1D1954" stroke-width="2.1" stroke-miterlimit="10" stroke-linecap="round" stroke-linejoin="round"/>
<path d="M37.5996 27.3283V25.934C37.5996 24.5398 38.6221 23.378 40.0163 23.1456L45.4538 22.402" stroke="#1D1954" stroke-width="2.1" stroke-miterlimit="10" stroke-linecap="round"/>
<path d="M8.83203 22.4486L14.2695 23.1922C15.6637 23.3781 16.6862 24.5864 16.6862 25.9807V27.3749H8.83203" stroke="#1D1954" stroke-width="2.1" stroke-miterlimit="10" stroke-linecap="round"/>
<path d="M4.60156 19.1024V32.1152" stroke="#1D1954" stroke-width="2.1" stroke-miterlimit="10" stroke-linecap="round" stroke-linejoin="round"/>
<path d="M4.60255 19.1026L2.41825 16.7324C2.13941 16.5 2 16.1747 2 15.8029V13.2468C2 12.5497 2.5577 11.992 3.25481 11.992H8.18109L12.4567 3.76602C13.2933 2.65064 14.641 2 16.0353 2H27.0962H38.1571C39.5513 2 40.8991 2.65064 41.7356 3.76602L46.0113 11.992H50.9375C51.6347 11.992 52.1923 12.5497 52.1923 13.2468V15.8029C52.1923 16.1747 52.0529 16.5 51.7741 16.7324L49.5898 19.1026V23.5176" stroke="#1D1954" stroke-width="2.1" stroke-miterlimit="10" stroke-linecap="round" stroke-linejoin="round"/>
<path d="M12.5501 32.1156V32.5803C12.5501 34.7646 10.784 36.5307 8.59974 36.5307C6.41544 36.5307 4.64941 34.7646 4.64941 32.5803V32.1156" stroke="#1D1954" stroke-width="2.1" stroke-miterlimit="10" stroke-linecap="round" stroke-linejoin="round"/>
<path d="M30.2567 32.1156H27.933H8.83203" stroke="#1D1954" stroke-width="2.1" stroke-miterlimit="10" stroke-linecap="round" stroke-linejoin="round"/>
<path d="M24.0293 27.3286H30.2569" stroke="#1D1954" stroke-width="2.1" stroke-miterlimit="10" stroke-linecap="round" stroke-linejoin="round"/>
<path d="M38.2038 4.7887H27.1429H16.082C15.6172 4.7887 15.1525 4.97457 14.8272 5.34637L12.2246 10.3191H41.9682L39.3656 5.34637C39.1333 4.97457 38.6685 4.7887 38.2038 4.7887Z" fill="#FF5A72"/>
</svg>
