<svg width="51" height="58" viewBox="0 0 51 58" fill="none" xmlns="http://www.w3.org/2000/svg">
<path fill-rule="evenodd" clip-rule="evenodd" d="M25.0226 6.16196C23.5251 6.2107 22.3759 7.44193 22.4242 8.88262C22.4725 10.3233 23.7016 11.4771 25.199 11.4284C26.6965 11.3797 27.8457 10.1484 27.7974 8.70775C27.7491 7.26706 26.52 6.11323 25.0226 6.16196ZM20.6526 8.94028C20.5706 6.49231 22.5146 4.46707 24.9631 4.38738C27.4116 4.30769 29.487 6.20213 29.569 8.65009C29.651 11.0981 27.707 13.1233 25.2585 13.203C22.81 13.2827 20.7346 11.3882 20.6526 8.94028Z" fill="#1D1954"/>
<path fill-rule="evenodd" clip-rule="evenodd" d="M28.0127 8.76873C28.0127 8.27844 28.4095 7.88098 28.8989 7.88098H38.4152C38.9047 7.88098 39.3015 8.27844 39.3015 8.76873C39.3015 9.25903 38.9047 9.65649 38.4152 9.65649H28.8989C28.4095 9.65649 28.0127 9.25903 28.0127 8.76873Z" fill="#1D1954"/>
<path fill-rule="evenodd" clip-rule="evenodd" d="M19.0327 43.28H31.1703V55.2702H19.0327V43.28ZM20.8052 45.0555V53.4947H29.3979V45.0555H20.8052Z" fill="#1D1954"/>
<path fill-rule="evenodd" clip-rule="evenodd" d="M21.5342 42.1422C21.5342 40.2393 23.0963 38.6571 25.056 38.6571H25.2347C27.13 38.6571 28.7565 40.1758 28.7565 42.1422V44.1671H26.984V42.1422C26.984 41.203 26.1983 40.4326 25.2347 40.4326H25.056C24.0674 40.4326 23.3066 41.2276 23.3066 42.1422V44.1671H21.5342V42.1422Z" fill="#1D1954"/>
<path fill-rule="evenodd" clip-rule="evenodd" d="M24.2153 12.2469H25.9878V39.5446H24.2153V12.2469Z" fill="#1D1954"/>
<path fill-rule="evenodd" clip-rule="evenodd" d="M43.7315 1.7755C43.135 1.7755 42.6966 2.22821 42.6966 2.78094V14.7127C42.6966 15.2654 43.135 15.7181 43.7315 15.7181H47.3951C47.9333 15.7181 48.3853 15.279 48.3853 14.7127V2.78094C48.3853 2.22821 47.947 1.7755 47.3504 1.7755H43.7315ZM40.9242 2.78094C40.9242 1.22031 42.1836 0 43.7315 0H47.3504C48.8984 0 50.1578 1.22031 50.1578 2.78094V14.7127C50.1578 16.2598 48.912 17.4936 47.3951 17.4936H43.7315C42.1836 17.4936 40.9242 16.2733 40.9242 14.7127V2.78094Z" fill="#1D1954"/>
<path fill-rule="evenodd" clip-rule="evenodd" d="M38.416 50.163H30.2847V48.3875H38.416V50.163Z" fill="#1D1954"/>
<path fill-rule="evenodd" clip-rule="evenodd" d="M37.5293 8.76882C37.5293 6.36425 39.5111 4.49084 41.8557 4.49084C42.3451 4.49084 42.7419 4.8883 42.7419 5.3786C42.7419 5.86889 42.3451 6.26635 41.8557 6.26635C40.4474 6.26635 39.3017 7.38694 39.3017 8.76882C39.3017 10.1215 40.4178 11.2712 41.8557 11.2712C42.3451 11.2712 42.7419 11.6687 42.7419 12.159C42.7419 12.6493 42.3451 13.0467 41.8557 13.0467C39.4513 13.0467 37.5293 11.1145 37.5293 8.76882Z" fill="#1D1954"/>
<path d="M46.5019 11.0582V4.58602C46.5019 4.05768 46.0552 3.66138 45.5637 3.66138C45.0276 3.66138 44.6255 4.1017 44.6255 4.58602V11.6746C45.1616 11.3664 45.8318 11.1462 46.5019 11.0582Z" fill="#FF5A72"/>
<path fill-rule="evenodd" clip-rule="evenodd" d="M43.7317 42.282C43.1351 42.282 42.6968 42.7347 42.6968 43.2874V55.2192C42.6968 55.7719 43.1351 56.2246 43.7317 56.2246H47.3952C47.9335 56.2246 48.3855 55.7855 48.3855 55.2192V43.2874C48.3855 42.7347 47.9471 42.282 47.3505 42.282H43.7317ZM40.9243 43.2874C40.9243 41.7268 42.1837 40.5065 43.7317 40.5065H47.3505C48.8985 40.5065 50.1579 41.7268 50.1579 43.2874V55.2192C50.1579 56.7662 48.9122 58.0001 47.3952 58.0001H43.7317C42.1837 58.0001 40.9243 56.7798 40.9243 55.2192V43.2874Z" fill="#1D1954"/>
<path fill-rule="evenodd" clip-rule="evenodd" d="M37.5293 49.275C37.5293 46.8705 39.5111 44.9971 41.8557 44.9971C42.3451 44.9971 42.7419 45.3945 42.7419 45.8848C42.7419 46.3751 42.3451 46.7726 41.8557 46.7726C40.4474 46.7726 39.3017 47.8932 39.3017 49.275C39.3017 50.6278 40.4178 51.7775 41.8557 51.7775C42.3451 51.7775 42.7419 52.1749 42.7419 52.6652C42.7419 53.1555 42.3451 53.553 41.8557 53.553C39.4513 53.553 37.5293 51.6207 37.5293 49.275Z" fill="#1D1954"/>
<path d="M46.5019 51.6085V45.1364C46.5019 44.608 46.0552 44.2118 45.5637 44.2118C45.0276 44.2118 44.6255 44.6521 44.6255 45.1364V52.225C45.1616 51.8727 45.8318 51.6526 46.5019 51.6085Z" fill="#FF5A72"/>
<path fill-rule="evenodd" clip-rule="evenodd" d="M10.9009 8.76873C10.9009 8.27844 11.2977 7.88098 11.7871 7.88098H21.5268C22.0162 7.88098 22.413 8.27844 22.413 8.76873C22.413 9.25903 22.0162 9.65649 21.5268 9.65649H11.7871C11.2977 9.65649 10.9009 9.25903 10.9009 8.76873Z" fill="#1D1954"/>
<path fill-rule="evenodd" clip-rule="evenodd" d="M0.000488281 2.78119C0.000488281 1.22056 1.25987 0.000244141 2.80784 0.000244141H6.42672C7.97468 0.000244141 9.23406 1.22056 9.23406 2.78119V14.7129C9.23406 16.2736 7.97468 17.4939 6.42672 17.4939H2.80784C1.31808 17.4939 0.000488281 16.2868 0.000488281 14.7129V2.78119ZM2.80784 1.77575C2.21128 1.77575 1.77293 2.22845 1.77293 2.78119V14.7129C1.77293 15.2525 2.24243 15.7184 2.80784 15.7184H6.42672C7.02327 15.7184 7.46162 15.2657 7.46162 14.7129V2.78119C7.46162 2.22845 7.02327 1.77575 6.42672 1.77575H2.80784Z" fill="#1D1954"/>
<path fill-rule="evenodd" clip-rule="evenodd" d="M11.7871 48.3875H19.9184V50.163H11.7871V48.3875Z" fill="#1D1954"/>
<path fill-rule="evenodd" clip-rule="evenodd" d="M7.46045 5.3786C7.46045 4.8883 7.85722 4.49084 8.34667 4.49084C10.6913 4.49084 12.6731 6.36425 12.6731 8.76882C12.6731 11.1145 10.7511 13.0467 8.34667 13.0467C7.85722 13.0467 7.46045 12.6493 7.46045 12.159C7.46045 11.6687 7.85722 11.2712 8.34667 11.2712C9.78455 11.2712 10.9006 10.1215 10.9006 8.76882C10.9006 7.38694 9.75496 6.26635 8.34667 6.26635C7.85722 6.26635 7.46045 5.86889 7.46045 5.3786Z" fill="#1D1954"/>
<path d="M3.70068 11.0582V4.58602C3.70068 4.05768 4.14746 3.66138 4.63891 3.66138C5.17504 3.66138 5.57714 4.1017 5.57714 4.58602V11.6746C5.04101 11.3664 4.37085 11.1462 3.70068 11.0582Z" fill="#FF5A72"/>
<path fill-rule="evenodd" clip-rule="evenodd" d="M0 43.2872C0 41.7265 1.25938 40.5062 2.80735 40.5062H6.42623C7.97419 40.5062 9.23358 41.7265 9.23358 43.2872V55.2189C9.23358 56.7796 7.97419 57.9999 6.42623 57.9999H2.80735C1.31759 57.9999 0 56.7928 0 55.2189V43.2872ZM2.80735 42.2817C2.21079 42.2817 1.77244 42.7344 1.77244 43.2872V55.2189C1.77244 55.7584 2.24194 56.2244 2.80735 56.2244H6.42623C7.02279 56.2244 7.46114 55.7717 7.46114 55.2189V43.2872C7.46114 42.7344 7.02279 42.2817 6.42623 42.2817H2.80735Z" fill="#1D1954"/>
<path fill-rule="evenodd" clip-rule="evenodd" d="M7.46045 45.8848C7.46045 45.3945 7.85722 44.9971 8.34667 44.9971C10.6913 44.9971 12.6731 46.8705 12.6731 49.275C12.6731 51.6207 10.7511 53.553 8.34667 53.553C7.85722 53.553 7.46045 53.1555 7.46045 52.6652C7.46045 52.1749 7.85722 51.7775 8.34667 51.7775C9.78455 51.7775 10.9006 50.6278 10.9006 49.275C10.9006 47.8932 9.75496 46.7726 8.34667 46.7726C7.85722 46.7726 7.46045 46.3751 7.46045 45.8848Z" fill="#1D1954"/>
<path d="M3.70068 51.6085V45.1364C3.70068 44.608 4.14746 44.2118 4.63891 44.2118C5.17504 44.2118 5.57714 44.6521 5.57714 45.1364V52.225C5.04101 51.8727 4.37085 51.6526 3.70068 51.6085Z" fill="#FF5A72"/>
</svg>
