<svg width="58" height="60" viewBox="0 0 58 60" fill="none" xmlns="http://www.w3.org/2000/svg">
<path fill-rule="evenodd" clip-rule="evenodd" d="M42.3449 39.665V31.1152H43.9566V39.665H42.3449Z" fill="#1D1954"/>
<path fill-rule="evenodd" clip-rule="evenodd" d="M5.08082 6.385C4.32606 5.72288 4.29768 4.5855 5.01855 3.88901L6.45665 2.49954C7.20681 1.77475 8.44183 1.83846 9.10786 2.63629L10.7927 4.65454L12.9954 2.52629C15.306 0.293812 18.5597 0.698703 20.4512 2.5263L23.5545 5.52466C24.2515 6.19807 24.2515 7.2899 23.5545 7.96331L23.3462 8.16458L34.2734 18.8301C34.9644 19.5045 34.9615 20.5916 34.267 21.2626L24.2945 30.8978C23.5975 31.5713 22.4675 31.5713 21.7705 30.8978L10.7939 20.2924L10.5261 20.5512C9.82911 21.2246 8.69907 21.2246 8.00208 20.5512L4.89877 17.5528C3.88957 16.5777 3.50531 15.1537 3.53717 13.8504C3.56887 12.5537 4.01654 11.2015 4.89877 10.3491L7.13579 8.18775L5.08082 6.385ZM9.74237 7.7596L5.98049 11.3943C5.46041 11.8967 5.0922 12.8355 5.06653 13.8853C5.04103 14.9283 5.35792 15.9061 5.98049 16.5077L9.0838 19.506C9.18337 19.6022 9.3448 19.6022 9.44437 19.506L22.4728 6.91818C22.5724 6.82197 22.5724 6.666 22.4728 6.5698L19.3695 3.57143C17.9975 2.24586 15.7154 1.9886 14.0771 3.57143L10.3153 7.20609C10.3151 7.20621 10.3154 7.20597 10.3153 7.20609L9.74237 7.7596C9.74249 7.75948 9.74224 7.75972 9.74237 7.7596ZM9.70477 5.70565L7.91712 3.56422C7.82197 3.45024 7.64554 3.44114 7.53837 3.54468L6.10027 4.93415C5.99729 5.03365 6.00134 5.19613 6.10916 5.29072L8.21877 7.1414L9.70477 5.70565ZM11.8756 19.2473L22.8522 29.8527C22.9518 29.9489 23.1132 29.9489 23.2128 29.8527L33.1853 20.2174C33.2845 20.1216 33.2849 19.9663 33.1862 19.8699L22.2645 9.20974L11.8756 19.2473Z" fill="#1D1954"/>
<path fill-rule="evenodd" clip-rule="evenodd" d="M5.24717 32.0851C5.59788 31.7801 6.04188 31.7475 6.33253 31.7475H44.5768C45.5625 31.7475 46.3615 32.5196 46.3615 33.4719V39.6305C46.3615 40.5828 45.5625 41.3549 44.5768 41.3549H27.5726C28.5678 44.2811 28.769 47.7614 28.769 49.9768C28.769 51.3224 28.4203 52.2826 27.7801 52.9012C27.1399 53.5198 26.3373 53.6719 25.7095 53.6719C25.1406 53.6719 24.2156 53.607 23.4805 52.808C22.7818 52.0486 22.3949 50.7741 22.3949 48.7451C22.3949 45.7262 21.4127 43.2522 20.9585 42.4478C20.8896 42.3257 20.8099 42.1904 20.7253 42.0466C20.5977 41.8301 20.4588 41.5942 20.328 41.3549H17.5506C17.3528 41.3549 17.2938 41.363 17.2798 41.3661C17.2696 41.3733 17.1585 41.459 16.986 41.8757L16.9794 41.8915L14.4505 47.267H16.2758C16.4832 47.267 16.7772 47.3211 17.0414 47.5049C17.3446 47.7158 17.5506 48.0608 17.5506 48.4988V52.4402C17.5506 52.6406 17.4947 52.9247 17.3045 53.18C17.0862 53.4729 16.729 53.6719 16.2758 53.6719H11.3944C11.3815 53.6966 11.3671 53.7244 11.3507 53.7561L11.3345 53.7875L8.75961 57.7679L8.75337 57.777C7.97357 58.9071 5.65037 59.7419 3.12544 57.998C3.10952 57.987 3.09361 57.9759 3.0777 57.9647C3.04454 57.9414 3.01389 57.916 2.98579 57.8889C2.49307 57.484 1.87722 56.812 1.4633 55.9712C1.01298 55.0565 0.778905 53.8872 1.28762 52.6584C1.79625 51.4299 2.68992 49.3982 3.40705 47.7679C3.83341 46.7986 4.19736 45.9712 4.38088 45.5389C4.54116 45.1612 4.98794 44.9806 5.37879 45.1355C5.76964 45.2903 5.95656 45.722 5.79628 46.0996C5.5957 46.5722 5.21996 47.4261 4.78613 48.412C4.07868 50.0197 3.21675 51.9785 2.70799 53.2074C2.40082 53.9493 2.52092 54.6785 2.84477 55.3364C3.16969 55.9964 3.67641 56.5288 4.03218 56.8073C5.93372 58.1105 7.23032 57.3055 7.47573 56.9639L9.99826 53.0643C10.0002 53.0605 10.0022 53.0566 10.0042 53.0527C10.081 52.9029 10.1919 52.6867 10.3386 52.5321C10.4451 52.4198 10.5819 52.3213 10.7566 52.2599C10.9174 52.2034 11.0676 52.1939 11.1765 52.1939H16.0208V48.7451H14.2361C13.6996 48.7451 13.2389 48.4708 13.0101 48.0286C12.7929 47.6088 12.8237 47.1216 13.0349 46.7042L15.5724 41.3104C15.793 40.7819 16.0595 40.3599 16.4696 40.1123C16.8645 39.8738 17.2812 39.8757 17.5105 39.8767C17.5246 39.8767 17.538 39.8768 17.5506 39.8768H19.729C19.6568 39.5476 19.6305 39.2012 19.6836 38.8475C19.8045 38.0422 20.3108 37.3485 21.2194 36.7899C21.9423 36.3454 22.6884 36.2278 23.4017 36.379C24.089 36.5246 24.6801 36.905 25.1624 37.3429C25.9605 38.0675 26.5814 39.0595 26.9759 39.8768H44.5768C44.7176 39.8768 44.8317 39.7665 44.8317 39.6305V33.4719C44.8317 33.3359 44.7176 33.2256 44.5768 33.2256H15.2586L13.6582 36.9807L13.6457 37.0049C13.5007 37.2852 13.3068 37.5806 12.9773 37.7542C12.6812 37.9103 12.369 37.9075 12.2272 37.9063C12.2159 37.9062 12.2057 37.9061 12.1967 37.9061H10.382C10.3805 37.9084 10.3789 37.9107 10.3773 37.9131C10.3559 37.9452 10.3399 37.9735 10.3312 37.9902L10.3099 38.0314L9.79869 38.7723C9.56228 39.2161 9.28273 39.5392 8.92193 39.7199C8.58402 39.8892 8.25321 39.8803 8.14319 39.8773C8.13233 39.877 8.12363 39.8768 8.11727 39.8768H6.07723C5.70446 39.8768 5.32891 39.7561 5.07172 39.445C4.84078 39.1657 4.80274 38.8465 4.80274 38.6451V33.2256C4.80274 32.8557 4.8777 32.4063 5.24717 32.0851ZM13.6042 33.2256H6.33253V38.3988H8.11727C8.17586 38.3988 8.21008 38.3983 8.22864 38.3981C8.26095 38.3696 8.34122 38.2842 8.45299 38.0683L8.47429 38.0271L8.98732 37.2836C9.05238 37.1655 9.15215 37.0107 9.27747 36.8699C9.34876 36.7898 9.44752 36.6924 9.57283 36.61C9.69319 36.5308 9.89536 36.428 10.157 36.428H12.1967C12.2093 36.428 12.2207 36.428 12.2312 36.428C12.2412 36.411 12.2528 36.3906 12.2657 36.3662L13.6042 33.2256ZM11.1725 53.672C11.1725 53.672 11.1733 53.6719 11.175 53.6719L11.1725 53.672ZM17.2762 41.3672C17.2758 41.3672 17.2769 41.3667 17.2798 41.3661C17.2782 41.3669 17.2765 41.3673 17.2762 41.3672ZM23.074 37.8227C22.775 37.7593 22.4396 37.7916 22.0407 38.0369C21.4138 38.4223 21.2401 38.7765 21.1975 39.0597C21.1481 39.3888 21.249 39.7926 21.4949 40.305C21.6499 40.6279 21.8273 40.9287 22.0152 41.2473C22.1086 41.4055 22.2045 41.5681 22.3015 41.74C22.8672 42.742 23.9247 45.4576 23.9247 48.7451C23.9247 50.6575 24.3027 51.4769 24.6239 51.8261C24.9087 52.1356 25.2584 52.1939 25.7095 52.1939C26.1015 52.1939 26.4462 52.0997 26.6984 51.8561C26.9505 51.6124 27.2392 51.0946 27.2392 49.9768C27.2392 47.5304 26.9816 43.7135 25.7683 40.9001L25.7662 40.8952L25.7642 40.8903C25.4468 40.1237 24.8488 39.0864 24.1148 38.42C23.7515 38.0901 23.3992 37.8916 23.074 37.8227Z" fill="#1D1954"/>
<path d="M7.28164 42.9371C7.28164 43.3861 6.90494 43.75 6.44025 43.75C5.97557 43.75 5.59887 43.3861 5.59887 42.9371C5.59887 42.4881 5.97557 42.1242 6.44025 42.1242C6.90494 42.1242 7.28164 42.4881 7.28164 42.9371Z" fill="#1D1954"/>
<path fill-rule="evenodd" clip-rule="evenodd" d="M1.4881 35.9353C1.4881 35.5271 1.83056 35.1963 2.253 35.1963H5.56753C5.98997 35.1963 6.33242 35.5271 6.33242 35.9353C6.33242 36.3434 5.98997 36.6743 5.56753 36.6743H2.253C1.83056 36.6743 1.4881 36.3434 1.4881 35.9353Z" fill="#1D1954"/>
<path fill-rule="evenodd" clip-rule="evenodd" d="M38.1646 33.0013L29.7507 24.6257L30.8485 23.5963L39.2623 31.9719L38.1646 33.0013Z" fill="#1D1954"/>
<path fill-rule="evenodd" clip-rule="evenodd" d="M31.7975 33.0092L26.4433 27.836L27.525 26.7909L32.8792 31.9641L31.7975 33.0092Z" fill="#1D1954"/>
<path fill-rule="evenodd" clip-rule="evenodd" d="M54.7258 29.758C54.8774 30.1389 54.6807 30.5665 54.2864 30.713L50.9719 31.9447C50.5776 32.0912 50.1351 31.9012 49.9834 31.5203C49.8318 31.1393 50.0285 30.7117 50.4228 30.5652L53.7373 29.3335C54.1316 29.187 54.5741 29.377 54.7258 29.758Z" fill="#1D1954"/>
<path fill-rule="evenodd" clip-rule="evenodd" d="M57 37.0007C56.9972 37.4089 56.6525 37.7375 56.23 37.7348L52.6789 37.712C52.2564 37.7093 51.9163 37.3763 51.9191 36.9681C51.9219 36.56 52.2666 36.2313 52.689 36.234L56.2402 36.2568C56.6626 36.2595 57.0028 36.5926 57 37.0007Z" fill="#1D1954"/>
<path fill-rule="evenodd" clip-rule="evenodd" d="M54.8079 43.3163C54.6184 43.681 54.1586 43.8282 53.7811 43.6451L50.6075 42.1054C50.23 41.9222 50.0776 41.4781 50.2672 41.1133C50.4568 40.7486 50.9165 40.6014 51.294 40.7845L54.4676 42.3242C54.8451 42.5074 54.9975 42.9515 54.8079 43.3163Z" fill="#1D1954"/>
<path d="M5.01855 3.88901L5.15751 4.03285L5.01855 3.88901ZM5.08082 6.385L4.94892 6.53535L5.08082 6.385ZM6.45665 2.49954L6.59562 2.64337L6.45665 2.49954ZM9.10786 2.63629L8.95432 2.76446V2.76446L9.10786 2.63629ZM10.7927 4.65454L10.6391 4.78271L10.777 4.94781L10.9316 4.79837L10.7927 4.65454ZM12.9954 2.52629L12.8564 2.38246L12.9954 2.52629ZM20.4512 2.5263L20.3123 2.67013L20.4512 2.5263ZM23.5545 5.52466L23.6935 5.38083L23.5545 5.52466ZM23.5545 7.96331L23.6935 8.10715V8.10715L23.5545 7.96331ZM23.3462 8.16458L23.2073 8.02075L23.0591 8.16385L23.2065 8.30771L23.3462 8.16458ZM34.2734 18.8301L34.1337 18.9732L34.2734 18.8301ZM34.267 21.2626L34.1281 21.1187L34.267 21.2626ZM24.2945 30.8978L24.1555 30.754L24.2945 30.8978ZM21.7705 30.8978L21.6315 31.0417L21.7705 30.8978ZM10.7939 20.2924L10.9328 20.1486L10.7939 20.0143L10.6549 20.1486L10.7939 20.2924ZM10.5261 20.5512L10.3871 20.4073H10.3871L10.5261 20.5512ZM8.00208 20.5512L8.14105 20.4073L8.00208 20.5512ZM4.89877 17.5528L4.7598 17.6966L4.89877 17.5528ZM3.53717 13.8504L3.33723 13.8455L3.53717 13.8504ZM4.89877 10.3491L5.03774 10.493L4.89877 10.3491ZM7.13579 8.18775L7.27476 8.33158L7.43097 8.18065L7.26768 8.0374L7.13579 8.18775ZM5.98049 11.3943L5.84152 11.2504L5.98049 11.3943ZM5.06653 13.8853L5.26647 13.8902L5.06653 13.8853ZM5.98049 16.5077L5.84152 16.6515L5.98049 16.5077ZM9.0838 19.506L9.22277 19.3622L9.0838 19.506ZM9.44437 19.506L9.58334 19.6499L9.44437 19.506ZM22.4728 6.91818L22.3339 6.77434L22.4728 6.91818ZM22.4728 6.5698L22.3339 6.71363L22.4728 6.5698ZM19.3695 3.57143L19.5085 3.4276L19.3695 3.57143ZM14.0771 3.57143L13.9382 3.4276L14.0771 3.57143ZM10.3153 7.20609L10.4542 7.34993L10.3153 7.20609ZM7.91712 3.56422L8.07065 3.43605L7.91712 3.56422ZM9.70477 5.70565L9.84374 5.84948L9.97749 5.72026L9.8583 5.57748L9.70477 5.70565ZM7.53837 3.54468L7.39941 3.40085L7.53837 3.54468ZM6.10027 4.93415L6.23923 5.07799L6.10027 4.93415ZM6.10916 5.29072L5.97727 5.44107H5.97727L6.10916 5.29072ZM8.21877 7.1414L8.08688 7.29174L8.22531 7.41318L8.35774 7.28523L8.21877 7.1414ZM22.8522 29.8527L22.9912 29.7089L22.8522 29.8527ZM11.8756 19.2473L11.7366 19.1035L11.5878 19.2473L11.7366 19.3911L11.8756 19.2473ZM23.2128 29.8527L23.3518 29.9965L23.2128 29.8527ZM33.1853 20.2174L33.0463 20.0736L33.1853 20.2174ZM33.1862 19.8699L33.0465 20.0131L33.0465 20.0131L33.1862 19.8699ZM22.2645 9.20974L22.4042 9.06661L22.2652 8.93095L22.1255 9.0659L22.2645 9.20974ZM5.24717 32.0851L5.37841 32.236L5.24717 32.0851ZM27.5726 41.3549V41.1549H27.2934L27.3833 41.4192L27.5726 41.3549ZM23.4805 52.808L23.6277 52.6726L23.4805 52.808ZM20.9585 42.4478L20.7844 42.5461L20.9585 42.4478ZM20.7253 42.0466L20.8976 41.9451L20.7253 42.0466ZM20.328 41.3549L20.5035 41.2589L20.4466 41.1549H20.328V41.3549ZM17.2798 41.3661L17.2364 41.1708L17.2356 41.171L17.2798 41.3661ZM16.986 41.8757L17.1708 41.9522L17.1708 41.9522L16.986 41.8757ZM16.9794 41.8915L17.1606 41.9767L17.1642 41.968L16.9794 41.8915ZM14.4505 47.267L14.2695 47.1819L14.1353 47.467H14.4505V47.267ZM17.0414 47.5049L16.9272 47.669H16.9272L17.0414 47.5049ZM17.3045 53.18L17.1441 53.0604L17.3045 53.18ZM11.3944 53.6719V53.4719H11.2732L11.2171 53.5794L11.3944 53.6719ZM11.3507 53.7561L11.5283 53.848L11.5283 53.848L11.3507 53.7561ZM11.3345 53.7875L11.5024 53.8961L11.5076 53.888L11.5121 53.8794L11.3345 53.7875ZM8.75961 57.7679L8.9243 57.8816L8.92754 57.8766L8.75961 57.7679ZM8.75337 57.777L8.91798 57.8906L8.91799 57.8906L8.75337 57.777ZM3.12544 57.998L3.2391 57.8334L3.2391 57.8334L3.12544 57.998ZM3.0777 57.9647L2.96272 58.1284L2.96272 58.1284L3.0777 57.9647ZM2.98579 57.8889L3.12482 57.7451L3.11901 57.7395L3.11276 57.7343L2.98579 57.8889ZM1.4633 55.9712L1.64274 55.8829L1.4633 55.9712ZM1.28762 52.6584L1.10283 52.5819H1.10283L1.28762 52.6584ZM3.40705 47.7679L3.22398 47.6874L3.40705 47.7679ZM4.38088 45.5389L4.19678 45.4607L4.38088 45.5389ZM5.37879 45.1355L5.30512 45.3214H5.30512L5.37879 45.1355ZM5.79628 46.0996L5.61218 46.0215L5.79628 46.0996ZM4.78613 48.412L4.60307 48.3314L4.78613 48.412ZM2.70799 53.2074L2.89278 53.2839H2.89278L2.70799 53.2074ZM2.84477 55.3364L2.66534 55.4247L2.84477 55.3364ZM4.03218 56.8073L3.90864 56.9651L3.91911 56.9723L4.03218 56.8073ZM7.47573 56.9639L7.63835 57.0807L7.64366 57.0725L7.47573 56.9639ZM9.99826 53.0643L10.1662 53.173L10.1716 53.1645L10.1762 53.1556L9.99826 53.0643ZM10.0042 53.0527L9.82624 52.9615L9.82623 52.9615L10.0042 53.0527ZM10.3386 52.5321L10.1935 52.3944L10.3386 52.5321ZM10.7566 52.2599L10.8228 52.4486H10.8229L10.7566 52.2599ZM16.0208 52.1939V52.3939H16.2208V52.1939H16.0208ZM16.0208 48.7451H16.2208V48.5451H16.0208V48.7451ZM13.0101 48.0286L13.1878 47.9367L13.0101 48.0286ZM13.0349 46.7042L13.2134 46.7945L13.2158 46.7893L13.0349 46.7042ZM15.5724 41.3104L15.7535 41.3956L15.7569 41.3875L15.5724 41.3104ZM16.4696 40.1123L16.3662 39.9411L16.4696 40.1123ZM17.5105 39.8767L17.5114 39.6767H17.5114L17.5105 39.8767ZM19.729 39.8768V40.0768H19.9776L19.9243 39.834L19.729 39.8768ZM19.6836 38.8475L19.8814 38.8772V38.8772L19.6836 38.8475ZM21.2194 36.7899L21.1146 36.6195L21.2194 36.7899ZM23.4017 36.379L23.3603 36.5746L23.4017 36.379ZM25.1624 37.3429L25.028 37.491H25.028L25.1624 37.3429ZM26.9759 39.8768L26.7958 39.9637L26.8504 40.0768H26.9759V39.8768ZM15.2586 33.2256V33.0256H15.1264L15.0746 33.1472L15.2586 33.2256ZM13.6582 36.9807L13.8358 37.0726L13.8393 37.066L13.8422 37.0591L13.6582 36.9807ZM13.6457 37.0049L13.4681 36.9129H13.4681L13.6457 37.0049ZM12.9773 37.7542L13.0705 37.9312L12.9773 37.7542ZM12.2272 37.9063L12.2289 37.7063H12.2289L12.2272 37.9063ZM10.382 37.9061V37.7061H10.276L10.2165 37.7938L10.382 37.9061ZM10.3773 37.9131L10.5438 38.0239L10.5438 38.0239L10.3773 37.9131ZM10.3312 37.9902L10.1536 37.8983L10.1536 37.8983L10.3312 37.9902ZM10.3099 38.0314L10.4745 38.145L10.4817 38.1345L10.4875 38.1233L10.3099 38.0314ZM9.79869 38.7723L9.63407 38.6587L9.62756 38.6681L9.62216 38.6783L9.79869 38.7723ZM8.92193 39.7199L8.83235 39.5411L8.92193 39.7199ZM8.14319 39.8773L8.14859 39.6774L8.14319 39.8773ZM5.07172 39.445L4.91757 39.5725L5.07172 39.445ZM6.33253 33.2256V33.0256H6.13253V33.2256H6.33253ZM13.6042 33.2256L13.7882 33.304L13.9068 33.0256H13.6042V33.2256ZM6.33253 38.3988H6.13253V38.5988H6.33253V38.3988ZM8.22864 38.3981L8.23064 38.5981L8.30519 38.5974L8.36106 38.548L8.22864 38.3981ZM8.45299 38.0683L8.63061 38.1602H8.63062L8.45299 38.0683ZM8.47429 38.0271L8.30967 37.9135L8.30248 37.9239L8.29666 37.9352L8.47429 38.0271ZM8.98732 37.2836L9.15193 37.3972L9.15765 37.3889L9.1625 37.3801L8.98732 37.2836ZM9.27747 36.8699L9.42687 37.0029L9.27747 36.8699ZM9.57283 36.61L9.46294 36.4429L9.57283 36.61ZM12.2312 36.428L12.2316 36.628L12.3454 36.6278L12.4033 36.5298L12.2312 36.428ZM12.2657 36.3662L12.4422 36.4602L12.4463 36.4526L12.4497 36.4446L12.2657 36.3662ZM8.01848 38.4574C8.04441 38.5648 8.15248 38.6308 8.25985 38.6049C8.36722 38.579 8.43324 38.4709 8.40731 38.3635L8.01848 38.4574ZM8.31429 38.5828C8.40987 38.5275 8.44246 38.4051 8.38709 38.3095C8.33172 38.2139 8.20935 38.1814 8.11378 38.2367L8.31429 38.5828ZM6.46907 38.8055C6.55015 38.7305 6.55507 38.604 6.48005 38.5229C6.40504 38.4418 6.2785 38.4369 6.19742 38.5119L6.46907 38.8055ZM6.53249 38.6442C6.52784 38.5339 6.43461 38.4482 6.32425 38.4528C6.21389 38.4575 6.1282 38.5507 6.13285 38.6611L6.53249 38.6442ZM11.1725 53.672L11.0855 53.8521L11.1296 53.8734L11.1787 53.8719L11.1725 53.672ZM11.175 53.6719L11.1811 53.8718L11.173 53.4719L11.175 53.6719ZM14.3911 47.6073C14.5015 47.6073 14.5911 47.5178 14.5911 47.4073C14.5911 47.2969 14.5015 47.2073 14.3911 47.2073V47.6073ZM14.5903 47.4222C14.6001 47.3122 14.5188 47.215 14.4088 47.2052C14.2988 47.1955 14.2017 47.2767 14.1919 47.3867L14.5903 47.4222ZM17.2762 41.3672L17.2459 41.5649L17.2461 41.565L17.2762 41.3672ZM22.0407 38.0369L22.1454 38.2072L22.0407 38.0369ZM23.074 37.8227L23.1155 37.6271L23.074 37.8227ZM21.1975 39.0597L21.3953 39.0894L21.1975 39.0597ZM21.4949 40.305L21.6752 40.2184L21.4949 40.305ZM22.0152 41.2473L21.843 41.3489L22.0152 41.2473ZM22.3015 41.74L22.4757 41.6417H22.4757L22.3015 41.74ZM24.6239 51.8261L24.4767 51.9615L24.6239 51.8261ZM25.7683 40.9001L25.5846 40.9792L25.5846 40.9793L25.7683 40.9001ZM25.7662 40.8952L25.5814 40.9717L25.5825 40.9743L25.7662 40.8952ZM25.7642 40.8903L25.5794 40.9668L25.5794 40.9668L25.7642 40.8903ZM24.1148 38.42L24.2493 38.2719L24.1148 38.42ZM29.7507 24.6257L29.6139 24.4798L29.4629 24.6214L29.6096 24.7674L29.7507 24.6257ZM38.1646 33.0013L38.0235 33.1431L38.1604 33.2794L38.3014 33.1472L38.1646 33.0013ZM30.8485 23.5963L30.9896 23.4545L30.8526 23.3182L30.7117 23.4504L30.8485 23.5963ZM39.2623 31.9719L39.3991 32.1178L39.5501 31.9762L39.4034 31.8301L39.2623 31.9719ZM26.4433 27.836L26.3043 27.6922L26.1554 27.836L26.3043 27.9799L26.4433 27.836ZM31.7975 33.0092L31.6585 33.153L31.7975 33.2873L31.9365 33.153L31.7975 33.0092ZM27.525 26.7909L27.6639 26.6471L27.525 26.5128L27.386 26.6471L27.525 26.7909ZM32.8792 31.9641L33.0182 32.1079L33.1671 31.9641L33.0182 31.8202L32.8792 31.9641ZM54.2864 30.713L54.2168 30.5255L54.2864 30.713ZM54.7258 29.758L54.54 29.8319L54.7258 29.758ZM50.9719 31.9447L51.0416 32.1322L50.9719 31.9447ZM49.9834 31.5203L49.7976 31.5942L49.9834 31.5203ZM50.4228 30.5652L50.4924 30.7527L50.4228 30.5652ZM53.7373 29.3335L53.6676 29.146L53.7373 29.3335ZM56.23 37.7348L56.2287 37.9348L56.23 37.7348ZM57 37.0007L56.8 36.9994L57 37.0007ZM52.6789 37.712L52.6776 37.912L52.6789 37.712ZM51.9191 36.9681L51.7191 36.9667L51.9191 36.9681ZM52.689 36.234L52.6877 36.434L52.689 36.234ZM56.2402 36.2568L56.2415 36.0568L56.2402 36.2568ZM53.7811 43.6451L53.6938 43.825L53.7811 43.6451ZM54.8079 43.3163L54.6305 43.224L54.8079 43.3163ZM50.6075 42.1054L50.5202 42.2853L50.6075 42.1054ZM50.2672 41.1133L50.0897 41.0211L50.2672 41.1133ZM51.294 40.7845L51.2067 40.9645L51.294 40.7845ZM54.4676 42.3242L54.5549 42.1443L54.4676 42.3242ZM4.87958 3.74518C4.07435 4.52318 4.10651 5.79634 4.94892 6.53535L5.21271 6.23466C4.54561 5.64943 4.52102 4.64782 5.15751 4.03285L4.87958 3.74518ZM6.31769 2.35571L4.87958 3.74518L5.15751 4.03285L6.59562 2.64337L6.31769 2.35571ZM9.26139 2.50812C8.52042 1.62052 7.15084 1.55073 6.31769 2.35571L6.59562 2.64337C7.26279 1.99877 8.36324 2.0564 8.95432 2.76446L9.26139 2.50812ZM10.9462 4.52637L9.26139 2.50812L8.95432 2.76446L10.6391 4.78271L10.9462 4.52637ZM12.8564 2.38246L10.6537 4.51071L10.9316 4.79837L13.1344 2.67013L12.8564 2.38246ZM20.5902 2.38246C18.6314 0.489905 15.2545 0.065546 12.8564 2.38246L13.1344 2.67013C15.3576 0.522078 18.4879 0.907501 20.3123 2.67013L20.5902 2.38246ZM23.6935 5.38083L20.5902 2.38246L20.3123 2.67013L23.4156 5.66849L23.6935 5.38083ZM23.6935 8.10715C24.4719 7.35511 24.4719 6.13286 23.6935 5.38083L23.4156 5.66849C24.0312 6.26328 24.0312 7.22469 23.4156 7.81948L23.6935 8.10715ZM23.4852 8.30842L23.6935 8.10715L23.4156 7.81948L23.2073 8.02075L23.4852 8.30842ZM34.4131 18.687L23.4859 8.02146L23.2065 8.30771L34.1337 18.9732L34.4131 18.687ZM34.406 21.4064C35.1816 20.6571 35.1848 19.4402 34.4131 18.687L34.1337 18.9732C34.744 19.5689 34.7415 20.526 34.1281 21.1187L34.406 21.4064ZM24.4335 31.0417L34.406 21.4064L34.1281 21.1187L24.1555 30.754L24.4335 31.0417ZM21.6315 31.0417C22.406 31.79 23.659 31.79 24.4335 31.0417L24.1555 30.754C23.5361 31.3525 22.5289 31.3525 21.9095 30.754L21.6315 31.0417ZM10.6549 20.4363L21.6315 31.0417L21.9095 30.754L10.9328 20.1486L10.6549 20.4363ZM10.6651 20.695L10.9328 20.4363L10.6549 20.1486L10.3871 20.4073L10.6651 20.695ZM7.86311 20.695C8.63761 21.4433 9.89056 21.4433 10.6651 20.695L10.3871 20.4073C9.76765 21.0058 8.76052 21.0058 8.14105 20.4073L7.86311 20.695ZM4.7598 17.6966L7.86311 20.695L8.14105 20.4073L5.03774 17.409L4.7598 17.6966ZM3.33723 13.8455C3.30446 15.1858 3.69852 16.6712 4.7598 17.6966L5.03774 17.409C4.08061 16.4842 3.70615 15.1216 3.73711 13.8553L3.33723 13.8455ZM4.7598 10.2053C3.82885 11.1047 3.36979 12.5138 3.33723 13.8455L3.73711 13.8553C3.76796 12.5937 4.20423 11.2983 5.03774 10.493L4.7598 10.2053ZM6.99682 8.04392L4.7598 10.2053L5.03774 10.493L7.27476 8.33158L6.99682 8.04392ZM4.94892 6.53535L7.0039 8.3381L7.26768 8.0374L5.21271 6.23466L4.94892 6.53535ZM5.26647 13.8902C5.29127 12.8758 5.64793 11.9937 6.11946 11.5381L5.84152 11.2504C5.27289 11.7998 4.89312 12.7952 4.86659 13.8804L5.26647 13.8902ZM6.11946 16.3638C5.54875 15.8124 5.24188 14.8958 5.26647 13.8902L4.86659 13.8804C4.84017 14.9608 5.16709 15.9999 5.84152 16.6515L6.11946 16.3638ZM9.22277 19.3622L6.11946 16.3638L5.84152 16.6515L8.94483 19.6499L9.22277 19.3622ZM9.3054 19.3622C9.28335 19.3835 9.24483 19.3835 9.22277 19.3622L8.94483 19.6499C9.12191 19.8209 9.40626 19.8209 9.58334 19.6499L9.3054 19.3622ZM22.3339 6.71363C22.3438 6.72326 22.3475 6.73404 22.3475 6.74399C22.3475 6.75393 22.3438 6.76471 22.3339 6.77434L22.6118 7.06201C22.7927 6.88718 22.7927 6.60079 22.6118 6.42596L22.3339 6.71363ZM19.2305 3.71527L22.3339 6.71363L22.6118 6.42596L19.5085 3.4276L19.2305 3.71527ZM14.2161 3.71526C15.7679 2.21591 17.9269 2.45568 19.2305 3.71527L19.5085 3.4276C18.0682 2.03603 15.6628 1.76128 13.9382 3.4276L14.2161 3.71526ZM10.4542 7.34993C10.4543 7.34989 10.4542 7.34992 10.4543 7.3499C10.4543 7.34989 10.4543 7.34989 10.4543 7.34989C10.4543 7.34989 10.4543 7.34989 10.4543 7.34989C10.4543 7.34989 10.4543 7.34989 10.4543 7.34989C10.1715 7.34503 10.1763 7.06222 10.1763 7.06222C10.1763 7.06223 10.1763 7.06222 10.1763 7.06223C10.1763 7.06223 10.1763 7.06225 10.1763 7.06226C10.1763 7.06227 10.1763 7.06226 10.1763 7.06227C10.1763 7.06228 10.1763 7.06228 10.1763 7.06228C10.1763 7.06229 10.1763 7.06228 10.1763 7.06229C10.1763 7.06229 10.1763 7.06229 10.1763 7.06229C10.1763 7.06229 10.1763 7.06229 10.1763 7.06229C10.1762 7.06229 10.1763 7.06229 10.1762 7.06229C10.1762 7.0623 10.1763 7.06229 10.1762 7.06229C10.1762 7.06229 10.1762 7.06229 10.1762 7.06229C10.1762 7.06229 10.1714 7.3451 10.4542 7.34996C10.4542 7.34996 10.4542 7.34996 10.4542 7.34996C10.4542 7.34996 10.4542 7.34996 10.4542 7.34996C10.4542 7.34996 10.4542 7.34996 10.4542 7.34996C10.4542 7.34995 10.4542 7.34995 10.4542 7.34994C10.4542 7.34994 10.4542 7.34994 10.4542 7.34994C10.4543 7.34988 10.4542 7.34998 10.4542 7.34993L10.1763 7.06226C10.1762 7.0623 10.1763 7.06226 10.1763 7.06229C10.1762 7.06229 10.1762 7.06229 10.1762 7.06229C10.1762 7.0623 10.1762 7.06229 10.1762 7.06229C10.459 7.06716 10.4542 7.34996 10.4542 7.34996C10.4542 7.34996 10.4542 7.34996 10.4542 7.34996C10.4542 7.34996 10.4542 7.34994 10.4542 7.34993C10.4542 7.34991 10.4542 7.34993 10.4542 7.34991C10.4542 7.34991 10.4542 7.34991 10.4542 7.3499C10.4543 7.3499 10.4542 7.3499 10.4543 7.3499C10.4543 7.3499 10.4543 7.3499 10.4543 7.3499C10.4543 7.34989 10.4543 7.34989 10.4543 7.34989C10.4543 7.34989 10.4543 7.34989 10.4543 7.34989C10.4543 7.34989 10.4542 7.3499 10.4543 7.34989C10.4543 7.34989 10.4543 7.34989 10.4543 7.34989C10.4543 7.34989 10.4591 7.06709 10.1763 7.06222C10.1763 7.06223 10.1763 7.06222 10.1763 7.06223C10.1763 7.06223 10.1763 7.06222 10.1763 7.06223C10.1763 7.06224 10.1763 7.06223 10.1763 7.06224C10.1763 7.06225 10.1763 7.06224 10.1763 7.06225C10.1762 7.06231 10.1763 7.0622 10.1763 7.06226L10.4542 7.34993ZM9.88134 7.90343L10.4542 7.34993L10.1763 7.06226L9.6034 7.61577L9.88134 7.90343ZM9.88134 7.90343C9.88137 7.9034 9.88134 7.90343 9.88137 7.9034C9.88137 7.9034 9.88137 7.9034 9.88137 7.9034C9.88137 7.9034 9.88137 7.9034 9.88137 7.9034C9.59857 7.89853 9.60344 7.61573 9.60344 7.61573C9.60344 7.61573 9.60344 7.61573 9.60344 7.61573C9.60343 7.61574 9.60341 7.61575 9.6034 7.61577C9.60339 7.61578 9.6034 7.61577 9.60339 7.61578L9.60339 7.61578C9.60339 7.61578 9.60339 7.61578 9.60339 7.61578C9.60339 7.61578 9.60339 7.61578 9.60339 7.61578H9.60339V7.61578C9.60338 7.61578 9.60338 7.61578 9.60338 7.61578C9.60338 7.61579 9.60338 7.61579 9.60338 7.61579C9.60337 7.6158 9.60338 7.61579 9.60337 7.6158C9.60337 7.6158 9.60337 7.6158 9.60337 7.6158C9.60336 7.61581 9.60337 7.6158 9.60336 7.6158C9.60336 7.6158 9.60336 7.6158 9.60336 7.6158C9.60336 7.6158 9.5985 7.8986 9.8813 7.90347C9.8813 7.90347 9.8813 7.90347 9.8813 7.90347C9.8813 7.90347 9.8813 7.90347 9.8813 7.90347C9.8813 7.90347 9.8813 7.90347 9.8813 7.90347L9.8813 7.90347C9.8813 7.90346 9.8813 7.90347 9.8813 7.90347C9.8813 7.90346 9.8813 7.90347 9.88131 7.90346C9.88131 7.90346 9.88131 7.90346 9.88132 7.90345C9.88132 7.90345 9.88132 7.90345 9.88133 7.90344C9.88139 7.90339 9.88128 7.90349 9.88134 7.90343L9.6034 7.61577C9.60336 7.6158 9.6034 7.61577 9.60337 7.6158C9.60336 7.6158 9.60337 7.6158 9.60336 7.6158C9.60336 7.6158 9.60336 7.6158 9.60336 7.6158C9.60336 7.6158 9.60336 7.6158 9.60336 7.6158C9.88616 7.62067 9.8813 7.90347 9.8813 7.90347C9.8813 7.90347 9.8813 7.90347 9.8813 7.90347C9.8813 7.90347 9.88132 7.90345 9.88134 7.90343C9.88134 7.90343 9.88134 7.90343 9.88135 7.90342L9.88135 7.90342V7.90342C9.88135 7.90342 9.88135 7.90342 9.88135 7.90342C9.88135 7.90342 9.88135 7.90342 9.88135 7.90342C9.88135 7.90342 9.88135 7.90342 9.88135 7.90342C9.88135 7.90342 9.88135 7.90342 9.88135 7.90342C9.88135 7.90342 9.88136 7.90341 9.88136 7.90341C9.88137 7.9034 9.88136 7.90341 9.88137 7.9034C9.88137 7.9034 9.88137 7.9034 9.88137 7.9034C9.88138 7.9034 9.88137 7.9034 9.88137 7.9034C9.88137 7.9034 9.88137 7.9034 9.88137 7.9034C9.88137 7.9034 9.88624 7.6206 9.60344 7.61573C9.60344 7.61573 9.60344 7.61573 9.60344 7.61573L9.60344 7.61573C9.60343 7.61574 9.60344 7.61573 9.60343 7.61574C9.60343 7.61574 9.60343 7.61574 9.60343 7.61574C9.60342 7.61575 9.60343 7.61574 9.60342 7.61575C9.60341 7.61575 9.60342 7.61575 9.60341 7.61576C9.60335 7.61582 9.60346 7.61571 9.6034 7.61577L9.88134 7.90343ZM7.76358 3.69238L9.55124 5.83382L9.8583 5.57748L8.07065 3.43605L7.76358 3.69238ZM7.67734 3.68851C7.68849 3.67774 7.70423 3.6717 7.72195 3.67261C7.73965 3.67353 7.75415 3.68109 7.76358 3.69238L8.07065 3.43605C7.90057 3.2323 7.58956 3.21712 7.39941 3.40085L7.67734 3.68851ZM6.23923 5.07799L7.67734 3.68851L7.39941 3.40085L5.9613 4.79032L6.23923 5.07799ZM6.24106 5.14038C6.23003 5.1307 6.22586 5.11956 6.2256 5.10929C6.22535 5.09904 6.22894 5.08793 6.23923 5.07799L5.9613 4.79032C5.77395 4.97133 5.78179 5.26959 5.97727 5.44107L6.24106 5.14038ZM8.35066 6.99105L6.24106 5.14038L5.97727 5.44107L8.08688 7.29174L8.35066 6.99105ZM22.9912 29.7089L12.0146 19.1035L11.7366 19.3911L22.7132 29.9965L22.9912 29.7089ZM23.0738 29.7089C23.0518 29.7302 23.0132 29.7302 22.9912 29.7089L22.7132 29.9965C22.8903 30.1676 23.1747 30.1676 23.3518 29.9965L23.0738 29.7089ZM33.0463 20.0736L23.0738 29.7089L23.3518 29.9965L33.3243 20.3613L33.0463 20.0736ZM33.0465 20.0131C33.0564 20.0227 33.06 20.0334 33.06 20.0433C33.06 20.0532 33.0563 20.064 33.0463 20.0736L33.3243 20.3613C33.5046 20.1871 33.5053 19.9019 33.3259 19.7268L33.0465 20.0131ZM22.1248 9.35286L33.0465 20.0131L33.3259 19.7268L22.4042 9.06661L22.1248 9.35286ZM12.0146 19.3911L22.4035 9.35357L22.1255 9.0659L11.7366 19.1035L12.0146 19.3911ZM6.11946 11.5381L9.88134 7.90343L9.6034 7.61577L5.84152 11.2504L6.11946 11.5381ZM22.3339 6.77434L9.3054 19.3622L9.58334 19.6499L22.6118 7.06201L22.3339 6.77434ZM10.4542 7.34993L14.2161 3.71526L13.9382 3.4276L10.1763 7.06226L10.4542 7.34993ZM9.5658 5.56182L8.0798 6.99756L8.35774 7.28523L9.84374 5.84948L9.5658 5.56182ZM6.33253 31.5475C6.03338 31.5475 5.52469 31.5787 5.11594 31.9341L5.37841 32.236C5.67107 31.9815 6.05039 31.9475 6.33253 31.9475V31.5475ZM46.5615 33.4719C46.5615 32.4027 45.6664 31.5475 44.5768 31.5475V31.9475C45.4586 31.9475 46.1615 32.6365 46.1615 33.4719H46.5615ZM46.5615 39.6305V33.4719H46.1615V39.6305H46.5615ZM44.5768 41.5549C45.6664 41.5549 46.5615 40.6997 46.5615 39.6305H46.1615C46.1615 40.4659 45.4586 41.1549 44.5768 41.1549V41.5549ZM27.5726 41.5549H44.5768V41.1549H27.5726V41.5549ZM28.969 49.9768C28.969 47.7547 28.7678 44.2481 27.762 41.2905L27.3833 41.4192C28.3677 44.3141 28.569 47.7681 28.569 49.9768H28.969ZM27.9191 53.045C28.6116 52.3759 28.969 51.3548 28.969 49.9768H28.569C28.569 51.29 28.229 52.1893 27.6411 52.7574L27.9191 53.045ZM25.7095 53.8719C26.3662 53.8719 27.2278 53.7129 27.9191 53.045L27.6411 52.7574C27.052 53.3266 26.3084 53.4719 25.7095 53.4719V53.8719ZM23.3333 52.9434C24.1276 53.8068 25.1269 53.8719 25.7095 53.8719V53.4719C25.1543 53.4719 24.3035 53.4072 23.6277 52.6726L23.3333 52.9434ZM22.1949 48.7451C22.1949 50.7911 22.5834 52.1284 23.3333 52.9434L23.6277 52.6726C22.9802 51.9689 22.5949 50.7572 22.5949 48.7451H22.1949ZM20.7844 42.5461C21.2233 43.3235 22.1949 45.7639 22.1949 48.7451H22.5949C22.5949 45.6885 21.6021 43.1809 21.1327 42.3494L20.7844 42.5461ZM20.5529 42.1481C20.6379 42.2924 20.7165 42.4259 20.7844 42.5461L21.1327 42.3494C21.0627 42.2254 20.982 42.0885 20.8976 41.9451L20.5529 42.1481ZM20.1525 41.4507C20.2851 41.6934 20.4256 41.932 20.5529 42.1481L20.8976 41.9451C20.7698 41.7282 20.6325 41.495 20.5035 41.2589L20.1525 41.4507ZM17.5506 41.5549H20.328V41.1549H17.5506V41.5549ZM17.3232 41.5613C17.3141 41.5633 17.3193 41.5612 17.358 41.5589C17.394 41.5568 17.4541 41.5549 17.5506 41.5549V41.1549C17.3549 41.1549 17.2749 41.1623 17.2364 41.1708L17.3232 41.5613ZM17.1708 41.9522C17.338 41.5482 17.431 41.5041 17.3953 41.5294L17.1643 41.2028C17.1083 41.2424 16.9789 41.3698 16.8012 41.7992L17.1708 41.9522ZM17.1642 41.968L17.1708 41.9522L16.8012 41.7991L16.7946 41.815L17.1642 41.968ZM16.2758 47.067H14.4505V47.467H16.2758V47.067ZM17.1556 47.3407C16.8503 47.1283 16.5136 47.067 16.2758 47.067V47.467C16.4527 47.467 16.7042 47.5139 16.9272 47.669L17.1556 47.3407ZM17.7506 48.4988C17.7506 47.9926 17.5103 47.5874 17.1556 47.3407L16.9272 47.669C17.1789 47.8441 17.3506 48.129 17.3506 48.4988H17.7506ZM17.4648 53.2995C17.6861 53.0025 17.7506 52.6738 17.7506 52.4402H17.3506C17.3506 52.6074 17.3033 52.8469 17.1441 53.0604L17.4648 53.2995ZM16.2758 53.8719C16.7914 53.8719 17.2083 53.6437 17.4648 53.2995L17.1441 53.0604C16.964 53.3021 16.6667 53.4719 16.2758 53.4719V53.8719ZM11.5283 53.848C11.5447 53.8164 11.559 53.7888 11.5717 53.7644L11.2171 53.5794C11.204 53.6044 11.1895 53.6325 11.1731 53.6642L11.5283 53.848ZM11.5121 53.8794L11.5283 53.848L11.1731 53.6642L11.1568 53.6956L11.5121 53.8794ZM8.91799 57.8906L8.92423 57.8815L8.59499 57.6544L8.58875 57.6634L8.91799 57.8906ZM3.01178 58.1625C5.61199 59.9584 8.06516 59.1265 8.91798 57.8906L8.58875 57.6634C7.88197 58.6877 5.68874 59.5253 3.2391 57.8334L3.01178 58.1625ZM2.96272 58.1284C2.97906 58.1398 2.99541 58.1512 3.01178 58.1625L3.2391 57.8334C3.22363 57.8227 3.20816 57.812 3.19268 57.8011L2.96272 58.1284ZM2.84677 58.0326C2.88237 58.0671 2.92106 58.0991 2.96272 58.1284L3.19269 57.8011C3.16803 57.7837 3.14541 57.765 3.12482 57.7451L2.84677 58.0326ZM1.28387 56.0596C1.71267 56.9306 2.34852 57.6241 2.85883 58.0434L3.11276 57.7343C2.63763 57.3439 2.04178 56.6935 1.64274 55.8829L1.28387 56.0596ZM1.10283 52.5819C0.565965 53.8787 0.816207 55.1096 1.28387 56.0596L1.64274 55.8829C1.20975 55.0034 0.991844 53.8957 1.47241 52.7349L1.10283 52.5819ZM3.22398 47.6874C2.50727 49.3167 1.6125 51.3508 1.10283 52.5819L1.47241 52.7349C1.97999 51.5089 2.87258 49.4797 3.59012 47.8485L3.22398 47.6874ZM4.19678 45.4607C4.01391 45.8916 3.65067 46.7174 3.22398 47.6874L3.59012 47.8485C4.01615 46.8799 4.38082 46.0509 4.56499 45.617L4.19678 45.4607ZM5.45246 44.9495C4.96483 44.7563 4.4012 44.9791 4.19678 45.4607L4.56499 45.617C4.68111 45.3434 5.01104 45.2049 5.30512 45.3214L5.45246 44.9495ZM5.98039 46.1778C6.18642 45.6923 5.94328 45.144 5.45246 44.9495L5.30512 45.3214C5.596 45.4367 5.7267 45.7517 5.61218 46.0215L5.98039 46.1778ZM4.96919 48.4926C5.40271 47.5074 5.77915 46.6519 5.98039 46.1778L5.61218 46.0215C5.41225 46.4926 5.03722 47.3448 4.60307 48.3314L4.96919 48.4926ZM2.89278 53.2839C3.40049 52.0575 4.26134 50.1012 4.96919 48.4926L4.60307 48.3314C3.89603 49.9382 3.03301 51.8994 2.5232 53.1309L2.89278 53.2839ZM3.0242 55.248C2.71792 54.6259 2.61361 53.9582 2.89278 53.2839L2.5232 53.1309C2.18803 53.9404 2.32393 54.7312 2.66534 55.4247L3.0242 55.248ZM4.15546 56.6498C3.81889 56.3864 3.33355 55.8764 3.0242 55.248L2.66534 55.4247C3.00584 56.1164 3.53392 56.6713 3.90889 56.9648L4.15546 56.6498ZM7.31331 56.8472C7.13935 57.0893 5.96886 57.8921 4.14524 56.6424L3.91911 56.9723C5.89857 58.3289 7.3213 57.5216 7.63816 57.0806L7.31331 56.8472ZM9.83033 52.9557L7.30781 56.8553L7.64366 57.0725L10.1662 53.173L9.83033 52.9557ZM9.82623 52.9615C9.82422 52.9654 9.82225 52.9693 9.8203 52.9731L10.1762 53.1556C10.1782 53.1518 10.1802 53.1479 10.1822 53.144L9.82623 52.9615ZM10.1935 52.3944C10.0236 52.5735 9.90052 52.8166 9.82624 52.9615L10.1822 53.144C10.2615 52.9892 10.3601 52.7999 10.4837 52.6697L10.1935 52.3944ZM10.6903 52.0712C10.4821 52.1443 10.3191 52.262 10.1935 52.3944L10.4837 52.6697C10.5711 52.5776 10.6817 52.4982 10.8228 52.4486L10.6903 52.0712ZM11.1765 51.9939C11.0562 51.9939 10.8809 52.0043 10.6903 52.0712L10.8229 52.4486C10.954 52.4025 11.0791 52.3939 11.1765 52.3939V51.9939ZM14.2361 48.9451H16.0208V48.5451H14.2361V48.9451ZM12.8325 48.1206C13.0979 48.6333 13.6297 48.9451 14.2361 48.9451V48.5451C13.7694 48.5451 13.38 48.3082 13.1878 47.9367L12.8325 48.1206ZM12.8564 46.6139C12.6211 47.0789 12.581 47.6346 12.8325 48.1206L13.1878 47.9367C13.0047 47.583 13.0262 47.1643 13.2133 46.7944L12.8564 46.6139ZM15.3914 41.2253L12.8539 46.619L13.2158 46.7893L15.7534 41.3955L15.3914 41.2253ZM16.3662 39.9411C15.9014 40.2218 15.614 40.6917 15.3878 41.2334L15.7569 41.3875C15.9721 40.8722 16.2177 40.4981 16.5729 40.2835L16.3662 39.9411ZM17.5114 39.6767C17.2818 39.6757 16.8135 39.671 16.3662 39.9411L16.5729 40.2835C16.9154 40.0767 17.2805 40.0757 17.5096 40.0767L17.5114 39.6767ZM17.5506 39.6768C17.5385 39.6768 17.5256 39.6767 17.5114 39.6767L17.5096 40.0767C17.5236 40.0767 17.5374 40.0768 17.5506 40.0768V39.6768ZM19.729 39.6768H17.5506V40.0768H19.729V39.6768ZM19.4858 38.8178C19.4284 39.2004 19.4574 39.5718 19.5336 39.9196L19.9243 39.834C19.8563 39.5234 19.8326 39.2021 19.8814 38.8772L19.4858 38.8178ZM21.1146 36.6195C20.1702 37.2002 19.6177 37.9394 19.4858 38.8178L19.8814 38.8772C19.9913 38.1451 20.4514 37.4968 21.3241 36.9603L21.1146 36.6195ZM23.4432 36.1833C22.6776 36.0211 21.8794 36.1493 21.1146 36.6195L21.3241 36.9603C22.0051 36.5416 22.6992 36.4345 23.3603 36.5746L23.4432 36.1833ZM25.2968 37.1948C24.7986 36.7424 24.1766 36.3387 23.4432 36.1833L23.3603 36.5746C24.0015 36.7105 24.5616 37.0675 25.028 37.491L25.2968 37.1948ZM27.1561 39.7899C26.7552 38.9594 26.1207 37.9428 25.2968 37.1948L25.028 37.491C25.8003 38.1921 26.4076 39.1595 26.7958 39.9637L27.1561 39.7899ZM44.5768 39.6768H26.9759V40.0768H44.5768V39.6768ZM44.6317 39.6305C44.6317 39.6496 44.6137 39.6768 44.5768 39.6768V40.0768C44.8215 40.0768 45.0317 39.8834 45.0317 39.6305H44.6317ZM44.6317 33.4719V39.6305H45.0317V33.4719H44.6317ZM44.5768 33.4256C44.6137 33.4256 44.6317 33.4528 44.6317 33.4719H45.0317C45.0317 33.219 44.8215 33.0256 44.5768 33.0256V33.4256ZM15.2586 33.4256H44.5768V33.0256H15.2586V33.4256ZM13.8234 37.0968L13.8358 37.0726L13.4806 36.8888L13.4681 36.9129L13.8234 37.0968ZM13.0705 37.9312C13.4555 37.7283 13.673 37.3874 13.8234 37.0968L13.4681 36.9129C13.3283 37.183 13.1581 37.4329 12.884 37.5773L13.0705 37.9312ZM12.2254 38.1063C12.368 38.1075 12.726 38.1128 13.0705 37.9312L12.884 37.5773C12.6365 37.7078 12.37 37.7075 12.2289 37.7063L12.2254 38.1063ZM12.1967 38.1061C12.2047 38.1061 12.2139 38.1061 12.2254 38.1063L12.2289 37.7063C12.2179 37.7062 12.2068 37.7061 12.1967 37.7061V38.1061ZM10.5438 38.0239C10.5451 38.022 10.5463 38.0201 10.5476 38.0183L10.2165 37.7938C10.2146 37.7966 10.2127 37.7995 10.2108 37.8023L10.5438 38.0239ZM10.5088 38.0822C10.514 38.0721 10.5264 38.0501 10.5438 38.0239L10.2108 37.8023C10.1855 37.8403 10.1657 37.8749 10.1536 37.8983L10.5088 38.0822ZM10.4875 38.1233L10.5088 38.0821L10.1536 37.8983L10.1323 37.9395L10.4875 38.1233ZM9.01151 39.8988C9.4229 39.6927 9.72788 39.3306 9.97521 38.8663L9.62216 38.6783C9.39668 39.1016 9.14257 39.3857 8.83235 39.5411L9.01151 39.8988ZM8.13779 40.0773C8.25318 40.0804 8.62672 40.0915 9.01151 39.8988L8.83235 39.5411C8.54132 39.6869 8.25325 39.6802 8.14859 39.6774L8.13779 40.0773ZM8.11727 40.0768C8.12026 40.0768 8.1257 40.0769 8.13779 40.0773L8.14859 39.6774C8.13896 39.6771 8.12699 39.6768 8.11727 39.6768V40.0768ZM6.07723 40.0768H8.11727V39.6768H6.07723V40.0768ZM4.91757 39.5725C5.22322 39.9422 5.66346 40.0768 6.07723 40.0768V39.6768C5.74546 39.6768 5.4346 39.5701 5.22586 39.3176L4.91757 39.5725ZM4.60274 38.6451C4.60274 38.8686 4.6445 39.2422 4.91757 39.5725L5.22586 39.3176C5.03707 39.0892 5.00274 38.8243 5.00274 38.6451H4.60274ZM4.60274 33.2256V38.6451H5.00274V33.2256H4.60274ZM5.11594 31.9341C4.68114 32.3122 4.60274 32.8345 4.60274 33.2256H5.00274C5.00274 32.8768 5.07425 32.5005 5.37841 32.236L5.11594 31.9341ZM6.33253 33.4256H13.6042V33.0256H6.33253V33.4256ZM6.53253 38.3988V33.2256H6.13253V38.3988H6.53253ZM8.11727 38.1988H6.33253V38.5988H8.11727V38.1988ZM8.22664 38.1981C8.2079 38.1983 8.17469 38.1988 8.11727 38.1988V38.5988C8.17703 38.5988 8.21227 38.5983 8.23064 38.5981L8.22664 38.1981ZM8.27537 37.9763C8.171 38.178 8.10451 38.2409 8.09622 38.2482L8.36106 38.548C8.4174 38.4982 8.51144 38.3905 8.63061 38.1602L8.27537 37.9763ZM8.29666 37.9352L8.27536 37.9763L8.63062 38.1602L8.65191 38.119L8.29666 37.9352ZM9.12808 36.737C8.99046 36.8916 8.88246 37.0594 8.81214 37.1871L9.1625 37.3801C9.22229 37.2715 9.31384 37.1299 9.42687 37.0029L9.12808 36.737ZM9.46294 36.4429C9.31814 36.5381 9.20632 36.6491 9.12808 36.737L9.42687 37.0029C9.49121 36.9306 9.57691 36.8467 9.68272 36.7771L9.46294 36.4429ZM10.157 36.228C9.84204 36.228 9.60152 36.3518 9.46294 36.4429L9.68272 36.7771C9.78486 36.7099 9.94868 36.628 10.157 36.628V36.228ZM12.2308 36.228C12.2205 36.228 12.2093 36.228 12.1967 36.228V36.628C12.2094 36.628 12.2209 36.628 12.2316 36.628L12.2308 36.228ZM12.0892 36.2722C12.0775 36.2941 12.0675 36.3119 12.059 36.3262L12.4033 36.5298C12.415 36.51 12.428 36.487 12.4422 36.4602L12.0892 36.2722ZM13.4202 33.1472L12.0817 36.2878L12.4497 36.4446L13.7882 33.304L13.4202 33.1472ZM8.40731 38.3635C8.42109 38.4206 8.40593 38.4659 8.39931 38.483C8.39146 38.5032 8.38203 38.5176 8.37723 38.5245C8.36738 38.5387 8.35787 38.5483 8.35472 38.5515C8.34703 38.5592 8.34039 38.5646 8.33861 38.566C8.33366 38.57 8.3296 38.5729 8.3284 38.5738C8.32508 38.5761 8.32242 38.5778 8.32121 38.5786C8.31833 38.5805 8.31595 38.5819 8.31429 38.5828L8.11378 38.2367C8.11135 38.2381 8.1084 38.2399 8.10514 38.242C8.10374 38.2429 8.10094 38.2447 8.09753 38.2471C8.09628 38.248 8.09219 38.2509 8.08721 38.2549C8.08542 38.2564 8.07877 38.2617 8.07108 38.2695C8.06792 38.2726 8.05842 38.2823 8.04856 38.2965C8.04377 38.3034 8.03434 38.3178 8.02648 38.338C8.01986 38.3551 8.0047 38.4004 8.01848 38.4574L8.40731 38.3635ZM6.19742 38.5119C6.23729 38.475 6.30624 38.4441 6.38582 38.4658C6.44674 38.4824 6.4799 38.5218 6.48982 38.5343C6.51196 38.5622 6.52086 38.5894 6.5218 38.5921C6.52696 38.6067 6.52917 38.6187 6.52952 38.6206C6.53099 38.6282 6.53163 38.634 6.53181 38.6356C6.53232 38.6403 6.53246 38.6434 6.53249 38.6442L6.13285 38.6611C6.13306 38.6661 6.13343 38.6723 6.13417 38.679C6.13445 38.6816 6.1352 38.6882 6.13675 38.6963C6.13715 38.6983 6.13941 38.7105 6.1446 38.7252C6.14556 38.7279 6.15448 38.7552 6.17663 38.7831C6.18655 38.7956 6.21972 38.8351 6.28066 38.8517C6.36024 38.8734 6.4292 38.8424 6.46907 38.8055L6.19742 38.5119ZM11.2595 53.4919C11.2668 53.4954 11.32 53.5197 11.3514 53.5826C11.3708 53.6215 11.3786 53.6692 11.3672 53.7178C11.3567 53.7622 11.3338 53.7924 11.3182 53.809C11.29 53.839 11.2599 53.8521 11.2531 53.8551C11.2416 53.8601 11.232 53.863 11.2273 53.8644C11.2114 53.8689 11.198 53.8704 11.198 53.8704C11.1918 53.8712 11.1869 53.8715 11.1862 53.8715C11.1832 53.8717 11.1809 53.8718 11.1803 53.8718C11.1785 53.8719 11.1773 53.8719 11.177 53.8719L11.173 53.4719C11.171 53.472 11.1685 53.472 11.1659 53.4721C11.1648 53.4721 11.1622 53.4722 11.159 53.4725C11.1583 53.4725 11.1533 53.4728 11.1471 53.4736C11.147 53.4736 11.1337 53.4751 11.1177 53.4796C11.113 53.481 11.1034 53.4839 11.0919 53.4889C11.0851 53.4919 11.055 53.505 11.0268 53.535C11.0112 53.5516 10.9883 53.5818 10.9778 53.6262C10.9664 53.6748 10.9742 53.7225 10.9936 53.7614C11.025 53.8243 11.0782 53.8486 11.0855 53.8521L11.2595 53.4919ZM11.1787 53.8719L11.1811 53.8718L11.1688 53.472L11.1663 53.4721L11.1787 53.8719ZM14.3911 47.2073C14.4938 47.2073 14.546 47.2796 14.5563 47.2946C14.5719 47.3174 14.5788 47.3381 14.5812 47.3452C14.5867 47.3622 14.5886 47.3761 14.5892 47.3801C14.5907 47.3911 14.5909 47.3997 14.591 47.4031C14.5911 47.4116 14.5907 47.4182 14.5903 47.4222L14.1919 47.3867C14.1913 47.3926 14.1909 47.4007 14.191 47.4101C14.1911 47.414 14.1913 47.423 14.1929 47.4342C14.1934 47.4383 14.1953 47.4523 14.2009 47.4693C14.2033 47.4765 14.2103 47.4972 14.2258 47.52C14.2361 47.5351 14.2883 47.6073 14.3911 47.6073V47.2073ZM17.3064 41.1695C17.3155 41.1709 17.3541 41.1768 17.3934 41.2052C17.4161 41.2216 17.4446 41.2498 17.4619 41.2933C17.4799 41.3385 17.4788 41.3827 17.4696 41.4176C17.4544 41.4761 17.4176 41.5089 17.4102 41.5155C17.3972 41.5273 17.3855 41.5347 17.38 41.5381C17.3608 41.5497 17.3438 41.5553 17.3429 41.5556C17.3335 41.5589 17.3263 41.5606 17.324 41.5611L17.2356 41.171C17.2304 41.1722 17.2213 41.1744 17.2106 41.1781C17.2092 41.1787 17.1918 41.1844 17.1724 41.1962C17.1668 41.1996 17.1551 41.207 17.142 41.2188C17.1346 41.2255 17.0978 41.2583 17.0826 41.3168C17.0735 41.3517 17.0723 41.396 17.0903 41.4411C17.1076 41.4847 17.1362 41.5128 17.1588 41.5292C17.1981 41.5577 17.2367 41.5635 17.2459 41.5649L17.3064 41.1695ZM17.1882 41.1883C17.2006 41.1819 17.2121 41.1777 17.2214 41.175C17.2262 41.1736 17.2325 41.172 17.2402 41.1705C17.2439 41.1699 17.2499 41.1689 17.2574 41.1681C17.2612 41.1678 17.2668 41.1674 17.2736 41.1673C17.2795 41.1672 17.2914 41.1673 17.3062 41.1695L17.2461 41.565C17.2715 41.5688 17.2918 41.5667 17.2953 41.5663C17.303 41.5656 17.3092 41.5646 17.3131 41.5638C17.3212 41.5623 17.3281 41.5606 17.3336 41.559C17.3443 41.5558 17.3574 41.5511 17.3715 41.5438L17.1882 41.1883ZM22.1454 38.2072C22.5024 37.9878 22.7856 37.966 23.0326 38.0184L23.1155 37.6271C22.7643 37.5526 22.3769 37.5954 21.9359 37.8665L22.1454 38.2072ZM21.3953 39.0894C21.427 38.8787 21.5551 38.5702 22.1454 38.2072L21.9359 37.8665C21.2726 38.2744 21.0532 38.6742 20.9997 39.03L21.3953 39.0894ZM21.6752 40.2184C21.4346 39.717 21.355 39.3582 21.3953 39.0894L20.9997 39.03C20.9413 39.4195 21.0635 39.8682 21.3146 40.3915L21.6752 40.2184ZM22.1875 41.1456C21.9989 40.8259 21.8259 40.5324 21.6752 40.2184L21.3146 40.3915C21.4739 40.7234 21.6558 41.0316 21.843 41.3489L22.1875 41.1456ZM22.4757 41.6417C22.3776 41.4679 22.2807 41.3037 22.1875 41.1456L21.843 41.3489C21.9364 41.5073 22.0314 41.6684 22.1274 41.8383L22.4757 41.6417ZM24.1247 48.7451C24.1247 45.4199 23.0566 42.6707 22.4757 41.6417L22.1274 41.8383C22.6778 42.8133 23.7247 45.4953 23.7247 48.7451H24.1247ZM24.7711 51.6907C24.501 51.3972 24.1247 50.6405 24.1247 48.7451H23.7247C23.7247 50.6746 24.1043 51.5567 24.4767 51.9615L24.7711 51.6907ZM25.7095 51.9939C25.2729 51.9939 24.9969 51.9361 24.7711 51.6907L24.4767 51.9615C24.8204 52.3351 25.244 52.3939 25.7095 52.3939V51.9939ZM26.5594 51.7122C26.3579 51.9069 26.0718 51.9939 25.7095 51.9939V52.3939C26.1312 52.3939 26.5345 52.2924 26.8373 51.9999L26.5594 51.7122ZM27.0392 49.9768C27.0392 51.0617 26.7595 51.5189 26.5594 51.7122L26.8373 51.9999C27.1415 51.706 27.4392 51.1275 27.4392 49.9768H27.0392ZM25.5846 40.9793C26.7809 43.7531 27.0392 47.5353 27.0392 49.9768H27.4392C27.4392 47.5256 27.1823 43.6739 25.9519 40.8209L25.5846 40.9793ZM25.5825 40.9743L25.5846 40.9792L25.952 40.8209L25.9499 40.8161L25.5825 40.9743ZM25.5794 40.9668L25.5814 40.9717L25.951 40.8187L25.9489 40.8138L25.5794 40.9668ZM23.9804 38.5681C24.6846 39.2075 25.2684 40.2156 25.5794 40.9668L25.9489 40.8138C25.6253 40.0319 25.0131 38.9654 24.2493 38.2719L23.9804 38.5681ZM23.0326 38.0184C23.3117 38.0775 23.6331 38.2528 23.9804 38.5681L24.2493 38.2719C23.8699 37.9275 23.4867 37.7057 23.1155 37.6271L23.0326 38.0184ZM44.5768 31.5475H6.33253V31.9475H44.5768V31.5475ZM14.6314 47.3522L17.1604 41.9766L16.7984 41.8063L14.2695 47.1819L14.6314 47.3522ZM17.7506 52.4402V48.4988H17.3506V52.4402H17.7506ZM11.3944 53.8719H16.2758V53.4719H11.3944V53.8719ZM8.92754 57.8766L11.5024 53.8961L11.1665 53.6789L8.59168 57.6593L8.92754 57.8766ZM16.0208 51.9939H11.1765V52.3939H16.0208V51.9939ZM15.8208 48.7451V52.1939H16.2208V48.7451H15.8208ZM13.8422 37.0591L15.4426 33.304L15.0746 33.1472L13.4742 36.9023L13.8422 37.0591ZM10.382 38.1061H12.1967V37.7061H10.382V38.1061ZM9.9633 38.8859L10.4745 38.145L10.1453 37.9178L9.63407 38.6587L9.9633 38.8859ZM8.8227 37.17L8.30967 37.9135L8.6389 38.1407L9.15193 37.3972L8.8227 37.17ZM12.1967 36.228H10.157V36.628H12.1967V36.228ZM7.08164 42.9371C7.08164 43.2692 6.80102 43.55 6.44025 43.55V43.95C7.00885 43.95 7.48164 43.503 7.48164 42.9371H7.08164ZM6.44025 43.55C6.07949 43.55 5.79887 43.2692 5.79887 42.9371H5.39887C5.39887 43.503 5.87166 43.95 6.44025 43.95V43.55ZM5.79887 42.9371C5.79887 42.605 6.07949 42.3242 6.44025 42.3242V41.9242C5.87166 41.9242 5.39887 42.3713 5.39887 42.9371H5.79887ZM6.44025 42.3242C6.80102 42.3242 7.08164 42.605 7.08164 42.9371H7.48164C7.48164 42.3713 7.00885 41.9242 6.44025 41.9242V42.3242ZM2.253 34.9963C1.72664 34.9963 1.2881 35.4102 1.2881 35.9353H1.6881C1.6881 35.644 1.93447 35.3963 2.253 35.3963V34.9963ZM5.56753 34.9963H2.253V35.3963H5.56753V34.9963ZM6.53242 35.9353C6.53242 35.4102 6.09388 34.9963 5.56753 34.9963V35.3963C5.88605 35.3963 6.13242 35.644 6.13242 35.9353H6.53242ZM5.56753 36.8743C6.09388 36.8743 6.53242 36.4603 6.53242 35.9353H6.13242C6.13242 36.2265 5.88605 36.4743 5.56753 36.4743V36.8743ZM2.253 36.8743H5.56753V36.4743H2.253V36.8743ZM1.2881 35.9353C1.2881 36.4603 1.72664 36.8743 2.253 36.8743V36.4743C1.93447 36.4743 1.6881 36.2265 1.6881 35.9353H1.2881ZM29.6096 24.7674L38.0235 33.1431L38.3057 32.8596L29.8918 24.484L29.6096 24.7674ZM30.7117 23.4504L29.6139 24.4798L29.8876 24.7716L30.9853 23.7422L30.7117 23.4504ZM39.4034 31.8301L30.9896 23.4545L30.7074 23.738L39.1212 32.1136L39.4034 31.8301ZM38.3014 33.1472L39.3991 32.1178L39.1255 31.826L38.0278 32.8554L38.3014 33.1472ZM26.3043 27.9799L31.6585 33.153L31.9365 32.8654L26.5822 27.6922L26.3043 27.9799ZM27.386 26.6471L26.3043 27.6922L26.5822 27.9799L27.6639 26.9347L27.386 26.6471ZM33.0182 31.8202L27.6639 26.6471L27.386 26.9347L32.7403 32.1079L33.0182 31.8202ZM31.9365 33.153L33.0182 32.1079L32.7403 31.8202L31.6585 32.8654L31.9365 33.153ZM54.3561 30.9005C54.8509 30.7166 55.1066 30.1738 54.9116 29.684L54.54 29.8319C54.6483 30.104 54.5105 30.4164 54.2168 30.5255L54.3561 30.9005ZM51.0416 32.1322L54.3561 30.9005L54.2168 30.5255L50.9023 31.7573L51.0416 32.1322ZM49.7976 31.5942C49.9912 32.0804 50.5498 32.3149 51.0416 32.1322L50.9023 31.7573C50.6054 31.8675 50.279 31.722 50.1692 31.4463L49.7976 31.5942ZM50.3531 30.3777C49.8583 30.5616 49.6026 31.1044 49.7976 31.5942L50.1692 31.4463C50.061 31.1742 50.1987 30.8618 50.4924 30.7527L50.3531 30.3777ZM53.6676 29.146L50.3531 30.3777L50.4924 30.7527L53.807 29.521L53.6676 29.146ZM54.9116 29.684C54.7181 29.1978 54.1594 28.9633 53.6676 29.146L53.807 29.521C54.1038 29.4107 54.4302 29.5562 54.54 29.8319L54.9116 29.684ZM56.2287 37.9348C56.7551 37.9382 57.1964 37.5271 57.2 37.0021L56.8 36.9994C56.798 37.2907 56.5499 37.5369 56.2313 37.5348L56.2287 37.9348ZM52.6776 37.912L56.2287 37.9348L56.2313 37.5348L52.6802 37.512L52.6776 37.912ZM51.7191 36.9667C51.7155 37.4918 52.1512 37.9087 52.6776 37.912L52.6802 37.512C52.3617 37.51 52.1171 37.2607 52.1191 36.9695L51.7191 36.9667ZM52.6903 36.034C52.164 36.0307 51.7227 36.4418 51.7191 36.9667L52.1191 36.9695C52.1211 36.6782 52.3692 36.432 52.6877 36.434L52.6903 36.034ZM56.2415 36.0568L52.6903 36.034L52.6877 36.434L56.2389 36.4568L56.2415 36.0568ZM57.2 37.0021C57.2036 36.477 56.7678 36.0602 56.2415 36.0568L56.2389 36.4568C56.5574 36.4589 56.802 36.7081 56.8 36.9994L57.2 37.0021ZM53.6938 43.825C54.1654 44.0538 54.7442 43.8726 54.9854 43.4085L54.6305 43.224C54.4925 43.4894 54.1519 43.6026 53.8684 43.4651L53.6938 43.825ZM50.5202 42.2853L53.6938 43.825L53.8684 43.4651L50.6948 41.9255L50.5202 42.2853ZM50.0897 41.0211C49.8464 41.4893 50.045 42.0548 50.5202 42.2853L50.6948 41.9255C50.415 41.7897 50.3089 41.4668 50.4447 41.2056L50.0897 41.0211ZM51.3813 40.6046C50.9097 40.3758 50.3309 40.557 50.0897 41.0211L50.4447 41.2056C50.5826 40.9402 50.9233 40.827 51.2067 40.9645L51.3813 40.6046ZM54.5549 42.1443L51.3813 40.6046L51.2067 40.9645L54.3803 42.5041L54.5549 42.1443ZM54.9854 43.4085C55.2287 42.9403 55.0301 42.3748 54.5549 42.1443L54.3803 42.5041C54.6601 42.6399 54.7662 42.9628 54.6305 43.224L54.9854 43.4085Z" fill="#1D1954"/>
<path d="M29.5858 19H16.4142C15.5233 19 15.0771 20.0771 15.7071 20.7071L22.2929 27.2929C22.6834 27.6834 23.3166 27.6834 23.7071 27.2929L30.2929 20.7071C30.6834 20.3166 30.6834 19.6834 30.2929 19.2929C30.1054 19.1054 29.851 19 29.5858 19Z" fill="#FF5A72"/>
</svg>
