<svg width="61" height="46" viewBox="0 0 61 46" fill="none" xmlns="http://www.w3.org/2000/svg">
<path d="M46.7902 45C52.9712 45 57.9818 39.9894 57.9818 33.8084C57.9818 27.6275 52.9712 22.6168 46.7902 22.6168C40.6093 22.6168 35.5986 27.6275 35.5986 33.8084C35.5986 39.9894 40.6093 45 46.7902 45Z" stroke="#1D1954" stroke-width="2" stroke-miterlimit="10" stroke-linecap="round" stroke-linejoin="round"/>
<path d="M37.1002 14.1732L35.1573 15.9219C34.3801 16.6213 33.4086 17.0099 32.3594 17.0099H27.1912H20.3521C19.3029 17.0099 18.3314 16.6213 17.5543 15.9219L15.6113 14.1732" stroke="#1D1954" stroke-width="2" stroke-miterlimit="10" stroke-linecap="round" stroke-linejoin="round"/>
<path d="M7.80078 21.4785L13.241 22.2168C14.6011 22.4111 15.6502 23.5769 15.6502 24.9758V26.3747H7.80078" stroke="#1D1954" stroke-width="2" stroke-miterlimit="10" stroke-linecap="round"/>
<path d="M3.56445 18.1367V31.1544" stroke="#1D1954" stroke-width="2" stroke-miterlimit="10" stroke-linecap="round" stroke-linejoin="round"/>
<path d="M3.56469 18.1367L1.38859 15.7663C1.11658 15.5332 1 15.1834 1 14.8337V12.269C1 11.5696 1.5829 10.9867 2.28236 10.9867H7.21739L11.4919 2.78749C12.3467 1.66059 13.6679 1 15.0669 1H26.1027H37.1386C38.5375 1 39.8587 1.66059 40.7136 2.78749L44.9881 10.9867H49.9231C50.6226 10.9867 51.2055 11.5696 51.2055 12.269V14.8337C51.2055 15.1834 51.05 15.5332 50.8169 15.7663L48.6408 18.1367V20.3128" stroke="#1D1954" stroke-width="2" stroke-miterlimit="10" stroke-linecap="round" stroke-linejoin="round"/>
<path d="M11.4916 31.1543V31.6206C11.4916 33.7967 9.70413 35.5842 7.52805 35.5842C5.35196 35.5842 3.56445 33.7967 3.56445 31.6206V31.1543" stroke="#1D1954" stroke-width="2" stroke-miterlimit="10" stroke-linecap="round" stroke-linejoin="round"/>
<path d="M33.2921 31.1543H26.8804H7.80078" stroke="#1D1954" stroke-width="2" stroke-miterlimit="10" stroke-linecap="round" stroke-linejoin="round"/>
<path d="M22.9941 26.3748H29.2504" stroke="#1D1954" stroke-width="2" stroke-miterlimit="10" stroke-linecap="round" stroke-linejoin="round"/>
<path d="M11.7246 11.0255H40.5189" stroke="#1D1954" stroke-width="2" stroke-miterlimit="10" stroke-linecap="round" stroke-linejoin="round"/>
<path d="M37.1775 3.37048H26.1417H15.1058C14.4841 3.37048 13.9012 3.6425 13.4737 4.10881L11.2588 8.34442H41.0246L38.8096 4.10881C38.3822 3.6425 37.7604 3.37048 37.1775 3.37048Z" fill="#FF5A72"/>
<path d="M46.8926 35.4335C47.7351 35.4335 48.4196 34.7489 48.4196 33.9064C48.4196 33.064 47.7351 32.3794 46.8926 32.3794C46.0501 32.3794 45.3655 33.064 45.3655 33.9065C45.3655 34.749 46.0501 35.4335 46.8926 35.4335Z" fill="#FF5A72"/>
<path d="M41.9676 40.6739L44.4428 38.1987C45.812 36.8295 48.0239 36.8295 49.3932 38.1987L51.8684 40.6739" stroke="#1D1954" stroke-width="2" stroke-miterlimit="10" stroke-linecap="round" stroke-linejoin="round"/>
<path d="M40.124 28.9817L42.5992 31.4569C43.9685 32.8261 43.9685 35.038 42.5992 36.4073L40.124 38.8825" stroke="#1D1954" stroke-width="2" stroke-miterlimit="10" stroke-linecap="round" stroke-linejoin="round"/>
<path d="M51.8156 27.139L49.3404 29.6142C47.9712 30.9835 45.7593 30.9834 44.3901 29.6142L41.9149 27.139" stroke="#1D1954" stroke-width="2" stroke-miterlimit="10" stroke-linecap="round" stroke-linejoin="round"/>
<path d="M53.6592 38.8301L51.184 36.3549C49.8147 34.9857 49.8147 32.7738 51.184 31.4045L53.6592 28.9293" stroke="#1D1954" stroke-width="2" stroke-miterlimit="10" stroke-linecap="round" stroke-linejoin="round"/>
</svg>
