<svg width="62" height="58" viewBox="0 0 62 58" fill="none" xmlns="http://www.w3.org/2000/svg">
<path d="M43.9839 49.9151V45.0882C46.3769 44.2607 48.3097 42.3299 49.138 39.9395H53.97V49.9151H43.9839Z" fill="#FF5A72"/>
<path fill-rule="evenodd" clip-rule="evenodd" d="M61.1374 32.1063C61.5056 32.1063 61.8041 32.4045 61.8041 32.7723V57.1367C61.8041 57.5045 61.5056 57.8027 61.1374 57.8027H36.7474C36.3792 57.8027 36.0807 57.5045 36.0807 57.1367V32.7723C36.0807 32.4045 36.3792 32.1063 36.7474 32.1063H61.1374ZM60.4707 33.4383H37.4141V56.4707H60.4707V33.4383Z" fill="#1D1954"/>
<path fill-rule="evenodd" clip-rule="evenodd" d="M29.1902 37.5964C29.1902 37.2286 29.4887 36.9304 29.8569 36.9304H36.8057C37.1739 36.9304 37.2609 37.2053 37.2609 37.5731C37.2609 37.941 37.1739 38.2625 36.8057 38.2625H29.8569C29.4887 38.2625 29.1902 37.9643 29.1902 37.5964Z" fill="#1D1954"/>
<path fill-rule="evenodd" clip-rule="evenodd" d="M29.1902 44.9056C29.1902 44.5378 29.4887 44.2396 29.8569 44.2396H36.8057C37.1739 44.2396 37.2609 44.5378 37.2609 44.9056C37.2609 45.2735 37.1739 45.5717 36.8057 45.5717H29.8569C29.4887 45.5717 29.1902 45.2735 29.1902 44.9056Z" fill="#1D1954"/>
<path fill-rule="evenodd" clip-rule="evenodd" d="M29.1902 52.2151C29.1902 51.8472 29.4887 51.549 29.8569 51.549H36.8057C37.1739 51.549 37.2609 51.8472 37.2609 52.2151C37.2609 52.5829 37.1739 52.8811 36.8057 52.8811H29.8569C29.4887 52.8811 29.1902 52.5829 29.1902 52.2151Z" fill="#1D1954"/>
<path fill-rule="evenodd" clip-rule="evenodd" d="M25.1407 52.2473C25.1483 50.7824 26.3642 49.5725 27.8322 49.5725C29.3049 49.5725 30.5238 50.79 30.5238 52.2612C30.5238 53.7323 29.3049 54.9499 27.8322 54.9499C26.3343 54.9499 25.086 53.7489 25.1407 52.2473ZM27.8322 50.9045C27.096 50.9045 26.4741 51.5257 26.4741 52.2612C26.4741 52.2704 26.4739 52.2797 26.4735 52.2889C26.4444 52.9874 27.0339 53.6179 27.8322 53.6179C28.5685 53.6179 29.1904 52.9966 29.1904 52.2612C29.1904 51.5257 28.5685 50.9045 27.8322 50.9045Z" fill="#1D1954"/>
<path fill-rule="evenodd" clip-rule="evenodd" d="M25.1407 44.9379C25.1483 43.473 26.3642 42.263 27.8322 42.263C29.3049 42.263 30.5238 43.4806 30.5238 44.9517C30.5238 46.4229 29.3049 47.6405 27.8322 47.6405C26.3343 47.6405 25.086 46.4395 25.1407 44.9379ZM27.8322 43.5951C27.096 43.5951 26.4741 44.2163 26.4741 44.9517C26.4741 44.961 26.4739 44.9702 26.4735 44.9795C26.4444 45.678 27.0339 46.3084 27.8322 46.3084C28.5685 46.3084 29.1904 45.6872 29.1904 44.9517C29.1904 44.2163 28.5685 43.5951 27.8322 43.5951Z" fill="#1D1954"/>
<path fill-rule="evenodd" clip-rule="evenodd" d="M27.8318 36.2396C27.0817 36.2396 26.4736 36.847 26.4736 37.5962C26.4736 38.3455 27.0817 38.9529 27.8318 38.9529C28.5818 38.9529 29.1902 38.3457 29.1902 37.5964C29.1902 36.8472 28.5818 36.2396 27.8318 36.2396ZM25.1402 37.5962C25.1402 36.1113 26.3453 34.9075 27.8318 34.9075C29.3183 34.9075 30.5233 36.1113 30.5233 37.5962C30.5233 39.0812 29.3183 40.285 27.8318 40.285C26.3453 40.285 25.1402 39.0812 25.1402 37.5962Z" fill="#1D1954"/>
<path fill-rule="evenodd" clip-rule="evenodd" d="M55.8568 25.1159C56.225 25.1159 56.5235 25.4141 56.5235 25.782V32.7235C56.5235 33.0913 56.225 33.3895 55.8568 33.3895C55.4885 33.3895 55.19 33.0913 55.19 32.7235V25.782C55.19 25.4141 55.4885 25.1159 55.8568 25.1159Z" fill="#1D1954"/>
<path fill-rule="evenodd" clip-rule="evenodd" d="M48.541 25.1159C48.9092 25.1159 49.2077 25.4141 49.2077 25.782V32.7235C49.2077 33.0913 48.9092 33.3895 48.541 33.3895C48.1728 33.3895 47.8743 33.0913 47.8743 32.7235V25.782C47.8743 25.4141 48.1728 25.1159 48.541 25.1159Z" fill="#1D1954"/>
<path fill-rule="evenodd" clip-rule="evenodd" d="M45.8497 23.7591C45.8497 22.2321 47.0785 21.0704 48.5412 21.0704C50.0139 21.0704 51.2328 22.288 51.2328 23.7591C51.2328 25.2302 50.0139 26.4478 48.5412 26.4478C47.0686 26.4478 45.8497 25.2302 45.8497 23.7591ZM48.5412 22.4024C47.795 22.4024 47.1831 22.9875 47.1831 23.7591C47.1831 24.4945 47.8048 25.1159 48.541 25.1159C49.2772 25.1159 49.8993 24.4945 49.8993 23.7591C49.8993 23.0236 49.2775 22.4024 48.5412 22.4024Z" fill="#1D1954"/>
<path fill-rule="evenodd" clip-rule="evenodd" d="M53.1671 23.7591C53.1671 22.2321 54.3959 21.0704 55.8587 21.0704C57.3313 21.0704 58.5502 22.288 58.5502 23.7591C58.5502 25.2302 57.3313 26.4478 55.8587 26.4478C54.386 26.4478 53.1671 25.2302 53.1671 23.7591ZM55.8587 22.4024C55.1125 22.4024 54.5005 22.9875 54.5005 23.7591C54.5005 24.4945 55.1224 25.1158 55.8587 25.1158C56.5949 25.1158 57.2168 24.4945 57.2168 23.7591C57.2168 23.0236 56.5949 22.4024 55.8587 22.4024Z" fill="#1D1954"/>
<path fill-rule="evenodd" clip-rule="evenodd" d="M46.2181 36.4705H47.8276V36.5164H57.4456V53.3405H40.6038V42.0789H41.2705C44.028 42.0789 46.2181 39.8522 46.2181 37.1365V36.4705ZM47.5116 37.8485H56.1122V52.0085H41.9372V43.3763C44.8805 43.0687 47.184 40.7468 47.5116 37.8485Z" fill="#1D1954"/>
<path fill-rule="evenodd" clip-rule="evenodd" d="M14.9636 13.4228C15.2139 13.1531 15.6357 13.1371 15.9058 13.3871L17.7953 15.1366C18.3977 15.7007 19.2427 16.0138 20.1005 16.0138H31.9733C32.8311 16.0138 33.6761 15.7007 34.2785 15.1366L34.2812 15.134L36.168 13.3871C36.4381 13.1371 36.8599 13.1531 37.1102 13.4228C37.3605 13.6926 37.3445 14.114 37.0744 14.3641L35.1904 16.1084L35.1889 16.1098C34.3188 16.9238 33.1397 17.3458 31.9733 17.3458H20.1005C18.9341 17.3458 17.7549 16.9238 16.8848 16.1097L14.9993 14.3641C14.7293 14.114 14.7133 13.6926 14.9636 13.4228Z" fill="#1D1954"/>
<path fill-rule="evenodd" clip-rule="evenodd" d="M44.5524 20.9566C44.6023 21.3211 44.347 21.6569 43.9821 21.7068L38.6082 22.4409C37.5382 22.6233 36.7813 23.5056 36.7813 24.5406V25.2537H43.8918C44.26 25.2537 44.5585 25.5519 44.5585 25.9198C44.5585 26.2876 44.26 26.5858 43.8918 26.5858H35.4479V24.5406C35.4479 22.8204 36.7115 21.4062 38.398 21.1255L38.4076 21.1239L43.8015 20.387C44.1663 20.3372 44.5025 20.5922 44.5524 20.9566Z" fill="#1D1954"/>
<path fill-rule="evenodd" clip-rule="evenodd" d="M6.96859 21.003C7.01848 20.6385 7.35467 20.3835 7.71949 20.4333L13.1015 21.1686L13.1027 21.1687C14.8238 21.3986 16.0731 22.8846 16.0731 24.587V26.6321H7.62916C7.26094 26.6321 6.96244 26.3339 6.96244 25.9661C6.96244 25.5982 7.26094 25.3001 7.62916 25.3001H14.7396V24.587C14.7396 23.5315 13.9646 22.6273 12.9253 22.4889L12.923 22.4886L7.53882 21.7531C7.174 21.7032 6.91869 21.3674 6.96859 21.003Z" fill="#1D1954"/>
<path fill-rule="evenodd" clip-rule="evenodd" d="M3.44098 17.1172C3.8092 17.1172 4.1077 17.4154 4.1077 17.7832V30.6549C4.1077 31.0228 3.8092 31.3209 3.44098 31.3209C3.07276 31.3209 2.77426 31.0228 2.77426 30.6549V17.7832C2.77426 17.4154 3.07276 17.1172 3.44098 17.1172Z" fill="#1D1954"/>
<path fill-rule="evenodd" clip-rule="evenodd" d="M11.7845 2.97074L7.57716 11.0568C7.46243 11.2773 7.23435 11.4156 6.98558 11.4156H2.10757C1.78553 11.4156 1.5318 11.6691 1.5318 11.9908V14.5192C1.5318 14.7092 1.59659 14.8358 1.70606 14.927C1.72851 14.9457 1.74971 14.9658 1.76951 14.9873L3.9324 17.3318C4.18194 17.6022 4.16472 18.0236 3.89395 18.2729C3.62318 18.5221 3.20139 18.5049 2.95185 18.2345L0.815473 15.9187C0.397898 15.5525 0.198364 15.0494 0.198364 14.5192V11.9908C0.198364 10.9335 1.04905 10.0836 2.10757 10.0836H6.58072L10.6277 2.30568C10.6446 2.27332 10.664 2.2424 10.6859 2.21323C11.6447 0.936262 13.1799 0.199951 14.7628 0.199951H36.6677C38.2505 0.199951 39.7858 0.936255 40.7446 2.21323C40.7665 2.2424 40.7859 2.27332 40.8028 2.30568L44.8498 10.0836H49.3229C50.3814 10.0836 51.2322 10.9334 51.2322 11.9908V14.5192C51.2322 15.0494 51.0326 15.5525 50.615 15.9187L48.4787 18.2345C48.2291 18.5049 47.8074 18.5221 47.5366 18.2729C47.2658 18.0236 47.2486 17.6022 47.4981 17.3318L49.661 14.9873C49.6808 14.9658 49.702 14.9457 49.7244 14.927C49.8339 14.8358 49.8987 14.7091 49.8987 14.5192V11.9908C49.8987 11.6691 49.645 11.4156 49.3229 11.4156H44.4449C44.1961 11.4156 43.9681 11.2773 43.8533 11.0568L39.646 2.97074C38.9457 2.06639 37.8283 1.53199 36.6677 1.53199H14.7628C13.6022 1.53199 12.4848 2.06638 11.7845 2.97074Z" fill="#1D1954"/>
<path fill-rule="evenodd" clip-rule="evenodd" d="M3.48766 29.9888C3.85588 29.9888 4.15438 30.287 4.15438 30.6548V31.1145C4.15438 32.9073 5.6046 34.356 7.39927 34.356C9.19393 34.356 10.6441 32.9073 10.6441 31.1145V30.6548C10.6441 30.287 10.9426 29.9888 11.3109 29.9888C11.6791 29.9888 11.9776 30.287 11.9776 30.6548V31.1145C11.9776 33.643 9.93037 35.688 7.39927 35.688C4.86816 35.688 2.82095 33.643 2.82095 31.1145V30.6548C2.82095 30.287 3.11945 29.9888 3.48766 29.9888Z" fill="#1D1954"/>
<path fill-rule="evenodd" clip-rule="evenodd" d="M6.96236 30.6548C6.96236 30.287 7.26086 29.9888 7.62908 29.9888H34.0439C34.4121 29.9888 34.7106 30.287 34.7106 30.6548C34.7106 31.0227 34.4121 31.3209 34.0439 31.3209H7.62908C7.26086 31.3209 6.96236 31.0227 6.96236 30.6548Z" fill="#1D1954"/>
<path fill-rule="evenodd" clip-rule="evenodd" d="M22.0113 25.9197C22.0113 25.5518 22.3098 25.2537 22.6781 25.2537H28.8906C29.2588 25.2537 29.5573 25.5518 29.5573 25.9197C29.5573 26.2875 29.2588 26.5857 28.8906 26.5857H22.6781C22.3098 26.5857 22.0113 26.2875 22.0113 25.9197Z" fill="#1D1954"/>
<path fill-rule="evenodd" clip-rule="evenodd" d="M10.8742 10.7497C10.8742 10.3819 11.1727 10.0837 11.5409 10.0837H40.0266C40.3948 10.0837 40.6933 10.3819 40.6933 10.7497C40.6933 11.1175 40.3948 11.4157 40.0266 11.4157H11.5409C11.1727 11.4157 10.8742 11.1175 10.8742 10.7497Z" fill="#1D1954"/>
<path fill-rule="evenodd" clip-rule="evenodd" d="M10.5275 2.09207C11.5251 0.763372 13.1196 0 14.7615 0H36.6665C38.3084 0 39.903 0.763362 40.9005 2.09207C40.929 2.12993 40.9542 2.17009 40.9761 2.21213L44.9678 9.88366H49.3217C50.4874 9.88366 51.428 10.8208 51.428 11.9895V14.5179C51.428 15.0965 51.2104 15.6532 50.7512 16.0601L48.6218 18.3684C48.2985 18.7188 47.7529 18.7409 47.4024 18.4182C47.0508 18.0946 47.0283 17.5466 47.3525 17.1952L49.5154 14.8507C49.541 14.8229 49.5685 14.7967 49.5976 14.7725C49.6581 14.7222 49.7004 14.6535 49.7004 14.5179V11.9895C49.7004 11.7791 49.5365 11.613 49.3217 11.613H44.4437C44.1222 11.613 43.8266 11.4342 43.6775 11.1477L39.4786 3.07773C38.8164 2.23187 37.7627 1.7293 36.6665 1.7293H14.7615C13.6653 1.7293 12.6116 2.23186 11.9495 3.07773L7.7505 11.1477C7.60144 11.4342 7.30577 11.613 6.98434 11.613H2.10633C1.89154 11.613 1.72768 11.7791 1.72768 11.9895V14.5179C1.72768 14.6536 1.7699 14.7222 1.83036 14.7725C1.85947 14.7967 1.88695 14.8229 1.91264 14.8507L4.07553 17.1952C4.23987 17.3733 4.31511 17.602 4.30358 17.8263V30.3722C4.33383 30.4603 4.35026 30.5549 4.35026 30.6535V31.1132C4.35026 32.7947 5.71061 34.1561 7.39802 34.1561C8.94765 34.1561 10.2214 33.0079 10.4191 31.5182H7.62783C7.15236 31.5182 6.76399 31.1327 6.76399 30.6535C6.76399 30.1744 7.15236 29.7889 7.62783 29.7889H34.0427C34.5181 29.7889 34.9065 30.1744 34.9065 30.6535C34.9065 31.1327 34.5181 31.5182 34.0427 31.5182H12.1566C11.9513 33.9677 9.90004 35.8854 7.39802 35.8854C4.75967 35.8854 2.62258 33.753 2.62258 31.1132V30.9349C2.59233 30.8468 2.5759 30.7522 2.5759 30.6536V18.1187L0.676777 16.0601C0.217617 15.6532 0 15.0965 0 14.5179V11.9895C0 10.8208 0.940548 9.88366 2.10633 9.88366H6.46026L10.4519 2.21212C10.4738 2.17009 10.4991 2.12994 10.5275 2.09207ZM2.97014 18.507V29.9603C3.11437 29.8525 3.29321 29.7889 3.48642 29.7889C3.63983 29.7889 3.78418 29.829 3.90934 29.8995V18.5084C3.62271 18.694 3.25309 18.6913 2.97014 18.507ZM3.90934 17.8144C3.90131 17.9289 3.85113 18.0408 3.75975 18.1249C3.56877 18.3007 3.27076 18.2884 3.09498 18.0979L2.97014 17.9626V17.7819C2.97014 17.5254 3.17877 17.3145 3.43974 17.3145C3.70071 17.3145 3.90934 17.5254 3.90934 17.7819V17.8144ZM3.29239 16.9298C2.95759 16.9874 2.68753 17.2382 2.60328 17.5649L0.958604 15.7822C0.953875 15.777 0.948881 15.7722 0.943642 15.7676C0.573152 15.4426 0.394241 14.9963 0.394241 14.5179V11.9895C0.394241 11.0435 1.15506 10.2809 2.10633 10.2809H6.57948C6.65278 10.2809 6.72002 10.2399 6.75406 10.1745L10.8011 2.39659C10.8129 2.37392 10.8265 2.35223 10.8419 2.33175C11.7618 1.10651 13.2378 0.397259 14.7615 0.397259H36.6665C38.1902 0.397259 39.6662 1.10651 40.5861 2.33175C40.6015 2.35223 40.6152 2.37392 40.6269 2.39658L44.674 10.1745C44.708 10.2399 44.7752 10.2809 44.8485 10.2809H49.3217C50.2729 10.2809 51.0338 11.0434 51.0338 11.9895V14.5179C51.0338 14.9963 50.8548 15.4426 50.4844 15.7676C50.4791 15.7722 50.4741 15.777 50.4694 15.7821L48.3331 18.0979C48.1573 18.2884 47.8593 18.3007 47.6683 18.1249C47.4783 17.95 47.4664 17.6552 47.6413 17.4657L49.8041 15.1212C49.818 15.1061 49.8329 15.0919 49.8487 15.0788C50.0072 14.9468 50.0946 14.7621 50.0946 14.5179V11.9895C50.0946 11.5565 49.751 11.2157 49.3217 11.2157H44.4437C44.2676 11.2157 44.1071 11.1178 44.0267 10.9632L39.8194 2.87719C39.8139 2.86664 39.8075 2.85662 39.8002 2.84723C39.0611 1.89277 37.8854 1.33204 36.6665 1.33204H14.7615C13.5426 1.33204 12.3669 1.89276 11.6278 2.84723C11.6206 2.85662 11.6142 2.86664 11.6087 2.87719L7.40134 10.9632C7.32094 11.1178 7.16045 11.2157 6.98434 11.2157H2.10633C1.67703 11.2157 1.33344 11.5565 1.33344 11.9895V14.5179C1.33344 14.7621 1.42079 14.9469 1.57927 15.0788C1.59506 15.0919 1.60997 15.1061 1.62389 15.1212L3.29239 16.9298ZM3.90934 30.4502C3.83361 30.2944 3.67346 30.1861 3.48642 30.1861C3.22545 30.1861 3.01682 30.397 3.01682 30.6535V30.8569C3.09255 31.0127 3.25271 31.121 3.43974 31.121C3.70071 31.121 3.90934 30.9101 3.90934 30.6536V30.4502ZM3.02694 31.4133C3.18097 33.6903 5.0753 35.4881 7.39802 35.4881C9.68496 35.4881 11.5566 33.7453 11.7608 31.5182H10.8165C10.6165 33.2304 9.16306 34.5533 7.39802 34.5533C5.57266 34.5533 4.08058 33.1385 3.96343 31.3413C3.81793 31.4524 3.63628 31.5183 3.43974 31.5183C3.29044 31.5183 3.14973 31.4803 3.02694 31.4133ZM10.84 31.1209H11.7792C11.7792 31.1183 11.7792 31.1158 11.7792 31.1132V30.6535C11.7792 30.397 11.5706 30.1861 11.3096 30.1861C11.0487 30.1861 10.84 30.397 10.84 30.6535V31.1132C10.84 31.1158 10.84 31.1183 10.84 31.1209ZM10.5827 30.1861H7.62783C7.36687 30.1861 7.15823 30.397 7.15823 30.6535C7.15823 30.91 7.36686 31.1209 7.62783 31.1209H10.4458C10.4458 31.1183 10.4458 31.1158 10.4458 31.1132V30.6535C10.4458 30.481 10.4961 30.3207 10.5827 30.1861ZM12.0366 30.1861C12.1231 30.3207 12.1735 30.481 12.1735 30.6535V31.1132C12.1735 31.1158 12.1735 31.1183 12.1735 31.1209H34.0427C34.3036 31.1209 34.5123 30.91 34.5123 30.6535C34.5123 30.397 34.3036 30.1861 34.0427 30.1861H12.0366ZM10.6758 10.7484C10.6758 10.2692 11.0642 9.88371 11.5397 9.88371H40.0254C40.5008 9.88371 40.8892 10.2692 40.8892 10.7484C40.8892 11.2275 40.5008 11.613 40.0254 11.613H11.5397C11.0642 11.613 10.6758 11.2275 10.6758 10.7484ZM11.5397 10.281C11.2787 10.281 11.0701 10.4919 11.0701 10.7484C11.0701 11.0049 11.2787 11.2158 11.5397 11.2158H40.0254C40.2863 11.2158 40.495 11.0049 40.495 10.7484C40.495 10.4919 40.2863 10.281 40.0254 10.281H11.5397ZM43.7737 20.1889C44.2447 20.1245 44.6814 20.4537 44.7464 20.9282C44.8114 21.403 44.4787 21.8379 44.0074 21.9023L38.6367 22.636C37.6577 22.8043 36.9772 23.6077 36.9772 24.5393V25.0538H43.8906C44.366 25.0538 44.7544 25.4393 44.7544 25.9184C44.7544 26.3976 44.366 26.7831 43.8906 26.7831H35.2495V24.5393C35.2495 22.7158 36.589 21.2238 38.3645 20.9282L38.3798 20.9256L43.7737 20.1889ZM44.3559 20.9825C44.321 20.7281 44.0854 20.5472 43.8267 20.5825L38.4357 21.319L38.4289 21.3201C36.8316 21.586 35.6438 22.9223 35.6438 24.5393V26.3858H43.8906C44.1515 26.3858 44.3602 26.175 44.3602 25.9184C44.3602 25.6619 44.1515 25.4511 43.8906 25.4511H36.583V24.5393C36.583 23.4018 37.4148 22.4413 38.574 22.2437L38.5804 22.2426L43.9544 21.5086C44.2127 21.4733 44.3906 21.2365 44.3559 20.9825ZM6.77207 20.9745C6.83702 20.5 7.27374 20.1708 7.74473 20.2352L13.1261 20.9703L13.1273 20.9705C14.9483 21.2137 16.2689 22.7855 16.2689 24.5856V26.8294H7.62791C7.15244 26.8294 6.76407 26.4439 6.76407 25.9648C6.76407 25.4856 7.15244 25.1001 7.62791 25.1001H14.5413V24.5856C14.5413 23.6283 13.838 22.8097 12.8982 22.6845L12.896 22.6842L7.5111 21.9486C7.03976 21.8842 6.70707 21.4493 6.77207 20.9745ZM7.69177 20.6288C7.43311 20.5935 7.19744 20.7744 7.16261 21.0288C7.12784 21.2828 7.30575 21.5196 7.56406 21.5549L12.9476 22.2904L12.9498 22.2907C14.0886 22.4423 14.9355 23.432 14.9355 24.5856V25.4974H7.62791C7.36694 25.4974 7.15831 25.7082 7.15831 25.9648C7.15831 26.2213 7.36694 26.4321 7.62791 26.4321H15.8747V24.5856C15.8747 22.981 14.6969 21.5808 13.0755 21.3643L13.0744 21.3641L7.69177 20.6288ZM45.6513 23.7578C45.6513 22.1163 46.9732 20.8704 48.54 20.8704C50.1199 20.8704 51.4287 22.1753 51.4287 23.7578C51.4287 25.0397 50.5698 26.1395 49.4036 26.511V31.9063H54.9917V26.5103C53.8266 26.1382 52.9687 25.0389 52.9687 23.7578C52.9687 22.1163 54.2906 20.8704 55.8574 20.8704C57.4373 20.8704 58.7461 22.1753 58.7461 23.7578C58.7461 25.0403 57.8864 26.1406 56.7194 26.5115V31.9063H61.1362C61.6116 31.9063 62 32.2918 62 32.771V57.1354C62 57.6145 61.6116 58 61.1362 58H36.7462C36.2707 58 35.8823 57.6145 35.8823 57.1354V53.0784H30.5994C30.2416 54.2683 29.1276 55.1472 27.831 55.1472C26.2326 55.1472 24.8851 53.8645 24.9424 52.2418C24.9523 50.6675 26.2571 49.3725 27.831 49.3725C29.0939 49.3725 30.1836 50.2063 30.57 51.3491H35.8823V45.769H30.5994C30.2416 46.9589 29.1276 47.8378 27.831 47.8378C26.2326 47.8378 24.8851 46.5551 24.9424 44.9324C24.9523 43.3581 26.2571 42.0631 27.831 42.0631C29.0939 42.0631 30.1836 42.8968 30.57 44.0397H35.8823V38.4598H30.5874C30.2196 39.6327 29.1234 40.4823 27.8305 40.4823C26.2368 40.4823 24.9418 39.1912 24.9418 37.5949C24.9418 35.9986 26.2368 34.7076 27.8305 34.7076C29.1235 34.7076 30.2198 35.5574 30.5876 36.7305H35.8823V32.771C35.8823 32.2918 36.2707 31.9063 36.7462 31.9063H47.6759V26.5109C46.51 26.1392 45.6513 25.0396 45.6513 23.7578ZM48.0702 26.6062V31.9063H49.0094V26.6062C48.8564 26.6318 48.6996 26.6451 48.54 26.6451C48.3802 26.6451 48.2233 26.6318 48.0702 26.6062ZM49.0094 26.2026C48.8571 26.2323 48.7002 26.2479 48.54 26.2479C48.3796 26.2479 48.2225 26.2323 48.0702 26.2026V25.7806C48.0702 25.5241 48.2788 25.3133 48.5398 25.3133C48.8007 25.3133 49.0094 25.5241 49.0094 25.7806V26.2026ZM49.4036 26.091C50.3506 25.7354 51.0344 24.8161 51.0344 23.7578C51.0344 22.398 49.9054 21.2677 48.54 21.2677C47.1813 21.2677 46.0455 22.3453 46.0455 23.7578C46.0455 24.8159 46.7292 25.7351 47.6759 26.0908V25.7806C47.6759 25.5466 47.7686 25.3349 47.9188 25.1796C47.3744 24.9354 46.9847 24.3843 46.9847 23.7578C46.9847 22.8724 47.6891 22.2025 48.54 22.2025C49.3835 22.2025 50.0952 22.911 50.0952 23.7578C50.0952 24.3844 49.7053 24.9354 49.1608 25.1796C49.311 25.3349 49.4036 25.5466 49.4036 25.7806V26.091ZM48.5398 24.916C49.1688 24.916 49.701 24.3819 49.701 23.7578C49.701 23.1336 49.169 22.5997 48.54 22.5997C47.8985 22.5997 47.379 23.1 47.379 23.7578C47.379 24.382 47.9109 24.916 48.5398 24.916ZM49.0094 32.3036H48.0702V32.7222C48.0702 32.9787 48.2788 33.1896 48.5398 33.1896C48.8007 33.1896 49.0094 32.9787 49.0094 32.7222V32.3036ZM47.6759 32.3036H36.7462C36.4852 32.3036 36.2766 32.5145 36.2766 32.771V36.7305H36.8045C36.971 36.7305 37.1099 36.776 37.2158 36.8641V33.437C37.2158 33.3273 37.304 33.2384 37.4129 33.2384H47.8466C47.7395 33.0945 47.6759 32.916 47.6759 32.7222V32.3036ZM49.2329 33.2384H55.1624C55.0552 33.0945 54.9917 32.916 54.9917 32.7222V32.3036H49.4036V32.7222C49.4036 32.916 49.3401 33.0945 49.2329 33.2384ZM55.3859 32.3036V32.7222C55.3859 32.9787 55.5945 33.1896 55.8555 33.1896C56.1165 33.1896 56.3251 32.9787 56.3251 32.7222V32.3036H55.3859ZM56.3251 31.9063V26.6065C56.1727 26.6319 56.0164 26.6451 55.8574 26.6451C55.6971 26.6451 55.5396 26.6317 55.3859 26.6059V31.9063H56.3251ZM55.3859 26.2022C55.5388 26.2322 55.6965 26.2479 55.8574 26.2479C56.017 26.2479 56.1734 26.2324 56.3251 26.203V25.7806C56.3251 25.5241 56.1165 25.3133 55.8555 25.3133C55.5945 25.3133 55.3859 25.5241 55.3859 25.7806V26.2022ZM56.7194 26.0916C57.6672 25.7365 58.3518 24.8167 58.3518 23.7578C58.3518 22.398 57.2228 21.2677 55.8574 21.2677C54.4988 21.2677 53.363 22.3453 53.363 23.7578C53.363 24.8153 54.0458 25.734 54.9917 26.0902V25.7806C54.9917 25.5463 55.0846 25.3343 55.2352 25.1789C54.6914 24.9345 54.3022 24.3839 54.3022 23.7578C54.3022 22.8724 55.0065 22.2025 55.8574 22.2025C56.7009 22.2025 57.4127 22.911 57.4127 23.7578C57.4127 24.3849 57.0222 24.9363 56.477 25.1801C56.6269 25.3354 56.7194 25.5469 56.7194 25.7806V26.0916ZM56.7194 32.3036V32.7222C56.7194 32.916 56.6558 33.0945 56.5486 33.2384H60.4694C60.5783 33.2384 60.6666 33.3273 60.6666 33.437V56.4693C60.6666 56.579 60.5783 56.668 60.4694 56.668H37.4129C37.304 56.668 37.2158 56.579 37.2158 56.4693V52.9385C37.189 52.9617 37.1595 52.9826 37.127 53.0009C37.0322 53.0542 36.9232 53.0784 36.8045 53.0784H36.2766V57.1354C36.2766 57.3919 36.4852 57.6027 36.7462 57.6027H61.1362C61.3971 57.6027 61.6058 57.3919 61.6058 57.1354V32.771C61.6058 32.5145 61.3971 32.3036 61.1362 32.3036H56.7194ZM36.2766 52.6811H36.8045C36.8699 52.6811 36.9099 52.6681 36.9349 52.654C36.9592 52.6403 36.9801 52.6198 36.9986 52.5868C37.0402 52.5129 37.0625 52.3899 37.0625 52.2137C37.0625 52.0376 37.0402 51.9146 36.9986 51.8407C36.9801 51.8077 36.9592 51.7872 36.9349 51.7735C36.9099 51.7595 36.8699 51.7464 36.8045 51.7464H36.2766V52.6811ZM35.8823 51.7464H30.6731C30.7037 51.9132 30.7197 52.0848 30.7197 52.2599C30.7197 52.4028 30.709 52.5435 30.6884 52.6811H35.8823V51.7464ZM30.2889 52.6811C30.3129 52.544 30.3254 52.4032 30.3254 52.2599C30.3254 52.0842 30.3066 51.9124 30.2709 51.7464H29.8556C29.5947 51.7464 29.3861 51.9572 29.3861 52.2137C29.3861 52.4703 29.5947 52.6811 29.8556 52.6811H30.2889ZM30.1493 51.3491C29.7806 50.4304 28.8749 49.7698 27.831 49.7698C26.4699 49.7698 25.3436 50.8929 25.3366 52.247L25.3366 52.2533C25.2864 53.6324 26.4345 54.75 27.831 54.75C28.9095 54.75 29.8405 54.0448 30.1841 53.0784H29.8556C29.6289 53.0784 29.4219 52.9907 29.2674 52.847C29.0309 53.4103 28.4686 53.8152 27.831 53.8152C26.9289 53.8152 26.2412 53.0989 26.2754 52.2792C26.2756 52.2728 26.2758 52.2663 26.2758 52.2599C26.2758 51.4131 26.9875 50.7045 27.831 50.7045C28.4441 50.7045 28.9876 51.0789 29.2387 51.6085C29.3958 51.4483 29.6145 51.3491 29.8556 51.3491H30.1493ZM36.2766 51.3491H36.8045C36.9232 51.3491 37.0322 51.3733 37.127 51.4266C37.1595 51.4449 37.189 51.4659 37.2158 51.489V45.6291C37.189 45.6522 37.1595 45.6732 37.127 45.6914C37.0322 45.7448 36.9232 45.769 36.8045 45.769H36.2766V51.3491ZM36.2766 45.3717H36.8045C36.8699 45.3717 36.9099 45.3586 36.9349 45.3446C36.9592 45.3309 36.9801 45.3103 36.9986 45.2773C37.0402 45.2034 37.0625 45.0804 37.0625 44.9043C37.0625 44.7282 37.0402 44.6052 36.9986 44.5313C36.9801 44.4983 36.9592 44.4777 36.9349 44.4641C36.9099 44.45 36.8699 44.4369 36.8045 44.4369H36.2766V45.3717ZM35.8823 44.4369H30.6731C30.7037 44.6038 30.7197 44.7754 30.7197 44.9504C30.7197 45.0934 30.709 45.234 30.6884 45.3717H35.8823V44.4369ZM30.2889 45.3717C30.3129 45.2345 30.3254 45.0938 30.3254 44.9504C30.3254 44.7748 30.3066 44.603 30.2709 44.4369H29.8556C29.5947 44.4369 29.3861 44.6478 29.3861 44.9043C29.3861 45.1608 29.5947 45.3717 29.8556 45.3717H30.2889ZM30.1493 44.0397C29.7806 43.1209 28.8749 42.4603 27.831 42.4603C26.4699 42.4603 25.3436 43.5835 25.3366 44.9376L25.3366 44.9438C25.2864 46.3229 26.4345 47.4405 27.831 47.4405C28.9095 47.4405 29.8405 46.7354 30.1841 45.769H29.8556C29.6289 45.769 29.4219 45.6813 29.2674 45.5375C29.0309 46.1009 28.4686 46.5057 27.831 46.5057C26.9289 46.5057 26.2412 45.7895 26.2754 44.9698C26.2756 44.9633 26.2758 44.9569 26.2758 44.9504C26.2758 44.1036 26.9875 43.3951 27.831 43.3951C28.4441 43.3951 28.9876 43.7694 29.2387 44.2991C29.3958 44.1388 29.6145 44.0397 29.8556 44.0397H30.1493ZM36.2766 44.0397H36.8045C36.9232 44.0397 37.0322 44.0639 37.127 44.1172C37.1595 44.1355 37.189 44.1564 37.2158 44.1796V38.3139C37.1904 38.3366 37.1624 38.3575 37.1316 38.3759C37.0362 38.4331 36.9257 38.4598 36.8045 38.4598H36.2766V44.0397ZM36.2766 38.0625H36.8045C36.8674 38.0625 36.9058 38.049 36.9302 38.0344C36.9546 38.0198 36.9769 37.9971 36.9967 37.96C37.0404 37.8785 37.0625 37.7474 37.0625 37.5718C37.0625 37.3951 37.0399 37.2804 37.0008 37.2141C36.9739 37.1687 36.9303 37.1277 36.8045 37.1277H36.2766V38.0625ZM35.8823 37.1277H30.6816C30.7063 37.2798 30.7192 37.4358 30.7192 37.5949C30.7192 37.7541 30.7063 37.9103 30.6815 38.0625H35.8823V37.1277ZM30.281 38.0625C30.3099 37.911 30.325 37.7547 30.325 37.5949C30.325 37.4353 30.3099 37.2791 30.2811 37.1277H29.8556C29.5947 37.1277 29.3861 37.3386 29.3861 37.5951C29.3861 37.8516 29.5947 38.0625 29.8556 38.0625H30.281ZM29.2564 36.9724C29.016 36.4227 28.4671 36.0396 27.8305 36.0396C26.9732 36.0396 26.2753 36.7343 26.2753 37.5949C26.2753 38.4555 26.9732 39.1502 27.8305 39.1502C28.467 39.1502 29.0159 38.7674 29.2564 38.2179C29.4119 38.3678 29.6234 38.4598 29.8556 38.4598H30.1703C29.8184 39.408 28.9045 40.085 27.8305 40.085C26.4513 40.085 25.3361 38.9685 25.3361 37.5949C25.3361 36.2213 26.4513 35.1048 27.8305 35.1048C28.9047 35.1048 29.8187 35.782 30.1705 36.7305H29.8556C29.6234 36.7305 29.412 36.8224 29.2564 36.9724ZM28.9918 37.5951C28.9918 38.233 28.4734 38.753 27.8305 38.753C27.1877 38.753 26.6695 38.2329 26.6695 37.5949C26.6695 36.957 27.1877 36.4369 27.8305 36.4369C28.4734 36.4369 28.9918 36.9572 28.9918 37.5951ZM55.8574 22.5997C55.216 22.5997 54.6964 23.1 54.6964 23.7578C54.6964 24.3819 55.2284 24.9158 55.8574 24.9158C56.4864 24.9158 57.0184 24.3819 57.0184 23.7578C57.0184 23.1336 56.4864 22.5997 55.8574 22.5997ZM21.813 25.9184C21.813 25.4392 22.2013 25.0537 22.6768 25.0537H28.8894C29.3648 25.0537 29.7532 25.4392 29.7532 25.9184C29.7532 26.3975 29.3648 26.783 28.8894 26.783H22.6768C22.2013 26.783 21.813 26.3975 21.813 25.9184ZM22.6768 25.451C22.4158 25.451 22.2072 25.6619 22.2072 25.9184C22.2072 26.1749 22.4158 26.3857 22.6768 26.3857H28.8894C29.1503 26.3857 29.359 26.1749 29.359 25.9184C29.359 25.6618 29.1503 25.451 28.8894 25.451H22.6768ZM37.61 33.6356V56.2707H60.2723V33.6356H37.61ZM46.0197 36.2705H48.0235V36.3165H57.6415V53.5379H40.4054V41.8789H41.2693C43.9185 41.8789 46.0197 39.7406 46.0197 37.1352V36.2705ZM47.6293 36.6678H46.414V37.1352C46.414 39.9612 44.135 42.2762 41.2693 42.2762H40.7997V53.1406H57.2472V36.7137H47.6293V36.6678ZM47.3344 37.6485H56.308V52.2058H41.7389V43.1959L41.9156 43.1774C44.7671 42.8795 46.9974 40.6302 47.3145 37.8247L47.3344 37.6485ZM47.6838 38.0458C47.2824 40.8965 45.0241 43.1696 42.1331 43.5516V51.8086H55.9138V38.0458H47.6838ZM27.831 43.7924C27.202 43.7924 26.67 44.3263 26.67 44.9504C26.67 44.9625 26.6698 44.9745 26.6693 44.9865C26.6452 45.5638 27.1363 46.1085 27.831 46.1085C28.46 46.1085 28.992 45.5746 28.992 44.9504C28.992 44.3263 28.46 43.7924 27.831 43.7924ZM27.831 51.1018C27.202 51.1018 26.67 51.6357 26.67 52.2599C26.67 52.2719 26.6698 52.2839 26.6693 52.2959C26.6452 52.8732 27.1363 53.4179 27.831 53.4179C28.46 53.4179 28.992 52.884 28.992 52.2599C28.992 51.6357 28.46 51.1018 27.831 51.1018Z" fill="#1D1954"/>
</svg>
