<svg width="46" height="60" viewBox="0 0 46 60" fill="none" xmlns="http://www.w3.org/2000/svg">
<path fill-rule="evenodd" clip-rule="evenodd" d="M22.6613 1.05181C27.1651 0.494612 31 4.5052 31 9.52966C31 10.7839 30.78 11.9638 30.2829 13.0514C29.4687 15.0903 28.7081 17.0994 28.149 19.1895C28.1488 19.1901 28.1487 19.1907 28.1485 19.1913L26.7575 24.4988C26.6796 24.7962 26.4389 25 26.1658 25H20.7616C20.4888 25 20.2484 24.7967 20.1701 24.4999L18.6967 18.9105C18.6966 18.9102 18.6967 18.9108 18.6967 18.9105C18.1756 16.9491 17.492 15.0248 16.7232 13.1365C16.1449 11.7676 15.876 10.1911 16.0546 8.56043C16.4563 4.66017 19.2129 1.46039 22.6613 1.05181ZM29.7651 9.52966C29.7651 5.32979 26.5592 1.97943 22.7938 2.44612L22.7907 2.4465C19.9359 2.78404 17.6171 5.45284 17.2809 8.72567L17.2803 8.73123C17.1323 10.0794 17.3538 11.3887 17.8383 12.5339L17.8422 12.5432C18.6283 14.4735 19.3361 16.4619 19.8789 18.5054L19.8793 18.5069L21.2213 23.5976H25.7053L26.9659 18.7875L26.9669 18.7837C27.5525 16.5941 28.3446 14.5092 29.1652 12.4547C29.17 12.4428 29.175 12.4311 29.1803 12.4195C29.5781 11.5553 29.7651 10.5981 29.7651 9.52966Z" fill="#1D1954"/>
<path d="M18.6967 18.9105L20.1701 24.4999C20.2484 24.7967 20.4888 25 20.7616 25H26.1658C26.4389 25 26.6796 24.7962 26.7575 24.4988L28.1485 19.1913C28.1487 19.1907 28.1488 19.1901 28.149 19.1895C28.7081 17.0994 29.4687 15.0903 30.2829 13.0514C30.78 11.9638 31 10.7839 31 9.52966C31 4.5052 27.1651 0.494612 22.6613 1.05181C19.2129 1.46039 16.4563 4.66017 16.0546 8.56043C15.876 10.1911 16.1449 11.7676 16.7232 13.1365C17.492 15.0248 18.1756 16.9491 18.6967 18.9105ZM18.6967 18.9105C18.6967 18.9108 18.6966 18.9102 18.6967 18.9105ZM22.7938 2.44612C26.5592 1.97943 29.7651 5.32979 29.7651 9.52966C29.7651 10.5981 29.5781 11.5553 29.1803 12.4195C29.175 12.4311 29.17 12.4428 29.1652 12.4547C28.3446 14.5092 27.5525 16.5941 26.9669 18.7837L26.9659 18.7875L25.7053 23.5976H21.2213L19.8793 18.5069L19.8789 18.5054C19.3361 16.4619 18.6283 14.4735 17.8422 12.5432L17.8383 12.5339C17.3538 11.3887 17.1323 10.0794 17.2803 8.73123L17.2809 8.72567C17.6171 5.45284 19.9359 2.78404 22.7907 2.4465L22.7938 2.44612Z" stroke="#1D1954" stroke-width="0.4" stroke-miterlimit="10" stroke-linecap="round" stroke-linejoin="round"/>
<path fill-rule="evenodd" clip-rule="evenodd" d="M29 37.6987C29 37.3128 29.2699 37 29.6029 37H36.2785C37.7719 37 39 38.4284 39 40.1592V51.3013C39 51.6872 38.7301 52 38.3971 52C38.0642 52 37.7942 51.6872 37.7942 51.3013V40.1592C37.7942 39.1974 37.1036 38.3974 36.2785 38.3974H29.6029C29.2699 38.3974 29 38.0846 29 37.6987Z" fill="#1D1954" stroke="#1D1954" stroke-width="0.4" stroke-miterlimit="10" stroke-linecap="round" stroke-linejoin="round"/>
<path fill-rule="evenodd" clip-rule="evenodd" d="M10.0057 38.3974C9.09442 38.3974 8.33165 39.1974 8.33165 40.1592V51.3013C8.33165 51.6872 8.03355 52 7.66583 52C7.2981 52 7 51.6872 7 51.3013V40.1592C7 38.4284 8.35636 37 10.0057 37H17.3342C17.7019 37 18 37.3128 18 37.6987C18 38.0846 17.7019 38.3974 17.3342 38.3974H10.0057Z" fill="#1D1954" stroke="#1D1954" stroke-width="0.4" stroke-miterlimit="10" stroke-linecap="round" stroke-linejoin="round"/>
<path fill-rule="evenodd" clip-rule="evenodd" d="M4.55729 52.4948C3.35892 52.4948 2.35683 53.5988 2.35683 54.9255V57.5052H43.6432V54.9255C43.6432 53.5988 42.6411 52.4948 41.4427 52.4948H4.55729ZM44.3216 58.2526H45V54.9255C45 52.7762 43.3931 51 41.4427 51H4.55729C2.6069 51 1 52.7762 1 54.9255V59H44.3216V58.2526Z" fill="#1D1954" stroke="#1D1954" stroke-width="0.4" stroke-miterlimit="10" stroke-linecap="round"/>
<path fill-rule="evenodd" clip-rule="evenodd" d="M20.647 23C21.0044 23 21.2941 23.2985 21.2941 23.6666V42.2703C21.2941 42.4793 21.4776 42.6667 21.6766 42.6667H25.3233C25.5224 42.6667 25.7059 42.4792 25.7059 42.2703V23.6666C25.7059 23.2985 25.9956 23 26.353 23C26.7103 23 27 23.2985 27 23.6666V42.2703C27 43.213 26.2397 44 25.3233 44H21.6766C20.7603 44 20 43.2129 20 42.2703V23.6666C20 23.2985 20.2897 23 20.647 23Z" fill="#1D1954" stroke="#1D1954" stroke-width="0.4" stroke-miterlimit="10" stroke-linecap="round" stroke-linejoin="round"/>
<path fill-rule="evenodd" clip-rule="evenodd" d="M14.6651 41C15.0324 41 15.3302 41.3022 15.3302 41.6749V45.8453C15.3302 46.281 15.6953 46.6502 16.1204 46.6502H29.8796C30.3047 46.6502 30.6698 46.281 30.6698 45.8453V41.6749C30.6698 41.3022 30.9676 41 31.3349 41C31.7022 41 32 41.3022 32 41.6749V45.8453C32 47.0238 31.042 48 29.8796 48H16.1204C14.958 48 14 47.0238 14 45.8453V41.6749C14 41.3022 14.2978 41 14.6651 41Z" fill="#1D1954" stroke="#1D1954" stroke-width="0.4" stroke-miterlimit="10" stroke-linecap="round" stroke-linejoin="round"/>
<path d="M19.8182 11C20.9453 9.66474 22.1976 8.9364 23.5334 8.9364C24.8692 8.9364 26.1216 9.7052 27.2486 11C27.3739 10.7168 27.4991 10.4335 27.6243 10.1503C27.8748 9.5838 28 8.97688 28 8.36994C28 5.98266 25.9963 4 23.4917 4C23.3247 4 23.1577 3.99999 22.9907 4.04045C20.9453 4.24276 19.2755 5.86126 19.025 7.88439C18.9416 8.69363 19.0668 9.50288 19.4008 10.2312C19.5677 10.474 19.693 10.7572 19.8182 11Z" fill="#FF5A72"/>
</svg>
