<svg width="60" height="60" viewBox="0 0 60 60" fill="none" xmlns="http://www.w3.org/2000/svg">
<path fill-rule="evenodd" clip-rule="evenodd" d="M33.7012 8.4436C47.6536 8.4436 58.999 19.7342 58.999 33.7219C58.999 47.6635 47.6997 59.0001 33.7012 59.0001C19.7487 59.0001 8.40332 47.7095 8.40332 33.7219H9.6642C9.6642 47.0122 20.4436 57.7402 33.7012 57.7402C47.0018 57.7402 57.7381 46.9691 57.7381 33.7219C57.7381 20.4315 46.9587 9.7035 33.7012 9.7035V8.4436Z" fill="#1D1954" stroke="#1D1954" stroke-width="0.4" stroke-miterlimit="10"/>
<path fill-rule="evenodd" clip-rule="evenodd" d="M2.26704 33.0918H13.6333C13.9593 22.5034 22.4754 13.9939 33.0721 13.6681V2.2661C16.2119 2.5977 2.59806 16.201 2.26704 33.0918ZM1 33.7218C1 15.6348 15.645 1 33.7025 1H34.3329V14.9184H33.7025C23.3005 14.9184 14.8845 23.3278 14.8845 33.7218V34.3517H1V33.7218Z" fill="#1D1954" stroke="#1D1954" stroke-width="0.4" stroke-miterlimit="10"/>
<path fill-rule="evenodd" clip-rule="evenodd" d="M24.9517 24.964C20.1113 29.8006 20.1113 37.6423 24.9517 42.4789C29.7921 47.3155 37.6399 47.3155 42.4802 42.4789C47.3206 37.6423 47.3206 29.8006 42.4802 24.964C37.6399 20.1273 29.7921 20.1273 24.9517 24.964ZM24.0601 43.3698C18.7274 38.0412 18.7274 29.4017 24.0601 24.0731C29.3929 18.7444 38.039 18.7444 43.3718 24.0731C48.7046 29.4017 48.7046 38.0412 43.3718 43.3698C38.039 48.6984 29.3929 48.6984 24.0601 43.3698Z" fill="#1D1954" stroke="#1D1954" stroke-width="0.4" stroke-miterlimit="10"/>
<path fill-rule="evenodd" clip-rule="evenodd" d="M30.9668 30.8819C29.3962 32.406 29.3594 34.9138 30.8848 36.4833C32.4101 38.0527 34.9199 38.0894 36.4905 36.5652C38.0611 35.0411 38.0979 32.5333 36.5726 30.9638C35.0472 29.3944 32.5375 29.3577 30.9668 30.8819ZM29.9802 37.3611C27.9697 35.2924 28.0181 31.9869 30.0883 29.978C32.1586 27.969 35.4667 28.0174 37.4772 30.086C39.4877 32.1547 39.4392 35.4602 37.369 37.4691C35.2988 39.4781 31.9907 39.4297 29.9802 37.3611Z" fill="#1D1954" stroke="#1D1954" stroke-width="0.4" stroke-miterlimit="10"/>
<path fill-rule="evenodd" clip-rule="evenodd" d="M33.7032 23.5979C34.0514 23.5979 34.3337 23.8799 34.3337 24.2279V25.8325C34.3337 26.1804 34.0514 26.4625 33.7032 26.4625C33.355 26.4625 33.0728 26.1804 33.0728 25.8325V24.2279C33.0728 23.8799 33.355 23.5979 33.7032 23.5979Z" fill="#1D1954" stroke="#1D1954" stroke-width="0.4" stroke-miterlimit="10" stroke-linecap="round" stroke-linejoin="round"/>
<path fill-rule="evenodd" clip-rule="evenodd" d="M26.567 26.5458C26.8132 26.2998 27.2124 26.2998 27.4586 26.5458L28.6184 27.7047C28.8646 27.9508 28.8646 28.3496 28.6184 28.5957C28.3722 28.8417 27.973 28.8417 27.7268 28.5957L26.567 27.4368C26.3208 27.1907 26.3208 26.7919 26.567 26.5458Z" fill="#1D1954" stroke="#1D1954" stroke-width="0.4" stroke-miterlimit="10" stroke-linecap="round" stroke-linejoin="round"/>
<path fill-rule="evenodd" clip-rule="evenodd" d="M23.5713 33.722C23.5713 33.3741 23.8536 33.092 24.2018 33.092H25.8523C26.2004 33.092 26.4827 33.3741 26.4827 33.722C26.4827 34.0699 26.2004 34.352 25.8523 34.352H24.2018C23.8536 34.352 23.5713 34.0699 23.5713 33.722Z" fill="#1D1954" stroke="#1D1954" stroke-width="0.4" stroke-miterlimit="10" stroke-linecap="round" stroke-linejoin="round"/>
<path fill-rule="evenodd" clip-rule="evenodd" d="M28.6184 38.8034C28.8646 39.0494 28.8646 39.4483 28.6184 39.6943L27.4586 40.8532C27.2124 41.0993 26.8132 41.0993 26.567 40.8532C26.3208 40.6072 26.3208 40.2083 26.567 39.9623L27.7268 38.8034C27.973 38.5574 28.3722 38.5574 28.6184 38.8034Z" fill="#1D1954" stroke="#1D1954" stroke-width="0.4" stroke-miterlimit="10" stroke-linecap="round" stroke-linejoin="round"/>
<path fill-rule="evenodd" clip-rule="evenodd" d="M33.7032 40.9365C34.0514 40.9365 34.3337 41.2186 34.3337 41.5665V43.1711C34.3337 43.5191 34.0514 43.8011 33.7032 43.8011C33.355 43.8011 33.0728 43.5191 33.0728 43.1711V41.5665C33.0728 41.2186 33.355 40.9365 33.7032 40.9365Z" fill="#1D1954" stroke="#1D1954" stroke-width="0.4" stroke-miterlimit="10" stroke-linecap="round" stroke-linejoin="round"/>
<path fill-rule="evenodd" clip-rule="evenodd" d="M38.8336 38.8034C39.0798 38.5574 39.479 38.5574 39.7252 38.8034L40.885 39.9623C41.1312 40.2083 41.1312 40.6072 40.885 40.8532C40.6388 41.0993 40.2396 41.0993 39.9934 40.8532L38.8336 39.6943C38.5874 39.4483 38.5874 39.0494 38.8336 38.8034Z" fill="#1D1954" stroke="#1D1954" stroke-width="0.4" stroke-miterlimit="10" stroke-linecap="round" stroke-linejoin="round"/>
<path fill-rule="evenodd" clip-rule="evenodd" d="M40.9673 33.722C40.9673 33.3741 41.2496 33.092 41.5977 33.092H43.2036C43.5518 33.092 43.8341 33.3741 43.8341 33.722C43.8341 34.0699 43.5518 34.352 43.2036 34.352H41.5977C41.2496 34.352 40.9673 34.0699 40.9673 33.722Z" fill="#1D1954" stroke="#1D1954" stroke-width="0.4" stroke-miterlimit="10" stroke-linecap="round" stroke-linejoin="round"/>
<path fill-rule="evenodd" clip-rule="evenodd" d="M40.885 26.5458C41.1312 26.7919 41.1312 27.1907 40.885 27.4368L39.7252 28.5957C39.479 28.8417 39.0798 28.8417 38.8336 28.5957C38.5874 28.3496 38.5874 27.9508 38.8336 27.7047L39.9934 26.5458C40.2396 26.2998 40.6388 26.2998 40.885 26.5458Z" fill="#1D1954" stroke="#1D1954" stroke-width="0.4" stroke-miterlimit="10" stroke-linecap="round" stroke-linejoin="round"/>
<path fill-rule="evenodd" clip-rule="evenodd" d="M10.4841 28.1363L8.92285 27.7351L9.23688 26.5149L10.7982 26.9161L10.4841 28.1363Z" fill="#1D1954" stroke="#1D1954" stroke-width="0.4" stroke-miterlimit="10"/>
<path fill-rule="evenodd" clip-rule="evenodd" d="M12.7419 22.3262L11.3145 21.5239L11.9326 20.4258L13.3601 21.2281L12.7419 22.3262Z" fill="#1D1954" stroke="#1D1954" stroke-width="0.4" stroke-miterlimit="10"/>
<path fill-rule="evenodd" clip-rule="evenodd" d="M16.3952 17.2749L15.2354 16.116L16.127 15.2251L17.2868 16.384L16.3952 17.2749Z" fill="#1D1954" stroke="#1D1954" stroke-width="0.4" stroke-miterlimit="10"/>
<path fill-rule="evenodd" clip-rule="evenodd" d="M21.2558 13.3698L20.4082 11.988L21.4833 11.3296L22.3308 12.7114L21.2558 13.3698Z" fill="#1D1954" stroke="#1D1954" stroke-width="0.4" stroke-miterlimit="10"/>
<path fill-rule="evenodd" clip-rule="evenodd" d="M26.9402 10.8466L26.4941 9.242L27.7091 8.90479L28.1551 10.5094L26.9402 10.8466Z" fill="#1D1954" stroke="#1D1954" stroke-width="0.4" stroke-miterlimit="10"/>
<path d="M55.7388 33.7225C55.7388 27.6607 53.2854 22.1783 49.2708 18.1669L44.8102 22.6241C47.665 25.4767 49.4046 29.399 49.4046 33.7225C49.4046 42.3694 42.3568 49.4118 33.7032 49.4118C29.3763 49.4118 25.451 47.6735 22.5961 44.8209L18.1355 49.2781C22.1055 53.245 27.6367 55.741 33.7032 55.741C45.8361 55.6965 55.7388 45.8461 55.7388 33.7225Z" fill="#FF5A72"/>
</svg>
