<svg width="54" height="59" viewBox="0 0 54 59" fill="none" xmlns="http://www.w3.org/2000/svg">
<path d="M37.8208 36.0608L35.8607 37.8808C35.0674 38.5809 34.0407 39.0009 33.014 39.0009H27.7405H20.7404C19.667 39.0009 18.6403 38.6275 17.8936 37.8808L15.9336 36.0608" stroke="#1D1954" stroke-width="2" stroke-miterlimit="10" stroke-linecap="round" stroke-linejoin="round"/>
<path d="M45.3345 48.4744H37.3076V47.0744C37.3076 45.6743 38.3343 44.461 39.7343 44.2276L45.2878 43.481" stroke="#1D1954" stroke-width="2" stroke-miterlimit="10" stroke-linecap="round"/>
<path d="M7.9539 43.481L13.5074 44.2276C14.9074 44.4143 15.9341 45.6277 15.9341 47.0744V48.4744H7.90723" stroke="#1D1954" stroke-width="2" stroke-miterlimit="10" stroke-linecap="round"/>
<path d="M3.61328 40.0745V53.3748" stroke="#1D1954" stroke-width="2" stroke-miterlimit="10" stroke-linecap="round" stroke-linejoin="round"/>
<path d="M3.6134 40.0744L1.42002 37.6477C1.14001 37.4143 1 37.041 1 36.7143V34.1009C1 33.4009 1.56002 32.7942 2.30671 32.7942H7.34682L11.7336 24.394C12.6203 23.2273 13.9736 22.574 15.3737 22.574H26.6673H37.9609C39.4076 22.574 40.7609 23.2273 41.6009 24.394L45.9877 32.7942H51.0278C51.7279 32.7942 52.3345 33.3542 52.3345 34.1009V36.7143C52.3345 37.0877 52.1945 37.4143 51.9145 37.6477L49.7211 40.0744V53.3747" stroke="#1D1954" stroke-width="2" stroke-miterlimit="10" stroke-linecap="round" stroke-linejoin="round"/>
<path d="M41.5547 53.3745V53.8879C41.5547 56.1279 43.3747 57.948 45.6148 57.948C47.8548 57.948 49.6749 56.1279 49.6749 53.8879V53.3745" stroke="#1D1954" stroke-width="2" stroke-miterlimit="10" stroke-linecap="round" stroke-linejoin="round"/>
<path d="M11.7335 53.3745V53.8879C11.7335 56.1279 9.91343 57.948 7.67338 57.948C5.43333 57.948 3.61328 56.1279 3.61328 53.8879V53.3745" stroke="#1D1954" stroke-width="2" stroke-miterlimit="10" stroke-linecap="round" stroke-linejoin="round"/>
<path d="M45.335 53.3745H27.4145H7.9541" stroke="#1D1954" stroke-width="2" stroke-miterlimit="10" stroke-linecap="round" stroke-linejoin="round"/>
<path d="M23.4473 48.4746H29.8408" stroke="#1D1954" stroke-width="2" stroke-miterlimit="10" stroke-linecap="round" stroke-linejoin="round"/>
<path d="M11.4068 2.96003L9.86679 10.6136C9.68012 11.4536 10.4268 12.2003 11.2668 12.1069C17.0536 11.3602 26.8072 10.1469 39.8275 11.8269L42.0209 12.1069C42.8609 12.2003 43.5609 11.4536 43.4209 10.6136L41.8809 2.96003C41.7875 2.44669 41.3675 2.02669 40.8075 1.98002C31.3806 0.673326 21.9537 0.673326 12.4802 1.98002C11.9668 2.07336 11.5468 2.44669 11.4068 2.96003Z" stroke="#1D1954" stroke-width="2" stroke-miterlimit="10" stroke-linecap="round"/>
<path d="M40.1538 9.0735C35.6737 8.51349 31.1469 8.18681 26.6668 8.18681C21.02 8.18681 16.2599 8.65349 12.9932 9.0735L13.8798 4.59339C18.0799 4.08005 22.3734 3.80005 26.5735 3.80005C30.7736 3.80005 35.067 4.08005 39.2671 4.59339L40.1538 9.0735Z" fill="#FF5A72"/>
<path d="M27 13V20.5M27 20.5L25 18.5M27 20.5L29 18.5" stroke="#1D1954" stroke-width="1.4" stroke-linecap="round"/>
</svg>
