<svg width="58" height="58" viewBox="0 0 58 58" fill="none" xmlns="http://www.w3.org/2000/svg">
<path fill-rule="evenodd" clip-rule="evenodd" d="M4.22107 43.7612C3.27271 43.7612 2.51939 44.5436 2.51939 45.4732V57.1271C2.51939 57.6092 2.13092 58 1.65172 58C1.17252 58 0.784058 57.6092 0.784058 57.1271V45.4732C0.784058 43.5988 2.29522 42.0154 4.22107 42.0154H15.6743C17.6777 42.0154 19.2856 43.6329 19.2856 45.6484C19.2856 47.6639 17.6777 49.2815 15.6743 49.2815H6.05011C5.57091 49.2815 5.18245 48.8907 5.18245 48.4086C5.18245 47.9265 5.57091 47.5357 6.05011 47.5357H15.6743C16.7193 47.5357 17.5502 46.6997 17.5502 45.6484C17.5502 44.5971 16.7193 43.7612 15.6743 43.7612H4.22107Z" fill="#1D1954"/>
<path fill-rule="evenodd" clip-rule="evenodd" d="M38.7145 45.6484C38.7145 43.6329 40.3223 42.0154 42.3257 42.0154H53.7789C55.7048 42.0154 57.216 43.5988 57.216 45.4732V57.1271C57.216 57.6092 56.8275 58 56.3483 58C55.8691 58 55.4806 57.6092 55.4806 57.1271V45.4732C55.4806 44.5436 54.7273 43.7612 53.7789 43.7612H42.3257C41.2807 43.7612 40.4498 44.5971 40.4498 45.6484C40.4498 46.6997 41.2807 47.5357 42.3257 47.5357H51.9499C52.4291 47.5357 52.8176 47.9265 52.8176 48.4086C52.8176 48.8907 52.4291 49.2815 51.9499 49.2815H42.3257C40.3223 49.2815 38.7145 47.6639 38.7145 45.6484Z" fill="#1D1954"/>
<path fill-rule="evenodd" clip-rule="evenodd" d="M16.5966 15.141C16.9172 14.7827 17.4658 14.7536 17.822 15.0761L19.9994 17.0477C20.7176 17.6979 21.6016 18.0503 22.5545 18.0503H36.011C36.9639 18.0503 37.8479 17.6979 38.566 17.0477L40.7435 15.0761C41.0996 14.7536 41.6483 14.7827 41.9688 15.141C42.2894 15.4994 42.2605 16.0513 41.9043 16.3738L39.7269 18.3453C38.7031 19.2723 37.4097 19.7961 36.011 19.7961H22.5545C21.1558 19.7961 19.8624 19.2723 18.8386 18.3453L16.6611 16.3738C16.305 16.0513 16.2761 15.4994 16.5966 15.141Z" fill="#1D1954"/>
<path fill-rule="evenodd" clip-rule="evenodd" d="M50.4143 23.8445C50.4787 24.3222 50.146 24.762 49.6712 24.8269L43.5771 25.6589C43.5766 25.659 43.5762 25.659 43.5758 25.6591C42.4372 25.8188 41.6253 26.7643 41.6253 27.9049V28.6092H49.5545C50.0337 28.6092 50.4221 29.0001 50.4221 29.4822C50.4221 29.9642 50.0337 30.3551 49.5545 30.3551H39.89V27.9049C39.89 25.8915 41.3421 24.2086 43.3383 23.9297L43.341 23.9293L49.4378 23.0969C49.9126 23.0321 50.3498 23.3668 50.4143 23.8445Z" fill="#1D1954"/>
<path fill-rule="evenodd" clip-rule="evenodd" d="M7.62859 23.8445C7.69303 23.3668 8.13021 23.0321 8.60506 23.0969L14.7079 23.9301C16.6475 24.2089 18.1528 25.8812 18.1528 27.9049V30.3551H8.48837C8.00918 30.3551 7.62071 29.9642 7.62071 29.4822C7.62071 29.0001 8.00918 28.6092 8.48837 28.6092H16.4175V27.9049C16.4175 26.7751 15.5726 25.8194 14.4652 25.6588L8.37169 24.8269C7.89684 24.762 7.56415 24.3222 7.62859 23.8445Z" fill="#1D1954"/>
<path fill-rule="evenodd" clip-rule="evenodd" d="M3.74132 19.321C4.22052 19.321 4.60899 19.7119 4.60899 20.194V34.8709C4.60899 35.353 4.22052 35.7438 3.74132 35.7438C3.26212 35.7438 2.87366 35.353 2.87366 34.8709V20.194C2.87366 19.7119 3.26212 19.321 3.74132 19.321Z" fill="#1D1954"/>
<path fill-rule="evenodd" clip-rule="evenodd" d="M13.3597 3.36015L8.60481 12.536C8.45533 12.8245 8.15879 13.0054 7.83542 13.0054H2.30479C2.0001 13.0054 1.73533 13.2718 1.73533 13.5783V16.4699C1.73533 16.6852 1.80596 16.8052 1.86782 16.8586C1.89406 16.8812 1.91894 16.9054 1.94232 16.931L4.38105 19.6035C4.70512 19.9587 4.68166 20.5109 4.32866 20.8369C3.97566 21.1629 3.42679 21.1393 3.10272 20.7842L0.694257 18.1449C0.180361 17.6752 0 17.0275 0 16.4699V13.5783C0 12.3076 1.04173 11.2596 2.30479 11.2596H7.30927L11.8564 2.48472C11.8789 2.44123 11.905 2.39974 11.9345 2.36067C13.0545 0.875429 14.7895 0 16.6322 0H41.3678C43.2105 0 44.9455 0.875429 46.0655 2.36067C46.095 2.39974 46.1211 2.44123 46.1436 2.48472L50.6907 11.2596H55.6952C56.9583 11.2596 58 12.3076 58 13.5783V16.4699C58 17.0988 57.7332 17.7052 57.3251 18.1237L55.1258 20.5338V34.8708C55.1258 35.3529 54.7373 35.7437 54.2581 35.7437C53.7789 35.7437 53.3905 35.3529 53.3905 34.8708V20.1939C53.3905 19.9752 53.472 19.7646 53.619 19.6035L56.0577 16.931C56.066 16.9219 56.0746 16.9129 56.0833 16.9041C56.1895 16.7973 56.2647 16.622 56.2647 16.4699V13.5783C56.2647 13.2718 55.9999 13.0054 55.6952 13.0054H50.1646C49.8412 13.0054 49.5447 12.8245 49.3952 12.536L44.6403 3.36015C43.8434 2.33842 42.6377 1.74582 41.3678 1.74582H16.6322C15.3623 1.74582 14.1566 2.33842 13.3597 3.36015Z" fill="#1D1954"/>
<path fill-rule="evenodd" clip-rule="evenodd" d="M45.3735 33.9978C45.8527 33.9978 46.2412 34.3886 46.2412 34.8707V35.3964C46.2412 37.3678 47.856 38.9923 49.8155 38.9923C51.775 38.9923 53.3898 37.3678 53.3898 35.3964V34.8707C53.3898 34.3886 53.7782 33.9978 54.2574 33.9978C54.7366 33.9978 55.1251 34.3886 55.1251 34.8707V35.3964C55.1251 38.332 52.7334 40.7382 49.8155 40.7382C46.8976 40.7382 44.5059 38.332 44.5059 35.3964V34.8707C44.5059 34.3886 44.8943 33.9978 45.3735 33.9978Z" fill="#1D1954"/>
<path fill-rule="evenodd" clip-rule="evenodd" d="M3.78466 33.9978C4.26386 33.9978 4.65232 34.3886 4.65232 34.8707V35.3964C4.65232 37.3678 6.26709 38.9923 8.22661 38.9923C10.1861 38.9923 11.8009 37.3678 11.8009 35.3964V34.8707C11.8009 34.3886 12.1894 33.9978 12.6686 33.9978C13.1478 33.9978 13.5362 34.3886 13.5362 34.8707V35.3964C13.5362 38.332 11.1445 40.7382 8.22661 40.7382C5.3087 40.7382 2.91699 38.332 2.91699 35.3964V34.8707C2.91699 34.3886 3.30546 33.9978 3.78466 33.9978Z" fill="#1D1954"/>
<path fill-rule="evenodd" clip-rule="evenodd" d="M7.62061 34.8707C7.62061 34.3886 8.00907 33.9978 8.48827 33.9978H49.5545C50.0337 33.9978 50.4222 34.3886 50.4222 34.8707C50.4222 35.3528 50.0337 35.7436 49.5545 35.7436H8.48827C8.00907 35.7436 7.62061 35.3528 7.62061 34.8707Z" fill="#1D1954"/>
<path fill-rule="evenodd" clip-rule="evenodd" d="M24.6482 29.482C24.6482 28.9999 25.0367 28.6091 25.5159 28.6091H32.5272C33.0064 28.6091 33.3948 28.9999 33.3948 29.482C33.3948 29.9641 33.0064 30.3549 32.5272 30.3549H25.5159C25.0367 30.3549 24.6482 29.9641 24.6482 29.482Z" fill="#1D1954"/>
<path fill-rule="evenodd" clip-rule="evenodd" d="M12.0189 12.1764C12.0189 11.6943 12.4074 11.3035 12.8866 11.3035H45.156C45.6352 11.3035 46.0237 11.6943 46.0237 12.1764C46.0237 12.6585 45.6352 13.0493 45.156 13.0493H12.8866C12.4074 13.0493 12.0189 12.6585 12.0189 12.1764Z" fill="#1D1954"/>
<path d="M41.4108 3.54565H29.0431H16.6753C15.9785 3.54565 15.3253 3.85234 14.8463 4.37808L12.4946 8.93449H45.5915L43.2399 4.37808C42.7608 3.85234 42.1076 3.54565 41.4108 3.54565Z" fill="#FF5A72"/>
</svg>
