<svg width="15" height="15" viewBox="0 0 15 15" fill="none" xmlns="http://www.w3.org/2000/svg">
<path d="M14.0739 9.32913L9.82988 8.57913C9.61503 8.54128 9.40067 8.64675 9.29983 8.84011L8.27075 10.812C6.4499 10.0056 4.99478 8.54983 4.18909 6.72855L6.15912 5.6995C6.35248 5.59867 6.45795 5.38432 6.42011 5.16947L5.67009 0.926082C5.64665 0.792538 5.56999 0.674374 5.45768 0.598447C4.38465 -0.125183 2.99984 -0.197937 1.85699 0.409482C0.714132 1.01715 0 2.20586 0 3.50005C0.00708027 9.84841 5.15176 14.9929 11.5003 15C12.7948 14.9998 13.9836 14.2852 14.591 13.1421C15.1982 11.9988 15.125 10.6138 14.4003 9.54104C14.3246 9.42922 14.207 9.35256 14.0739 9.32913ZM11.5003 14C5.70403 13.9934 1.00662 9.29617 1.00003 3.50005C0.999785 2.61187 1.47099 1.79034 2.23761 1.34161C3.00424 0.893123 3.95153 0.885067 4.72573 1.32061L5.37223 4.98344L3.32212 6.0535C3.0975 6.17069 2.99594 6.43705 3.08554 6.67411C3.99963 9.09206 5.90789 11.0015 8.32568 11.9165C8.56275 12.0061 8.82912 11.9046 8.94631 11.6799L10.0169 9.6299L13.6798 10.2766C14.1144 11.0506 14.1056 11.9968 13.6574 12.7629C13.2089 13.5288 12.3881 13.9998 11.5003 14Z" fill="#344154"/>
</svg>
