<svg width="28" height="28" viewBox="0 0 28 28" fill="none" xmlns="http://www.w3.org/2000/svg">
<path d="M20.3 25.6667C15.5369 25.6605 10.9706 23.7657 7.60251 20.3976C4.23444 17.0295 2.33955 12.4632 2.33337 7.70005C2.33337 6.27672 2.89879 4.91169 3.90523 3.90525C4.91168 2.8988 6.27671 2.33339 7.70004 2.33339C8.00144 2.33109 8.30233 2.35844 8.59837 2.41505C8.88457 2.4574 9.16592 2.52774 9.43837 2.62505C9.63 2.69229 9.80075 2.80837 9.93375 2.96184C10.0668 3.1153 10.1574 3.30082 10.1967 3.50005L11.795 10.5001C11.8381 10.6901 11.8329 10.8878 11.7799 11.0753C11.727 11.2628 11.6279 11.434 11.4917 11.5734C11.34 11.7367 11.3284 11.7484 9.89337 12.4951C11.0425 15.0161 13.0588 17.0406 15.575 18.2001C16.3334 16.7534 16.345 16.7417 16.5084 16.5901C16.6477 16.4539 16.819 16.3548 17.0064 16.3018C17.1939 16.2488 17.3917 16.2436 17.5817 16.2867L24.5817 17.8851C24.7746 17.9298 24.9529 18.0229 25.0998 18.1556C25.2468 18.2882 25.3575 18.4561 25.4217 18.6434C25.5202 18.9203 25.5943 19.2053 25.6434 19.4951C25.6903 19.7883 25.7137 20.0848 25.7134 20.3817C25.6919 21.799 25.1105 23.1501 24.0963 24.1403C23.0821 25.1305 21.7174 25.6792 20.3 25.6667ZM7.70004 4.66672C6.8965 4.66979 6.12674 4.99036 5.55855 5.55856C4.99035 6.12675 4.66978 6.89651 4.66671 7.70005C4.6698 11.8453 6.31787 15.8199 9.24902 18.7511C12.1802 21.6822 16.1548 23.3303 20.3 23.3334C21.1036 23.3303 21.8733 23.0097 22.4415 22.4415C23.0097 21.8734 23.3303 21.1036 23.3334 20.3001V19.9151L17.92 18.6667L17.5817 19.3084C17.0567 20.3234 16.6717 21.0584 15.6917 20.6617C13.7584 19.9697 12.0035 18.8558 10.5546 17.4007C9.10561 15.9457 7.99897 14.1862 7.31504 12.2501C6.89504 11.3401 7.68837 10.9201 8.69171 10.3951L9.33337 10.0801L8.08504 4.66672H7.70004Z" fill="#FF6072"/>
</svg>
